<svg xmlns="http://www.w3.org/2000/svg" width="24" height="25" viewBox="0 0 24 25" fill="none">
  <path d="M12 15.5C13.6569 15.5 15 14.1569 15 12.5C15 10.8431 13.6569 9.5 12 9.5C10.3431 9.5 9 10.8431 9 12.5C9 14.1569 10.3431 15.5 12 15.5Z" fill="#8E969E"/>
  <path d="M16.125 3.125H7.875C6.48261 3.125 5.14726 3.67812 4.16269 4.66269C3.17812 5.64726 2.625 6.98261 2.625 8.375V16.625C2.625 18.0174 3.17812 19.3527 4.16269 20.3373C5.14726 21.3219 6.48261 21.875 7.875 21.875H16.125C17.5174 21.875 18.8527 21.3219 19.8373 20.3373C20.8219 19.3527 21.375 18.0174 21.375 16.625V8.375C21.375 6.98261 20.8219 5.64726 19.8373 4.66269C18.8527 3.67812 17.5174 3.125 16.125 3.125ZM12 17C11.11 17 10.24 16.7361 9.49993 16.2416C8.75991 15.7471 8.18314 15.0443 7.84254 14.2221C7.50195 13.3998 7.41283 12.495 7.58647 11.6221C7.7601 10.7492 8.18868 9.94736 8.81802 9.31802C9.44736 8.68868 10.2492 8.2601 11.1221 8.08647C11.995 7.91283 12.8998 8.00195 13.7221 8.34254C14.5443 8.68314 15.2471 9.25991 15.7416 9.99993C16.2361 10.74 16.5 11.61 16.5 12.5C16.5 13.6935 16.0259 14.8381 15.182 15.682C14.3381 16.5259 13.1935 17 12 17ZM16.875 8.75C16.6525 8.75 16.435 8.68402 16.25 8.5604C16.065 8.43679 15.9208 8.26109 15.8356 8.05552C15.7505 7.84995 15.7282 7.62375 15.7716 7.40552C15.815 7.18729 15.9222 6.98684 16.0795 6.8295C16.2368 6.67217 16.4373 6.56502 16.6555 6.52162C16.8738 6.47821 17.1 6.50049 17.3055 6.58564C17.5111 6.67078 17.6868 6.81498 17.8104 6.99998C17.934 7.18499 18 7.4025 18 7.625C18 7.92337 17.8815 8.20952 17.6705 8.4205C17.4595 8.63147 17.1734 8.75 16.875 8.75Z" fill="#8E969E"/>
</svg>