<svg xmlns="http://www.w3.org/2000/svg" width="24" height="25" viewBox="0 0 24 25" fill="none">
  <path d="M7.55016 22.2502C16.6045 22.2502 21.5583 14.7469 21.5583 8.24211C21.5583 8.03117 21.5536 7.81554 21.5442 7.6046C22.5079 6.90771 23.3395 6.0445 24 5.05554C23.1025 5.45484 22.1496 5.71563 21.1739 5.82898C22.2013 5.21315 22.9705 4.24572 23.3391 3.10601C22.3726 3.6788 21.3156 4.08286 20.2134 4.30085C19.4708 3.51181 18.489 2.98936 17.4197 2.8143C16.3504 2.63923 15.2532 2.82129 14.2977 3.33234C13.3423 3.84339 12.5818 4.65495 12.1338 5.64156C11.6859 6.62816 11.5754 7.73486 11.8195 8.79054C9.86249 8.69233 7.94794 8.18395 6.19998 7.29834C4.45203 6.41274 2.90969 5.16968 1.67297 3.64976C1.0444 4.73349 0.852057 6.01589 1.13503 7.23634C1.418 8.45678 2.15506 9.52369 3.19641 10.2202C2.41463 10.1954 1.64998 9.98492 0.965625 9.60617V9.6671C0.964925 10.8044 1.3581 11.9068 2.07831 12.787C2.79852 13.6672 3.80132 14.2708 4.91625 14.4952C4.19206 14.6934 3.43198 14.7222 2.69484 14.5796C3.00945 15.5577 3.62157 16.4131 4.44577 17.0266C5.26997 17.64 6.26512 17.9808 7.29234 18.0015C5.54842 19.3714 3.39417 20.1144 1.17656 20.1109C0.783287 20.1103 0.390399 20.0861 0 20.0387C2.25286 21.484 4.87353 22.2516 7.55016 22.2502Z" fill="#8E969E"/>
</svg>