<svg width="1195" height="613" viewBox="0 0 1195 613" fill="none" xmlns="http://www.w3.org/2000/svg">
<path d="M6.554 44V42.278L10.166 41.354V20.9L6.512 19.976V18.254H18.734V19.976L15.08 20.9V41.354L18.734 42.278V44H6.554ZM21.3918 44V42.362L24.8358 41.312V26.612L21.3918 26.192V24.512L28.1538 22.958H29.7498V24.638C30.2538 24.386 30.9118 24.134 31.7238 23.882C32.5358 23.63 33.3898 23.42 34.2858 23.252C35.2098 23.056 36.0778 22.958 36.8898 22.958C37.7578 22.958 38.5978 23.098 39.4098 23.378C40.2498 23.63 40.9078 24.106 41.3838 24.806C41.9718 24.554 42.6998 24.288 43.5678 24.008C44.4358 23.728 45.3598 23.49 46.3398 23.294C47.3478 23.07 48.2858 22.958 49.1538 22.958C50.1338 22.958 51.0158 23.098 51.7998 23.378C52.6118 23.658 53.2558 24.134 53.7318 24.806C54.2078 25.45 54.4458 26.304 54.4458 27.368V41.312L57.9318 42.362V44H46.8018V42.362L49.5318 41.312V28.586C49.5318 27.578 49.3078 26.906 48.8598 26.57C48.4398 26.206 47.5858 26.024 46.2978 26.024C45.4298 26.024 44.6178 26.08 43.8618 26.192C43.1338 26.304 42.5318 26.444 42.0558 26.612C42.0558 26.752 42.0558 26.906 42.0558 27.074C42.0838 27.214 42.0978 27.368 42.0978 27.536V41.312L44.8278 42.362V44H34.4538V42.362L37.1838 41.312V28.586C37.1838 27.55 36.9598 26.864 36.5118 26.528C36.0918 26.192 35.1958 26.024 33.8238 26.024C33.0398 26.024 32.2838 26.08 31.5558 26.192C30.8558 26.304 30.2538 26.444 29.7498 26.612V41.312L32.4798 42.362V44H21.3918ZM59.2804 51.056V49.25L62.7244 48.326V26.528L58.9444 26.192V24.512C60.0084 24.232 61.2124 23.98 62.5564 23.756C63.9284 23.532 65.3284 23.35 66.7564 23.21C68.1844 23.042 69.5424 22.958 70.8304 22.958C72.8744 22.958 74.5684 23.21 75.9124 23.714C77.2844 24.19 78.3764 24.904 79.1884 25.856C80.0004 26.78 80.5744 27.914 80.9104 29.258C81.2744 30.574 81.4564 32.072 81.4564 33.752C81.4564 35.768 81.0924 37.546 80.3644 39.086C79.6644 40.626 78.6144 41.83 77.2144 42.698C75.8144 43.566 74.0924 44 72.0484 44C71.4604 44 70.8584 43.944 70.2424 43.832C69.6544 43.72 69.1364 43.58 68.6884 43.412L69.2344 41.438C69.4024 41.466 69.6264 41.508 69.9064 41.564C70.2144 41.592 70.4664 41.606 70.6624 41.606C71.8664 41.606 72.8324 41.396 73.5604 40.976C74.2884 40.556 74.8344 39.982 75.1984 39.254C75.5904 38.526 75.8424 37.686 75.9544 36.734C76.0664 35.754 76.1224 34.704 76.1224 33.584C76.1224 32.66 76.0664 31.722 75.9544 30.77C75.8424 29.818 75.6184 28.95 75.2824 28.166C74.9464 27.382 74.4284 26.738 73.7284 26.234C73.0284 25.73 72.0904 25.478 70.9144 25.478C70.3824 25.478 69.8364 25.52 69.2764 25.604C68.7164 25.688 68.1704 25.814 67.6384 25.982V48.2L72.0484 49.166V51.056H59.2804ZM89.4446 44.42C88.4086 44.42 87.5266 44.196 86.7986 43.748C86.0986 43.3 85.5526 42.684 85.1606 41.9C84.7966 41.116 84.6146 40.234 84.6146 39.254C84.6146 38.526 84.7546 37.756 85.0346 36.944C85.3426 36.132 85.8746 35.39 86.6306 34.718C87.4146 34.018 88.5346 33.528 89.9906 33.248L95.9126 32.114V28.964C95.9126 27.872 95.6886 27.074 95.2406 26.57C94.8206 26.066 94.0366 25.814 92.8886 25.814C92.3286 25.814 91.7546 25.87 91.1666 25.982C90.6066 26.066 90.0886 26.192 89.6126 26.36L88.6886 29.888H86.4626L85.7486 24.512C87.0086 24.036 88.3386 23.658 89.7386 23.378C91.1666 23.098 92.6366 22.958 94.1486 22.958C95.5206 22.958 96.6966 23.098 97.6766 23.378C98.6846 23.658 99.4546 24.162 99.9866 24.89C100.547 25.618 100.827 26.64 100.827 27.956V40.892L104.061 41.9V43.496C103.137 43.748 102.339 43.93 101.667 44.042C101.023 44.154 100.365 44.21 99.6926 44.21C98.8806 44.21 98.1106 44.028 97.3826 43.664C96.6546 43.272 96.1926 42.698 95.9966 41.942C94.9606 42.698 93.9246 43.3 92.8886 43.748C91.8526 44.196 90.7046 44.42 89.4446 44.42ZM92.0066 41.312C92.6786 41.312 93.3786 41.172 94.1066 40.892C94.8346 40.612 95.4366 40.318 95.9126 40.01V34.34L92.7206 35.012C91.5166 35.264 90.6766 35.712 90.2006 36.356C89.7526 37 89.5286 37.77 89.5286 38.666C89.5286 39.618 89.7526 40.304 90.2006 40.724C90.6766 41.116 91.2786 41.312 92.0066 41.312ZM115.461 44.42C113.193 44.42 111.359 43.93 109.959 42.95C108.559 41.97 107.551 40.682 106.935 39.086C106.319 37.462 106.011 35.684 106.011 33.752C106.011 31.736 106.319 29.916 106.935 28.292C107.551 26.668 108.545 25.38 109.917 24.428C111.317 23.448 113.165 22.958 115.461 22.958C116.861 22.958 118.107 23.07 119.199 23.294C120.319 23.49 121.453 23.812 122.601 24.26L121.803 29.888H119.703L118.779 26.066C118.303 25.898 117.827 25.772 117.351 25.688C116.903 25.576 116.413 25.52 115.881 25.52C114.621 25.52 113.655 25.884 112.983 26.612C112.339 27.312 111.891 28.278 111.639 29.51C111.415 30.714 111.303 32.1 111.303 33.668C111.303 35.124 111.387 36.356 111.555 37.364C111.751 38.372 112.045 39.184 112.437 39.8C112.829 40.416 113.333 40.864 113.949 41.144C114.565 41.424 115.321 41.564 116.217 41.564C117.085 41.564 118.037 41.494 119.073 41.354C120.137 41.186 121.243 40.934 122.391 40.598L122.685 42.278C121.733 42.894 120.641 43.412 119.409 43.832C118.177 44.224 116.861 44.42 115.461 44.42ZM130.762 44.378C129.754 44.378 128.984 44.224 128.452 43.916C127.948 43.58 127.598 43.16 127.402 42.656C127.234 42.124 127.15 41.592 127.15 41.06V26.066H124.126V24.26L127.57 22.874L129.796 18.674H132.022V23.336H137.524V26.276L132.022 26.066V40.808L136.936 41.732V43.496C136.348 43.664 135.662 43.818 134.878 43.958C134.094 44.07 133.324 44.168 132.568 44.252C131.84 44.336 131.238 44.378 130.762 44.378Z" fill="#267C46"/>
<path d="M159.628 44.378C156.688 44.378 154.294 43.776 152.446 42.572C150.598 41.34 149.24 39.716 148.372 37.7C147.532 35.656 147.112 33.416 147.112 30.98C147.112 28.544 147.532 26.318 148.372 24.302C149.212 22.286 150.542 20.676 152.362 19.472C154.21 18.268 156.632 17.666 159.628 17.666C162.624 17.666 165.032 18.268 166.852 19.472C168.672 20.676 169.988 22.286 170.8 24.302C171.612 26.318 172.018 28.544 172.018 30.98C172.018 33.416 171.598 35.656 170.758 37.7C169.946 39.716 168.63 41.34 166.81 42.572C164.99 43.776 162.596 44.378 159.628 44.378ZM159.796 41.774C161.308 41.774 162.526 41.424 163.45 40.724C164.374 40.024 165.074 39.128 165.55 38.036C166.026 36.944 166.334 35.782 166.474 34.55C166.642 33.29 166.726 32.1 166.726 30.98C166.726 29.888 166.628 28.726 166.432 27.494C166.264 26.234 165.914 25.058 165.382 23.966C164.878 22.874 164.136 21.992 163.156 21.32C162.204 20.62 160.944 20.27 159.376 20.27C157.892 20.27 156.688 20.62 155.764 21.32C154.84 21.992 154.14 22.874 153.664 23.966C153.188 25.058 152.852 26.234 152.656 27.494C152.488 28.726 152.404 29.888 152.404 30.98C152.404 32.128 152.502 33.332 152.698 34.592C152.894 35.852 153.244 37.028 153.748 38.12C154.28 39.212 155.022 40.094 155.974 40.766C156.954 41.438 158.228 41.774 159.796 41.774ZM174.711 44V42.152L178.155 41.312V26.066H174.753V24.302L178.155 22.958C178.155 20.914 178.519 19.178 179.247 17.75C180.003 16.322 181.067 15.23 182.439 14.474C183.811 13.718 185.435 13.34 187.311 13.34C187.787 13.34 188.319 13.396 188.907 13.508C189.495 13.592 190.027 13.704 190.503 13.844C191.007 13.984 191.357 14.138 191.553 14.306L190.839 19.934H188.529L187.857 16.784C187.605 16.7 187.339 16.63 187.059 16.574C186.779 16.518 186.513 16.49 186.261 16.49C185.337 16.49 184.637 16.728 184.161 17.204C183.713 17.652 183.419 18.296 183.279 19.136C183.139 19.948 183.069 20.9 183.069 21.992V23.336H189.369V26.36L183.111 25.982V41.186L187.983 42.026V44H174.711ZM198.384 44V42.278L202.038 41.354V20.9L198.342 19.976V18.254H217.368V24.176H215.268L214.344 20.9H206.994V30.224H211.992L212.748 27.452H214.764V35.348H212.748L211.908 32.45H206.994V41.27H215.1L216.192 37.406H218.292V44H198.384ZM228.076 44.42C226.48 44.42 225.15 43.916 224.086 42.908C223.05 41.9 222.266 40.584 221.734 38.96C221.23 37.336 220.978 35.6 220.978 33.752C220.978 30.42 221.776 27.788 223.372 25.856C224.968 23.924 227.208 22.958 230.092 22.958C230.904 22.958 231.646 23.042 232.318 23.21C233.018 23.35 233.578 23.504 233.998 23.672C234.446 23.84 234.698 23.952 234.754 24.008V17.078L231.268 16.616V14.978L238.03 13.34H239.668V40.892L243.07 41.9V43.496C242.174 43.748 241.348 43.93 240.592 44.042C239.864 44.154 239.164 44.21 238.492 44.21C237.708 44.21 236.952 44.028 236.224 43.664C235.496 43.272 235.048 42.726 234.88 42.026C233.928 42.726 232.892 43.3 231.772 43.748C230.68 44.196 229.448 44.42 228.076 44.42ZM230.47 41.354C231.338 41.354 232.164 41.186 232.948 40.85C233.76 40.514 234.362 40.178 234.754 39.842V26.654C234.278 26.29 233.69 26.01 232.99 25.814C232.318 25.59 231.646 25.478 230.974 25.478C229.406 25.478 228.23 26.22 227.446 27.704C226.662 29.188 226.27 31.176 226.27 33.668C226.27 35.936 226.592 37.784 227.236 39.212C227.908 40.64 228.986 41.354 230.47 41.354ZM244.845 44V42.152L248.289 41.312V26.654L244.845 26.192V24.554L251.607 22.958H253.203V41.312L256.605 42.152V44H244.845ZM250.515 20.018C249.591 20.018 248.821 19.724 248.205 19.136C247.617 18.548 247.323 17.806 247.323 16.91C247.323 16.014 247.617 15.272 248.205 14.684C248.821 14.096 249.591 13.802 250.515 13.802C251.439 13.802 252.195 14.096 252.783 14.684C253.399 15.272 253.707 16.014 253.707 16.91C253.707 17.806 253.399 18.548 252.783 19.136C252.195 19.724 251.439 20.018 250.515 20.018ZM258.588 44V42.152L262.032 41.312V26.066H258.63V24.302L262.032 22.958C262.032 20.914 262.396 19.178 263.124 17.75C263.88 16.322 264.944 15.23 266.316 14.474C267.688 13.718 269.312 13.34 271.188 13.34C271.664 13.34 272.196 13.396 272.784 13.508C273.372 13.592 273.904 13.704 274.38 13.844C274.884 13.984 275.234 14.138 275.43 14.306L274.716 19.934H272.406L271.734 16.784C271.482 16.7 271.216 16.63 270.936 16.574C270.656 16.518 270.39 16.49 270.138 16.49C269.214 16.49 268.514 16.728 268.038 17.204C267.59 17.652 267.296 18.296 267.156 19.136C267.016 19.948 266.946 20.9 266.946 21.992V23.336H273.246V26.36L266.988 25.982V41.186L271.86 42.026V44H258.588ZM277.578 51.056C276.99 51.056 276.318 50.958 275.562 50.762C274.806 50.594 274.022 50.314 273.21 49.922L273.504 48.2H275.898C276.906 48.2 277.76 47.976 278.46 47.528C279.188 47.08 279.804 46.464 280.308 45.68C280.812 44.896 281.274 44 281.694 42.992L274.554 25.898L272.328 24.89V23.336H281.904V24.89L279.804 25.898L284.172 37.448L287.994 25.982L285.18 25.268V23.336H293.958V25.184L291.27 25.982L285.306 42.572C284.354 45.204 283.29 47.276 282.114 48.788C280.966 50.3 279.454 51.056 277.578 51.056ZM6.134 100V98.152L9.578 97.312V82.654L6.134 82.192V80.554L12.896 78.958H14.492V97.312L17.894 98.152V100H6.134ZM11.804 76.018C10.88 76.018 10.11 75.724 9.494 75.136C8.906 74.548 8.612 73.806 8.612 72.91C8.612 72.014 8.906 71.272 9.494 70.684C10.11 70.096 10.88 69.802 11.804 69.802C12.728 69.802 13.484 70.096 14.072 70.684C14.688 71.272 14.996 72.014 14.996 72.91C14.996 73.806 14.688 74.548 14.072 75.136C13.484 75.724 12.728 76.018 11.804 76.018ZM19.7512 100V98.362L23.1952 97.312V82.612L19.7512 82.192V80.512L26.5132 78.958H28.1092V80.638C28.5292 80.442 29.1592 80.218 29.9992 79.966C30.8392 79.686 31.7492 79.448 32.7292 79.252C33.7092 79.056 34.6472 78.958 35.5432 78.958C36.4952 78.958 37.3632 79.098 38.1472 79.378C38.9592 79.658 39.6172 80.12 40.1212 80.764C40.6252 81.408 40.8772 82.276 40.8772 83.368V97.312L44.3632 98.362V100H33.1072V98.362L35.9632 97.312V84.586C35.9632 83.522 35.7392 82.836 35.2912 82.528C34.8432 82.192 33.9472 82.024 32.6032 82.024C31.7072 82.024 30.8812 82.08 30.1252 82.192C29.3972 82.304 28.7252 82.444 28.1092 82.612V97.312L30.9652 98.362V100H19.7512ZM53.2501 100V98.152L56.6941 97.312V73.078L53.2501 72.616V70.978L60.0121 69.34H61.6081V97.312L65.0521 98.152V100H53.2501ZM72.4641 100.42C71.4281 100.42 70.5461 100.196 69.8181 99.748C69.1181 99.3 68.5721 98.684 68.1801 97.9C67.8161 97.116 67.6341 96.234 67.6341 95.254C67.6341 94.526 67.7741 93.756 68.0541 92.944C68.3621 92.132 68.8941 91.39 69.6501 90.718C70.4341 90.018 71.5541 89.528 73.0101 89.248L78.9321 88.114V84.964C78.9321 83.872 78.7081 83.074 78.2601 82.57C77.8401 82.066 77.0561 81.814 75.9081 81.814C75.3481 81.814 74.7741 81.87 74.1861 81.982C73.6261 82.066 73.1081 82.192 72.6321 82.36L71.7081 85.888H69.4821L68.7681 80.512C70.0281 80.036 71.3581 79.658 72.7581 79.378C74.1861 79.098 75.6561 78.958 77.1681 78.958C78.5401 78.958 79.7161 79.098 80.6961 79.378C81.7041 79.658 82.4741 80.162 83.0061 80.89C83.5661 81.618 83.8461 82.64 83.8461 83.956V96.892L87.0801 97.9V99.496C86.1561 99.748 85.3581 99.93 84.6861 100.042C84.0421 100.154 83.3841 100.21 82.7121 100.21C81.9001 100.21 81.1301 100.028 80.4021 99.664C79.6741 99.272 79.2121 98.698 79.0161 97.942C77.9801 98.698 76.9441 99.3 75.9081 99.748C74.8721 100.196 73.7241 100.42 72.4641 100.42ZM75.0261 97.312C75.6981 97.312 76.3981 97.172 77.1261 96.892C77.8541 96.612 78.4561 96.318 78.9321 96.01V90.34L75.7401 91.012C74.5361 91.264 73.6961 91.712 73.2201 92.356C72.7721 93 72.5481 93.77 72.5481 94.666C72.5481 95.618 72.7721 96.304 73.2201 96.724C73.6961 97.116 74.2981 97.312 75.0261 97.312ZM96.2125 100.42C95.2325 100.42 94.1125 100.322 92.8525 100.126C91.5925 99.958 90.4725 99.706 89.4925 99.37L89.9965 93.868H92.0545L92.9365 97.354C93.3285 97.466 93.7765 97.578 94.2805 97.69C94.8125 97.802 95.4425 97.858 96.1705 97.858C97.5145 97.858 98.5505 97.62 99.2785 97.144C100.035 96.64 100.413 95.884 100.413 94.876C100.413 94.232 100.217 93.728 99.8245 93.364C99.4325 93 98.7185 92.65 97.6825 92.314L93.7765 90.97C92.4045 90.466 91.3685 89.78 90.6685 88.912C89.9685 88.016 89.6185 86.826 89.6185 85.342C89.6185 83.41 90.2625 81.87 91.5505 80.722C92.8385 79.546 94.8265 78.958 97.5145 78.958C98.5225 78.958 99.5725 79.07 100.665 79.294C101.757 79.49 102.793 79.798 103.773 80.218L103.185 85.216H101.211L100.329 82.15C99.9645 81.982 99.5305 81.842 99.0265 81.73C98.5505 81.59 98.0185 81.52 97.4305 81.52C96.2825 81.52 95.3725 81.744 94.7005 82.192C94.0565 82.612 93.7345 83.228 93.7345 84.04C93.7345 84.74 93.9025 85.3 94.2385 85.72C94.5745 86.14 95.1765 86.49 96.0445 86.77L100.245 88.156C101.309 88.492 102.149 88.912 102.765 89.416C103.409 89.892 103.871 90.494 104.151 91.222C104.459 91.95 104.613 92.846 104.613 93.91C104.613 95.87 103.885 97.452 102.429 98.656C101.001 99.832 98.9285 100.42 96.2125 100.42ZM113.577 100.378C112.569 100.378 111.799 100.224 111.267 99.916C110.763 99.58 110.413 99.16 110.217 98.656C110.049 98.124 109.965 97.592 109.965 97.06V82.066H106.941V80.26L110.385 78.874L112.611 74.674H114.837V79.336H120.339V82.276L114.837 82.066V96.808L119.751 97.732V99.496C119.163 99.664 118.477 99.818 117.693 99.958C116.909 100.07 116.139 100.168 115.383 100.252C114.655 100.336 114.053 100.378 113.577 100.378ZM131.186 100V98.194L137.99 97.018V77.656H131.396V75.766L142.694 74.086V97.06L148.574 98.194V100H131.186ZM162.119 107.056C161.531 107.056 160.859 106.958 160.103 106.762C159.347 106.594 158.563 106.314 157.751 105.922L158.045 104.2H160.439C161.447 104.2 162.301 103.976 163.001 103.528C163.729 103.08 164.345 102.464 164.849 101.68C165.353 100.896 165.815 100 166.235 98.992L159.095 81.898L156.869 80.89V79.336H166.445V80.89L164.345 81.898L168.713 93.448L172.535 81.982L169.721 81.268V79.336H178.499V81.184L175.811 81.982L169.847 98.572C168.895 101.204 167.831 103.276 166.655 104.788C165.507 106.3 163.995 107.056 162.119 107.056ZM188.437 100.42C186.617 100.42 185.063 100.154 183.775 99.622C182.515 99.09 181.507 98.348 180.751 97.396C179.995 96.416 179.449 95.282 179.113 93.994C178.777 92.706 178.609 91.292 178.609 89.752C178.609 87.792 178.833 86.126 179.281 84.754C179.757 83.382 180.415 82.276 181.255 81.436C182.123 80.568 183.131 79.938 184.279 79.546C185.427 79.154 186.673 78.958 188.017 78.958C190.873 78.958 192.959 79.602 194.275 80.89C195.619 82.178 196.291 84.194 196.291 86.938C196.291 87.134 196.277 87.386 196.249 87.694C196.249 88.002 196.235 88.31 196.207 88.618C196.207 88.926 196.179 89.22 196.123 89.5H183.901V90.634C183.901 92.314 184.125 93.672 184.573 94.708C185.049 95.716 185.721 96.458 186.589 96.934C187.457 97.382 188.507 97.606 189.739 97.606C190.579 97.606 191.531 97.522 192.595 97.354C193.659 97.158 194.709 96.92 195.745 96.64L196.039 98.278C195.059 98.922 193.967 99.44 192.763 99.832C191.559 100.224 190.117 100.42 188.437 100.42ZM183.985 87.484L191.209 87.064V86.14C191.209 85.216 191.125 84.418 190.957 83.746C190.817 83.046 190.523 82.514 190.075 82.15C189.655 81.758 189.039 81.562 188.227 81.562C187.191 81.562 186.365 81.786 185.749 82.234C185.161 82.654 184.741 83.312 184.489 84.208C184.237 85.104 184.069 86.196 183.985 87.484ZM204.124 100.42C203.088 100.42 202.206 100.196 201.478 99.748C200.778 99.3 200.232 98.684 199.84 97.9C199.476 97.116 199.294 96.234 199.294 95.254C199.294 94.526 199.434 93.756 199.714 92.944C200.022 92.132 200.554 91.39 201.31 90.718C202.094 90.018 203.214 89.528 204.67 89.248L210.592 88.114V84.964C210.592 83.872 210.368 83.074 209.92 82.57C209.5 82.066 208.716 81.814 207.568 81.814C207.008 81.814 206.434 81.87 205.846 81.982C205.286 82.066 204.768 82.192 204.292 82.36L203.368 85.888H201.142L200.428 80.512C201.688 80.036 203.018 79.658 204.418 79.378C205.846 79.098 207.316 78.958 208.828 78.958C210.2 78.958 211.376 79.098 212.356 79.378C213.364 79.658 214.134 80.162 214.666 80.89C215.226 81.618 215.506 82.64 215.506 83.956V96.892L218.74 97.9V99.496C217.816 99.748 217.018 99.93 216.346 100.042C215.702 100.154 215.044 100.21 214.372 100.21C213.56 100.21 212.79 100.028 212.062 99.664C211.334 99.272 210.872 98.698 210.676 97.942C209.64 98.698 208.604 99.3 207.568 99.748C206.532 100.196 205.384 100.42 204.124 100.42ZM206.686 97.312C207.358 97.312 208.058 97.172 208.786 96.892C209.514 96.612 210.116 96.318 210.592 96.01V90.34L207.4 91.012C206.196 91.264 205.356 91.712 204.88 92.356C204.432 93 204.208 93.77 204.208 94.666C204.208 95.618 204.432 96.304 204.88 96.724C205.356 97.116 205.958 97.312 206.686 97.312ZM220.523 100V98.236L223.967 97.312V82.696L220.523 82.192V80.554L227.075 78.958H228.839V80.89C229.791 80.274 230.841 79.784 231.989 79.42C233.137 79.028 234.201 78.832 235.181 78.832C235.377 78.832 235.587 78.832 235.811 78.832C236.035 78.832 236.217 78.846 236.357 78.874L235.601 85.888H233.123L232.241 82.192C231.653 82.192 231.065 82.262 230.477 82.402C229.889 82.514 229.357 82.682 228.881 82.906V97.312L233.711 98.194V100H220.523Z" fill="#101112"/>
<path d="M9.4 174L5.68 159.7H7.46L10.36 171.24L13.72 159.7H14.96L18.32 171.28L21.26 159.7H22.88L19.16 174H17.56L14.32 162.7L10.98 174H9.4ZM28.7139 174.18C25.7539 174.18 23.6539 172.1 23.6539 168.88V168.72C23.6539 165.56 25.6739 163.36 28.5539 163.36C30.9739 163.36 33.2539 164.82 33.2539 168.56V169.1H25.3739C25.4539 171.48 26.5939 172.8 28.7339 172.8C30.3539 172.8 31.2939 172.2 31.5139 170.98H33.1739C32.8139 173.08 31.0739 174.18 28.7139 174.18ZM25.4339 167.76H31.5539C31.3939 165.6 30.2739 164.74 28.5539 164.74C26.8539 164.74 25.7139 165.9 25.4339 167.76ZM43.7141 174.18C41.7741 174.18 40.2341 173.24 40.2341 171.1C40.2341 168.68 42.7941 167.86 45.4741 167.86H46.9741V167.1C46.9741 165.44 46.3341 164.74 44.7341 164.74C43.2941 164.74 42.4941 165.34 42.3341 166.62H40.6741C40.8941 164.24 42.7941 163.36 44.8141 163.36C46.8141 163.36 48.6341 164.18 48.6341 167.1V174H46.9741V172.68C46.1941 173.66 45.2541 174.18 43.7141 174.18ZM43.8741 172.86C45.6341 172.86 46.9741 171.96 46.9741 170.34V169.04H45.5341C43.4341 169.04 41.8941 169.56 41.8941 171.1C41.8941 172.18 42.4141 172.86 43.8741 172.86ZM51.8948 174V163.54H53.5548V165.42C54.2148 164.24 55.1148 163.42 56.9948 163.36V164.92C54.8948 165.02 53.5548 165.68 53.5548 168.26V174H51.8948ZM63.4014 174.18C60.4414 174.18 58.3414 172.1 58.3414 168.88V168.72C58.3414 165.56 60.3614 163.36 63.2414 163.36C65.6614 163.36 67.9414 164.82 67.9414 168.56V169.1H60.0614C60.1414 171.48 61.2814 172.8 63.4214 172.8C65.0414 172.8 65.9814 172.2 66.2014 170.98H67.8614C67.5014 173.08 65.7614 174.18 63.4014 174.18ZM60.1214 167.76H66.2414C66.0814 165.6 64.9614 164.74 63.2414 164.74C61.5414 164.74 60.4014 165.9 60.1214 167.76ZM75.7816 177.64V163.54H77.4416V165.3C78.0416 164.28 79.4616 163.36 80.9816 163.36C83.7216 163.36 85.7416 165.36 85.7416 168.62V168.78C85.7416 171.98 83.8616 174.18 80.9816 174.18C79.2616 174.18 78.0416 173.32 77.4416 172.28V177.64H75.7816ZM80.8216 172.8C82.9016 172.8 84.0216 171.4 84.0216 168.86V168.7C84.0216 166.06 82.5616 164.74 80.8016 164.74C78.8616 164.74 77.3816 166.02 77.3816 168.7V168.86C77.3816 171.54 78.7816 172.8 80.8216 172.8ZM88.3206 174V163.54H89.9806V165.42C90.6406 164.24 91.5406 163.42 93.4206 163.36V164.92C91.3206 165.02 89.9806 165.68 89.9806 168.26V174H88.3206ZM99.9072 172.8C102.007 172.8 103.327 171.22 103.327 168.86V168.72C103.327 166.3 101.987 164.74 99.9072 164.74C97.8072 164.74 96.4872 166.3 96.4872 168.7V168.86C96.4872 171.24 97.7872 172.8 99.9072 172.8ZM99.8872 174.18C96.9072 174.18 94.7672 171.92 94.7672 168.86V168.7C94.7672 165.56 96.9472 163.36 99.9072 163.36C102.867 163.36 105.047 165.54 105.047 168.68V168.84C105.047 172 102.867 174.18 99.8872 174.18ZM111.158 174.18C109.078 174.18 107.518 173.04 107.518 170.16V163.54H109.178V170.08C109.178 171.92 109.958 172.74 111.598 172.74C113.078 172.74 114.478 171.76 114.478 169.88V163.54H116.138V174H114.478V172.34C113.998 173.32 112.838 174.18 111.158 174.18ZM123.433 174.18C120.693 174.18 118.713 172.24 118.713 168.98V168.82C118.713 165.62 120.713 163.36 123.593 163.36C125.333 163.36 126.413 164.2 127.013 165.22V158.54H128.673V174H127.013V172.2C126.413 173.22 124.953 174.18 123.433 174.18ZM123.613 172.8C125.553 172.8 127.073 171.52 127.073 168.84V168.68C127.073 166 125.793 164.74 123.753 164.74C121.673 164.74 120.433 166.2 120.433 168.74V168.9C120.433 171.54 121.853 172.8 123.613 172.8ZM141.685 172.8C143.785 172.8 145.105 171.22 145.105 168.86V168.72C145.105 166.3 143.765 164.74 141.685 164.74C139.585 164.74 138.265 166.3 138.265 168.7V168.86C138.265 171.24 139.565 172.8 141.685 172.8ZM141.665 174.18C138.685 174.18 136.545 171.92 136.545 168.86V168.7C136.545 165.56 138.725 163.36 141.685 163.36C144.645 163.36 146.825 165.54 146.825 168.68V168.84C146.825 172 144.645 174.18 141.665 174.18ZM149.755 174V164.94H148.255V163.54H149.755V161.84C149.755 159.72 150.795 158.48 152.875 158.48C153.415 158.48 153.695 158.54 154.115 158.68V160.08C153.815 159.96 153.395 159.86 152.935 159.86C151.855 159.86 151.415 160.6 151.415 161.66V163.54H153.975V164.94H151.415V174H149.755ZM163.702 174L160.482 163.54H162.282L164.722 171.96L167.262 163.54H168.702L171.082 171.96L173.542 163.54H175.242L171.982 174H170.142L167.962 166.16L165.522 174H163.702ZM177.481 174V158.54H179.141V165.2C179.621 164.22 180.781 163.36 182.501 163.36C184.661 163.36 186.181 164.54 186.181 167.58V174H184.521V167.46C184.521 165.62 183.741 164.8 182.061 164.8C180.521 164.8 179.141 165.78 179.141 167.66V174H177.481ZM192.054 174.18C190.114 174.18 188.574 173.24 188.574 171.1C188.574 168.68 191.134 167.86 193.814 167.86H195.314V167.1C195.314 165.44 194.674 164.74 193.074 164.74C191.634 164.74 190.834 165.34 190.674 166.62H189.014C189.234 164.24 191.134 163.36 193.154 163.36C195.154 163.36 196.974 164.18 196.974 167.1V174H195.314V172.68C194.534 173.66 193.594 174.18 192.054 174.18ZM192.214 172.86C193.974 172.86 195.314 171.96 195.314 170.34V169.04H193.874C191.774 169.04 190.234 169.56 190.234 171.1C190.234 172.18 190.754 172.86 192.214 172.86ZM203.415 174.14C201.515 174.14 200.595 173.02 200.595 171.38V164.94H199.095V163.54H200.595V161.16H202.255V163.54H204.695V164.94H202.255V171.22C202.255 172.24 202.715 172.74 203.555 172.74C204.075 172.74 204.475 172.66 204.835 172.52V173.92C204.495 174.04 204.095 174.14 203.415 174.14ZM214.737 174L211.517 163.54H213.317L215.757 171.96L218.297 163.54H219.737L222.117 171.96L224.577 163.54H226.277L223.017 174H221.177L218.997 166.16L216.557 174H214.737ZM232.601 174.18C229.641 174.18 227.541 172.1 227.541 168.88V168.72C227.541 165.56 229.561 163.36 232.441 163.36C234.861 163.36 237.141 164.82 237.141 168.56V169.1H229.261C229.341 171.48 230.481 172.8 232.621 172.8C234.241 172.8 235.181 172.2 235.401 170.98H237.061C236.701 173.08 234.961 174.18 232.601 174.18ZM229.321 167.76H235.441C235.281 165.6 234.161 164.74 232.441 164.74C230.741 164.74 229.601 165.9 229.321 167.76ZM239.577 164.24L238.557 163.72L240.337 159.48L241.917 160.2L239.577 164.24ZM246.409 174L242.609 163.54H244.409L247.509 172.32L250.569 163.54H252.289L248.529 174H246.409ZM258.46 174.18C255.5 174.18 253.4 172.1 253.4 168.88V168.72C253.4 165.56 255.42 163.36 258.3 163.36C260.72 163.36 263 164.82 263 168.56V169.1H255.12C255.2 171.48 256.34 172.8 258.48 172.8C260.1 172.8 261.04 172.2 261.26 170.98H262.92C262.56 173.08 260.82 174.18 258.46 174.18ZM255.18 167.76H261.3C261.14 165.6 260.02 164.74 258.3 164.74C256.6 164.74 255.46 165.9 255.18 167.76ZM273.46 174.18C271.52 174.18 269.98 173.24 269.98 171.1C269.98 168.68 272.54 167.86 275.22 167.86H276.72V167.1C276.72 165.44 276.08 164.74 274.48 164.74C273.04 164.74 272.24 165.34 272.08 166.62H270.42C270.64 164.24 272.54 163.36 274.56 163.36C276.56 163.36 278.38 164.18 278.38 167.1V174H276.72V172.68C275.94 173.66 275 174.18 273.46 174.18ZM273.62 172.86C275.38 172.86 276.72 171.96 276.72 170.34V169.04H275.28C273.18 169.04 271.64 169.56 271.64 171.1C271.64 172.18 272.16 172.86 273.62 172.86ZM285.981 174.18C283.061 174.18 280.861 172.12 280.861 168.88V168.72C280.861 165.52 283.141 163.36 285.941 163.36C288.121 163.36 290.161 164.36 290.481 167.02H288.841C288.581 165.36 287.381 164.74 285.941 164.74C284.041 164.74 282.581 166.26 282.581 168.72V168.88C282.581 171.44 283.981 172.8 286.001 172.8C287.481 172.8 288.821 171.94 289.001 170.24H290.541C290.321 172.5 288.501 174.18 285.981 174.18ZM293.047 174V158.54H294.707V165.2C295.187 164.22 296.347 163.36 298.067 163.36C300.227 163.36 301.747 164.54 301.747 167.58V174H300.087V167.46C300.087 165.62 299.307 164.8 297.627 164.8C296.087 164.8 294.707 165.78 294.707 167.66V174H293.047ZM305.04 174V163.54H306.7V174H305.04ZM305.84 161.36C305.24 161.36 304.74 160.86 304.74 160.26C304.74 159.66 305.24 159.16 305.84 159.16C306.44 159.16 306.94 159.66 306.94 160.26C306.94 160.86 306.44 161.36 305.84 161.36ZM314.378 174.18C311.418 174.18 309.318 172.1 309.318 168.88V168.72C309.318 165.56 311.338 163.36 314.218 163.36C316.638 163.36 318.918 164.82 318.918 168.56V169.1H311.038C311.118 171.48 312.258 172.8 314.398 172.8C316.018 172.8 316.958 172.2 317.178 170.98H318.838C318.478 173.08 316.738 174.18 314.378 174.18ZM311.098 167.76H317.218C317.058 165.6 315.938 164.74 314.218 164.74C312.518 164.74 311.378 165.9 311.098 167.76ZM323.988 174L320.188 163.54H321.988L325.088 172.32L328.148 163.54H329.868L326.108 174H323.988ZM336.038 174.18C333.078 174.18 330.978 172.1 330.978 168.88V168.72C330.978 165.56 332.998 163.36 335.878 163.36C338.298 163.36 340.578 164.82 340.578 168.56V169.1H332.698C332.778 171.48 333.918 172.8 336.058 172.8C337.678 172.8 338.618 172.2 338.838 170.98H340.498C340.138 173.08 338.398 174.18 336.038 174.18ZM332.758 167.76H338.878C338.718 165.6 337.598 164.74 335.878 164.74C334.178 164.74 333.038 165.9 332.758 167.76ZM347.065 174.18C344.325 174.18 342.345 172.24 342.345 168.98V168.82C342.345 165.62 344.345 163.36 347.225 163.36C348.965 163.36 350.045 164.2 350.645 165.22V158.54H352.305V174H350.645V172.2C350.045 173.22 348.585 174.18 347.065 174.18ZM347.245 172.8C349.185 172.8 350.705 171.52 350.705 168.84V168.68C350.705 166 349.425 164.74 347.385 164.74C345.305 164.74 344.065 166.2 344.065 168.74V168.9C344.065 171.54 345.485 172.8 347.245 172.8ZM9.3 206.18C7.36 206.18 5.82 205.24 5.82 203.1C5.82 200.68 8.38 199.86 11.06 199.86H12.56V199.1C12.56 197.44 11.92 196.74 10.32 196.74C8.88 196.74 8.08 197.34 7.92 198.62H6.26C6.48 196.24 8.38 195.36 10.4 195.36C12.4 195.36 14.22 196.18 14.22 199.1V206H12.56V204.68C11.78 205.66 10.84 206.18 9.3 206.18ZM9.46 204.86C11.22 204.86 12.56 203.96 12.56 202.34V201.04H11.12C9.02 201.04 7.48 201.56 7.48 203.1C7.48 204.18 8 204.86 9.46 204.86ZM17.4808 206V195.54H19.1408V197.2C19.6208 196.22 20.7808 195.36 22.5008 195.36C24.6608 195.36 26.1808 196.54 26.1808 199.58V206H24.5208V199.46C24.5208 197.62 23.7408 196.8 22.0608 196.8C20.5208 196.8 19.1408 197.78 19.1408 199.66V206H17.4808ZM33.3739 206.18C30.6339 206.18 28.6539 204.24 28.6539 200.98V200.82C28.6539 197.62 30.6539 195.36 33.5339 195.36C35.2739 195.36 36.3539 196.2 36.9539 197.22V190.54H38.6139V206H36.9539V204.2C36.3539 205.22 34.8939 206.18 33.3739 206.18ZM33.5539 204.8C35.4939 204.8 37.0139 203.52 37.0139 200.84V200.68C37.0139 198 35.7339 196.74 33.6939 196.74C31.6139 196.74 30.3739 198.2 30.3739 200.74V200.9C30.3739 203.54 31.7939 204.8 33.5539 204.8ZM51.5459 206.18C48.5859 206.18 46.4859 204.1 46.4859 200.88V200.72C46.4859 197.56 48.5059 195.36 51.3859 195.36C53.8059 195.36 56.0859 196.82 56.0859 200.56V201.1H48.2059C48.2859 203.48 49.4259 204.8 51.5659 204.8C53.1859 204.8 54.1259 204.2 54.3459 202.98H56.0059C55.6459 205.08 53.9059 206.18 51.5459 206.18ZM48.2659 199.76H54.3859C54.2259 197.6 53.1059 196.74 51.3859 196.74C49.6859 196.74 48.5459 197.9 48.2659 199.76ZM57.2202 206L60.9602 200.62L57.4602 195.54H59.4002L61.9602 199.34L64.5002 195.54H66.3002L62.8402 200.5L66.6602 206H64.7002L61.8802 201.78L59.0002 206H57.2202ZM72.7388 206.18C69.8188 206.18 67.6188 204.12 67.6188 200.88V200.72C67.6188 197.52 69.8988 195.36 72.6988 195.36C74.8788 195.36 76.9188 196.36 77.2388 199.02H75.5988C75.3388 197.36 74.1388 196.74 72.6988 196.74C70.7988 196.74 69.3388 198.26 69.3388 200.72V200.88C69.3388 203.44 70.7388 204.8 72.7588 204.8C74.2388 204.8 75.5788 203.94 75.7588 202.24H77.2988C77.0788 204.5 75.2588 206.18 72.7388 206.18ZM79.845 206V195.54H81.505V206H79.845ZM80.645 193.36C80.045 193.36 79.545 192.86 79.545 192.26C79.545 191.66 80.045 191.16 80.645 191.16C81.245 191.16 81.745 191.66 81.745 192.26C81.745 192.86 81.245 193.36 80.645 193.36ZM88.0827 206.14C86.1827 206.14 85.2627 205.02 85.2627 203.38V196.94H83.7627V195.54H85.2627V193.16H86.9227V195.54H89.3627V196.94H86.9227V203.22C86.9227 204.24 87.3827 204.74 88.2227 204.74C88.7427 204.74 89.1427 204.66 89.5027 204.52V205.92C89.1627 206.04 88.7627 206.14 88.0827 206.14ZM96.292 206.18C93.332 206.18 91.232 204.1 91.232 200.88V200.72C91.232 197.56 93.252 195.36 96.132 195.36C98.552 195.36 100.832 196.82 100.832 200.56V201.1H92.952C93.032 203.48 94.172 204.8 96.312 204.8C97.932 204.8 98.872 204.2 99.092 202.98H100.752C100.392 205.08 98.652 206.18 96.292 206.18ZM93.012 199.76H99.132C98.972 197.6 97.852 196.74 96.132 196.74C94.432 196.74 93.292 197.9 93.012 199.76ZM107.319 206.18C104.579 206.18 102.599 204.24 102.599 200.98V200.82C102.599 197.62 104.599 195.36 107.479 195.36C109.219 195.36 110.299 196.2 110.899 197.22V190.54H112.559V206H110.899V204.2C110.299 205.22 108.839 206.18 107.319 206.18ZM107.499 204.8C109.439 204.8 110.959 203.52 110.959 200.84V200.68C110.959 198 109.679 196.74 107.639 196.74C105.559 196.74 104.319 198.2 104.319 200.74V200.9C104.319 203.54 105.739 204.8 107.499 204.8ZM123.831 206.18C121.891 206.18 120.351 205.24 120.351 203.1C120.351 200.68 122.911 199.86 125.591 199.86H127.091V199.1C127.091 197.44 126.451 196.74 124.851 196.74C123.411 196.74 122.611 197.34 122.451 198.62H120.791C121.011 196.24 122.911 195.36 124.931 195.36C126.931 195.36 128.751 196.18 128.751 199.1V206H127.091V204.68C126.311 205.66 125.371 206.18 123.831 206.18ZM123.991 204.86C125.751 204.86 127.091 203.96 127.091 202.34V201.04H125.651C123.551 201.04 122.011 201.56 122.011 203.1C122.011 204.18 122.531 204.86 123.991 204.86ZM137.212 206.18C135.512 206.18 134.272 205.32 133.672 204.28V206H132.012V190.54H133.672V197.3C134.272 196.28 135.692 195.36 137.212 195.36C139.952 195.36 141.972 197.36 141.972 200.62V200.78C141.972 203.98 140.092 206.18 137.212 206.18ZM137.052 204.8C139.132 204.8 140.252 203.4 140.252 200.86V200.7C140.252 198.06 138.792 196.74 137.032 196.74C135.092 196.74 133.612 198.02 133.612 200.7V200.86C133.612 203.54 135.012 204.8 137.052 204.8ZM148.911 204.8C151.011 204.8 152.331 203.22 152.331 200.86V200.72C152.331 198.3 150.991 196.74 148.911 196.74C146.811 196.74 145.491 198.3 145.491 200.7V200.86C145.491 203.24 146.791 204.8 148.911 204.8ZM148.891 206.18C145.911 206.18 143.771 203.92 143.771 200.86V200.7C143.771 197.56 145.951 195.36 148.911 195.36C151.871 195.36 154.051 197.54 154.051 200.68V200.84C154.051 204 151.871 206.18 148.891 206.18ZM160.161 206.18C158.081 206.18 156.521 205.04 156.521 202.16V195.54H158.181V202.08C158.181 203.92 158.961 204.74 160.601 204.74C162.081 204.74 163.481 203.76 163.481 201.88V195.54H165.141V206H163.481V204.34C163.001 205.32 161.841 206.18 160.161 206.18ZM171.676 206.14C169.776 206.14 168.856 205.02 168.856 203.38V196.94H167.356V195.54H168.856V193.16H170.516V195.54H172.956V196.94H170.516V203.22C170.516 204.24 170.976 204.74 171.816 204.74C172.336 204.74 172.736 204.66 173.096 204.52V205.92C172.756 206.04 172.356 206.14 171.676 206.14ZM185.259 204.8C187.359 204.8 188.679 203.22 188.679 200.86V200.72C188.679 198.3 187.339 196.74 185.259 196.74C183.159 196.74 181.839 198.3 181.839 200.7V200.86C181.839 203.24 183.139 204.8 185.259 204.8ZM185.239 206.18C182.259 206.18 180.119 203.92 180.119 200.86V200.7C180.119 197.56 182.299 195.36 185.259 195.36C188.219 195.36 190.399 197.54 190.399 200.68V200.84C190.399 204 188.219 206.18 185.239 206.18ZM196.509 206.18C194.429 206.18 192.869 205.04 192.869 202.16V195.54H194.529V202.08C194.529 203.92 195.309 204.74 196.949 204.74C198.429 204.74 199.829 203.76 199.829 201.88V195.54H201.489V206H199.829V204.34C199.349 205.32 198.189 206.18 196.509 206.18ZM204.844 206V195.54H206.504V197.42C207.164 196.24 208.064 195.42 209.944 195.36V196.92C207.844 197.02 206.504 197.68 206.504 200.26V206H204.844ZM217.657 206V195.54H219.317V197.2C219.797 196.22 220.957 195.36 222.677 195.36C224.837 195.36 226.357 196.54 226.357 199.58V206H224.697V199.46C224.697 197.62 223.917 196.8 222.237 196.8C220.697 196.8 219.317 197.78 219.317 199.66V206H217.657ZM233.89 206.18C230.93 206.18 228.83 204.1 228.83 200.88V200.72C228.83 197.56 230.85 195.36 233.73 195.36C236.15 195.36 238.43 196.82 238.43 200.56V201.1H230.55C230.63 203.48 231.77 204.8 233.91 204.8C235.53 204.8 236.47 204.2 236.69 202.98H238.35C237.99 205.08 236.25 206.18 233.89 206.18ZM230.61 199.76H236.73C236.57 197.6 235.45 196.74 233.73 196.74C232.03 196.74 230.89 197.9 230.61 199.76ZM239.564 206L243.304 200.62L239.804 195.54H241.744L244.304 199.34L246.844 195.54H248.644L245.184 200.5L249.004 206H247.044L244.224 201.78L241.344 206H239.564ZM254.43 206.14C252.53 206.14 251.61 205.02 251.61 203.38V196.94H250.11V195.54H251.61V193.16H253.27V195.54H255.71V196.94H253.27V203.22C253.27 204.24 253.73 204.74 254.57 204.74C255.09 204.74 255.49 204.66 255.85 204.52V205.92C255.51 206.04 255.11 206.14 254.43 206.14ZM263.773 206V191.7H268.073C270.733 191.7 272.673 192.58 272.673 195.4V195.48C272.673 196.78 272.153 197.94 270.513 198.5C272.593 199 273.373 200.06 273.373 201.92V202C273.373 204.7 271.533 206 268.673 206H263.773ZM265.473 204.64H268.633C270.713 204.64 271.673 203.72 271.673 201.98V201.9C271.673 200.14 270.693 199.3 268.393 199.3H265.473V204.64ZM265.473 197.94H268.073C270.173 197.94 270.973 197.18 270.973 195.42V195.34C270.973 193.72 270.033 193.06 268.033 193.06H265.473V197.94ZM276.134 206V195.54H277.794V206H276.134ZM276.934 193.36C276.334 193.36 275.834 192.86 275.834 192.26C275.834 191.66 276.334 191.16 276.934 191.16C277.534 191.16 278.034 191.66 278.034 192.26C278.034 192.86 277.534 193.36 276.934 193.36ZM285.372 209.82C282.272 209.82 280.912 208.36 280.632 206.6H282.332C282.572 207.8 283.572 208.42 285.352 208.42C287.412 208.42 288.712 207.44 288.712 205.2V203.68C288.112 204.7 286.692 205.66 285.172 205.66C282.432 205.66 280.412 203.58 280.412 200.7V200.56C280.412 197.72 282.412 195.36 285.292 195.36C287.032 195.36 288.112 196.2 288.712 197.22V195.54H290.372V205.3C290.352 208.34 288.292 209.82 285.372 209.82ZM285.352 204.28C287.292 204.28 288.772 202.92 288.772 200.58V200.44C288.772 198.1 287.492 196.74 285.452 196.74C283.372 196.74 282.132 198.28 282.132 200.48V200.64C282.132 202.92 283.592 204.28 285.352 204.28ZM305.364 206.18C300.964 206.18 298.444 203.12 298.444 198.94V198.78C298.444 194.6 301.264 191.48 305.364 191.48C308.204 191.48 310.744 192.8 311.184 196.02H309.444C309.044 193.74 307.484 192.86 305.404 192.86C302.124 192.86 300.244 195.26 300.244 198.76V198.92C300.244 202.46 302.004 204.78 305.364 204.78C308.464 204.78 309.804 202.76 309.864 200.22H305.684V198.78H311.564V199.84C311.564 203.98 309.024 206.18 305.364 206.18ZM318.716 204.8C320.816 204.8 322.136 203.22 322.136 200.86V200.72C322.136 198.3 320.796 196.74 318.716 196.74C316.616 196.74 315.296 198.3 315.296 200.7V200.86C315.296 203.24 316.596 204.8 318.716 204.8ZM318.696 206.18C315.716 206.18 313.576 203.92 313.576 200.86V200.7C313.576 197.56 315.756 195.36 318.716 195.36C321.676 195.36 323.856 197.54 323.856 200.68V200.84C323.856 204 321.676 206.18 318.696 206.18ZM329.046 206.18C327.106 206.18 325.566 205.24 325.566 203.1C325.566 200.68 328.126 199.86 330.806 199.86H332.306V199.1C332.306 197.44 331.666 196.74 330.066 196.74C328.626 196.74 327.826 197.34 327.666 198.62H326.006C326.226 196.24 328.126 195.36 330.146 195.36C332.146 195.36 333.966 196.18 333.966 199.1V206H332.306V204.68C331.526 205.66 330.586 206.18 329.046 206.18ZM329.206 204.86C330.966 204.86 332.306 203.96 332.306 202.34V201.04H330.866C328.766 201.04 327.226 201.56 327.226 203.1C327.226 204.18 327.746 204.86 329.206 204.86ZM337.267 206V190.54H338.947V206H337.267ZM345.584 206.18C343.084 206.18 341.584 204.92 341.484 202.78H343.104C343.224 204.02 343.884 204.8 345.564 204.8C347.144 204.8 347.844 204.26 347.844 203.14C347.844 202.04 347.024 201.68 345.404 201.38C342.684 200.88 341.764 200.12 341.764 198.3C341.764 196.36 343.664 195.36 345.304 195.36C347.184 195.36 348.804 196.12 349.084 198.38H347.484C347.244 197.24 346.604 196.74 345.284 196.74C344.084 196.74 343.304 197.34 343.304 198.24C343.304 199.18 343.824 199.56 345.744 199.9C347.904 200.3 349.424 200.78 349.424 203C349.424 204.9 348.124 206.18 345.584 206.18Z" fill="#45494D"/>
<path d="M1140.72 257.2C1134.19 257.2 1127.72 256.533 1121.32 255.2C1114.92 253.867 1109.05 252.2 1103.72 250.2L1107.12 237.8C1113.92 240.2 1119.52 241.8 1123.92 242.6C1128.45 243.4 1132.32 243.8 1135.52 243.8C1140.45 243.8 1144.99 243 1149.12 241.4C1153.25 239.667 1156.52 237.067 1158.92 233.6C1161.45 230.133 1162.72 225.667 1162.72 220.2C1162.72 214.733 1161.65 210.4 1159.52 207.2C1157.52 203.867 1154.79 201.467 1151.32 200C1147.99 198.4 1144.25 197.333 1140.12 196.8C1135.99 196.267 1131.85 196 1127.72 196L1126.92 185.6C1138.25 184.267 1146.19 181.267 1150.72 176.6C1155.25 171.933 1157.52 166.4 1157.52 160C1157.52 154.933 1156.05 151 1153.12 148.2C1150.19 145.267 1145.52 143.8 1139.12 143.8C1136.05 143.8 1131.99 144.333 1126.92 145.4C1121.85 146.467 1116.45 148.333 1110.72 151L1105.72 140.2C1109.05 138.2 1112.92 136.4 1117.32 134.8C1121.85 133.067 1126.59 131.733 1131.52 130.8C1136.59 129.867 1141.52 129.4 1146.32 129.4C1152.72 129.4 1158.52 130.4 1163.72 132.4C1168.92 134.267 1173.05 137.2 1176.12 141.2C1179.19 145.2 1180.72 150.267 1180.72 156.4C1180.72 161.467 1179.65 166.067 1177.52 170.2C1175.52 174.2 1172.72 177.667 1169.12 180.6C1165.65 183.533 1161.79 186 1157.52 188C1166.45 189.733 1173.52 193.467 1178.72 199.2C1184.05 204.933 1186.72 211.933 1186.72 220.2C1186.72 232.467 1182.85 241.733 1175.12 248C1167.39 254.133 1155.92 257.2 1140.72 257.2Z" fill="#F3F3F3"/>
<path d="M756.495 441L752.295 428.4L795.095 385.2C798.828 381.6 801.962 377.933 804.495 374.2C807.028 370.333 809.028 366.4 810.495 362.4C811.962 358.267 812.695 354.133 812.695 350C812.695 344.4 810.828 339.733 807.095 336C803.362 332.267 797.628 330.4 789.895 330.4C784.962 330.4 780.228 331.133 775.695 332.6C771.295 334.067 766.695 335.733 761.895 337.6L756.695 326C762.028 323.333 768.095 320.933 774.895 318.8C781.695 316.533 789.028 315.4 796.895 315.4C804.495 315.4 811.362 316.467 817.495 318.6C823.628 320.6 828.495 324 832.095 328.8C835.695 333.467 837.495 339.867 837.495 348C837.495 353.867 836.362 359.4 834.095 364.6C831.828 369.8 828.628 374.933 824.495 380C820.362 384.933 815.495 390.133 809.895 395.6L775.095 426.8L824.695 425.2L832.495 409H842.895L840.095 441H756.495Z" fill="#F3F3F3"/>
<path d="M585.834 410.396C580.146 410.396 575.754 407.768 575.754 402.728C575.754 399.596 577.554 397.328 580.506 396.284C578.166 395.312 576.762 393.512 576.762 390.92C576.762 386.456 581.046 383.9 585.87 383.9C590.802 383.9 594.906 386.492 594.906 390.884C594.906 393.476 593.43 395.24 591.162 396.248C594.186 397.292 595.878 399.524 595.878 402.584C595.878 407.624 591.558 410.396 585.834 410.396ZM585.834 406.148C588.282 406.148 590.118 404.708 590.118 402.152C590.118 399.632 588.282 398.228 585.87 398.228C583.494 398.228 581.55 399.632 581.55 402.188C581.55 404.744 583.458 406.148 585.834 406.148ZM585.906 394.664C587.994 394.664 589.506 393.404 589.506 391.28C589.506 389.3 587.922 387.968 585.87 387.968C583.818 387.968 582.198 389.228 582.198 391.316C582.198 393.404 583.89 394.664 585.906 394.664ZM600.856 410L608.704 388.976H597.364V384.26H616.012V384.908L606.796 410H600.856ZM616.722 410V409.064L626.154 399.092C628.638 396.464 630.222 394.196 630.222 391.856C630.222 389.732 629.034 388.364 626.802 388.364C624.534 388.364 623.094 389.696 622.698 393.08H617.406C617.694 387.14 621.294 383.9 627.054 383.9C632.742 383.9 635.982 387.068 635.982 391.712C635.982 395.132 634.002 397.94 631.014 400.82L626.154 405.572H636.162V410H616.722ZM642.71 410.324C640.91 410.324 639.506 408.92 639.506 407.156C639.506 405.428 640.91 404.024 642.71 404.024C644.546 404.024 645.95 405.428 645.95 407.156C645.95 408.92 644.546 410.324 642.71 410.324ZM658.166 410.396C651.83 410.396 648.878 406.94 648.626 402.332H653.99C654.314 404.492 655.178 405.932 658.13 405.932C660.758 405.932 662.162 404.096 662.162 401.36C662.162 398.588 660.578 396.86 657.986 396.86C655.574 396.86 654.098 397.724 653.054 398.912H649.814L650.174 384.26H666.482V388.688H654.53L654.422 395.132C655.43 393.908 657.23 392.756 660.146 392.756C664.826 392.756 668.03 395.96 668.03 401.432C668.03 406.904 664.106 410.396 658.166 410.396ZM686.783 410.36C682.823 410.36 680.699 408.344 680.699 404.42V394.88H678.287V391.172H680.699V387.104H685.883V391.172H689.843V394.88H685.883V403.952C685.883 405.464 686.639 406.184 687.971 406.184C688.763 406.184 689.339 406.076 689.951 405.824V409.856C689.231 410.108 688.187 410.36 686.783 410.36ZM702.261 406.436C705.177 406.436 706.869 404.276 706.869 400.712V400.46C706.869 396.86 705.177 394.7 702.261 394.7C699.381 394.7 697.653 396.788 697.653 400.388V400.676C697.653 404.276 699.309 406.436 702.261 406.436ZM702.225 410.396C696.609 410.396 692.325 406.652 692.325 400.784V400.496C692.325 394.592 696.609 390.74 702.261 390.74C707.913 390.74 712.161 394.52 712.161 400.388V400.676C712.161 406.616 707.877 410.396 702.225 410.396ZM715.661 410V391.172H720.881V394.16C721.817 392.288 723.869 390.74 727.001 390.74C730.709 390.74 733.337 392.972 733.337 398.012V410H728.117V398.768C728.117 396.212 727.109 394.988 724.805 394.988C722.573 394.988 720.881 396.356 720.881 399.128V410H715.661ZM744.649 410.396C739.573 410.396 736.621 408.164 736.441 404.096H741.301C741.517 405.788 742.345 406.76 744.613 406.76C746.629 406.76 747.565 406.004 747.565 404.708C747.565 403.412 746.449 402.872 743.749 402.476C738.745 401.72 736.801 400.28 736.801 396.608C736.801 392.684 740.401 390.74 744.253 390.74C748.429 390.74 751.561 392.252 752.029 396.572H747.241C746.953 395.024 746.089 394.304 744.289 394.304C742.597 394.304 741.625 395.096 741.625 396.248C741.625 397.436 742.525 397.904 745.261 398.3C749.977 398.984 752.569 400.172 752.569 404.204C752.569 408.272 749.617 410.396 744.649 410.396Z" fill="#9AB856"/>
<path d="M575.783 438V425.76H577.719V438H575.783ZM583.759 438.16C581.295 438.16 579.519 436.544 579.519 433.904V433.776C579.519 431.184 581.295 429.456 583.679 429.456C585.759 429.456 587.631 430.688 587.631 433.68V434.24H581.503C581.567 435.824 582.367 436.72 583.807 436.72C584.975 436.72 585.583 436.256 585.727 435.44H587.599C587.327 437.2 585.903 438.16 583.759 438.16ZM581.535 432.944H585.711C585.615 431.504 584.879 430.864 583.679 430.864C582.511 430.864 581.727 431.648 581.535 432.944ZM592.302 438.16C590.142 438.16 588.878 437.168 588.798 435.392H590.622C590.718 436.24 591.15 436.736 592.286 436.736C593.326 436.736 593.79 436.368 593.79 435.664C593.79 434.976 593.23 434.72 591.998 434.512C589.79 434.16 588.974 433.536 588.974 431.968C588.974 430.288 590.542 429.456 592.11 429.456C593.822 429.456 595.182 430.096 595.39 431.984H593.598C593.438 431.216 593.006 430.864 592.11 430.864C591.278 430.864 590.782 431.264 590.782 431.856C590.782 432.464 591.182 432.704 592.51 432.928C594.478 433.232 595.646 433.712 595.646 435.488C595.646 437.184 594.446 438.16 592.302 438.16ZM600.209 438.16C598.049 438.16 596.785 437.168 596.705 435.392H598.529C598.625 436.24 599.057 436.736 600.193 436.736C601.233 436.736 601.697 436.368 601.697 435.664C601.697 434.976 601.137 434.72 599.905 434.512C597.697 434.16 596.881 433.536 596.881 431.968C596.881 430.288 598.449 429.456 600.017 429.456C601.729 429.456 603.089 430.096 603.297 431.984H601.505C601.345 431.216 600.913 430.864 600.017 430.864C599.185 430.864 598.689 431.264 598.689 431.856C598.689 432.464 599.089 432.704 600.417 432.928C602.385 433.232 603.553 433.712 603.553 435.488C603.553 437.184 602.353 438.16 600.209 438.16ZM608.931 438.16C606.467 438.16 604.691 436.544 604.691 433.904V433.776C604.691 431.184 606.467 429.456 608.851 429.456C610.931 429.456 612.803 430.688 612.803 433.68V434.24H606.675C606.739 435.824 607.539 436.72 608.979 436.72C610.147 436.72 610.755 436.256 610.899 435.44H612.771C612.499 437.2 611.075 438.16 608.931 438.16ZM606.707 432.944H610.883C610.787 431.504 610.051 430.864 608.851 430.864C607.683 430.864 606.899 431.648 606.707 432.944ZM614.532 438V429.632H616.468V431.2C616.996 430.144 617.78 429.52 619.188 429.504V431.312C617.492 431.328 616.468 431.872 616.468 433.648V438H614.532ZM629.872 438.16C626.288 438.16 624.288 435.872 624.288 432.352V432.224C624.288 428.784 626.656 426.384 629.84 426.384C632.464 426.384 634.496 427.696 634.752 430.384H632.592C632.352 428.864 631.504 428.08 629.856 428.08C627.84 428.08 626.528 429.648 626.528 432.208V432.336C626.528 434.912 627.76 436.432 629.872 436.432C631.456 436.432 632.576 435.632 632.8 434.016H634.88C634.544 436.768 632.592 438.16 629.872 438.16ZM641.971 436.448C644.131 436.448 645.491 434.8 645.491 432.32V432.192C645.491 429.84 644.179 428.096 641.939 428.096C639.699 428.096 638.371 429.744 638.371 432.208V432.336C638.371 434.832 639.891 436.448 641.971 436.448ZM641.939 438.16C638.435 438.16 636.147 435.648 636.147 432.352V432.224C636.147 428.88 638.547 426.4 641.939 426.4C645.347 426.4 647.699 428.816 647.699 432.176V432.304C647.699 435.648 645.411 438.16 641.939 438.16ZM648.683 438V437.616L653.003 433.056C654.091 431.904 654.747 430.896 654.747 429.808C654.747 428.736 654.139 428.064 653.035 428.064C651.899 428.064 651.179 428.72 650.987 430.336H649.035C649.179 427.84 650.683 426.4 653.099 426.4C655.467 426.4 656.875 427.76 656.875 429.776C656.875 431.264 655.995 432.56 654.635 433.872L652.091 436.352H656.955V438H648.683ZM662.817 438V426.56H669.969V428.24H664.945V431.376H668.977V432.976H664.945V436.32H670.241V438H662.817ZM672.001 438V429.632H673.937V430.912C674.337 430.128 675.249 429.456 676.481 429.456C677.569 429.456 678.433 429.92 678.849 430.96C679.489 429.92 680.641 429.456 681.681 429.456C683.217 429.456 684.465 430.4 684.465 432.704V438H682.529V432.832C682.529 431.6 682.001 431.072 681.041 431.072C680.081 431.072 679.201 431.712 679.201 432.992V438H677.265V432.832C677.265 431.6 676.721 431.072 675.777 431.072C674.817 431.072 673.937 431.712 673.937 432.992V438H672.001ZM686.736 438V429.632H688.672V438H686.736ZM687.68 428.256C687.04 428.256 686.528 427.776 686.528 427.152C686.528 426.512 687.04 426.032 687.68 426.032C688.32 426.032 688.832 426.512 688.832 427.152C688.832 427.776 688.32 428.256 687.68 428.256ZM693.896 438.16C691.736 438.16 690.472 437.168 690.392 435.392H692.216C692.312 436.24 692.744 436.736 693.88 436.736C694.92 436.736 695.384 436.368 695.384 435.664C695.384 434.976 694.824 434.72 693.592 434.512C691.384 434.16 690.568 433.536 690.568 431.968C690.568 430.288 692.136 429.456 693.704 429.456C695.416 429.456 696.776 430.096 696.984 431.984H695.192C695.032 431.216 694.6 430.864 693.704 430.864C692.872 430.864 692.376 431.264 692.376 431.856C692.376 432.464 692.776 432.704 694.104 432.928C696.072 433.232 697.24 433.712 697.24 435.488C697.24 437.184 696.04 438.16 693.896 438.16ZM701.802 438.16C699.642 438.16 698.378 437.168 698.298 435.392H700.122C700.218 436.24 700.65 436.736 701.786 436.736C702.826 436.736 703.29 436.368 703.29 435.664C703.29 434.976 702.73 434.72 701.498 434.512C699.29 434.16 698.474 433.536 698.474 431.968C698.474 430.288 700.042 429.456 701.61 429.456C703.322 429.456 704.682 430.096 704.89 431.984H703.098C702.938 431.216 702.506 430.864 701.61 430.864C700.778 430.864 700.282 431.264 700.282 431.856C700.282 432.464 700.682 432.704 702.01 432.928C703.978 433.232 705.146 433.712 705.146 435.488C705.146 437.184 703.946 438.16 701.802 438.16ZM706.893 438V429.632H708.829V438H706.893ZM707.837 428.256C707.197 428.256 706.685 427.776 706.685 427.152C706.685 426.512 707.197 426.032 707.837 426.032C708.477 426.032 708.989 426.512 708.989 427.152C708.989 427.776 708.477 428.256 707.837 428.256ZM714.932 436.656C716.372 436.656 717.236 435.584 717.236 433.872V433.76C717.236 432.032 716.372 430.976 714.932 430.976C713.492 430.976 712.612 432.016 712.612 433.744V433.872C712.612 435.584 713.46 436.656 714.932 436.656ZM714.916 438.16C712.452 438.16 710.628 436.448 710.628 433.904V433.776C710.628 431.184 712.468 429.456 714.932 429.456C717.38 429.456 719.22 431.168 719.22 433.728V433.856C719.22 436.464 717.38 438.16 714.916 438.16ZM720.97 438V429.632H722.906V430.96C723.306 430.144 724.234 429.456 725.61 429.456C727.29 429.456 728.474 430.432 728.474 432.736V438H726.538V432.912C726.538 431.648 726.026 431.072 724.874 431.072C723.786 431.072 722.906 431.744 722.906 433.072V438H720.97Z" fill="black"/>
<path d="M898.745 227.396C892.409 227.396 889.457 223.94 889.205 219.332H894.569C894.893 221.492 895.757 222.932 898.709 222.932C901.337 222.932 902.741 221.096 902.741 218.36C902.741 215.588 901.157 213.86 898.565 213.86C896.153 213.86 894.677 214.724 893.633 215.912H890.393L890.753 201.26H907.061V205.688H895.109L895.001 212.132C896.009 210.908 897.809 209.756 900.725 209.756C905.405 209.756 908.609 212.96 908.609 218.432C908.609 223.904 904.685 227.396 898.745 227.396ZM912.932 231.428L909.764 230.096L912.932 221.204L917.828 223.04L912.932 231.428ZM919.563 227V226.064L928.995 216.092C931.479 213.464 933.063 211.196 933.063 208.856C933.063 206.732 931.875 205.364 929.643 205.364C927.375 205.364 925.935 206.696 925.539 210.08H920.247C920.535 204.14 924.135 200.9 929.895 200.9C935.583 200.9 938.823 204.068 938.823 208.712C938.823 212.132 936.843 214.94 933.855 217.82L928.995 222.572H939.003V227H919.563ZM951.163 227.396C944.827 227.396 941.875 223.94 941.623 219.332H946.987C947.311 221.492 948.175 222.932 951.127 222.932C953.755 222.932 955.159 221.096 955.159 218.36C955.159 215.588 953.575 213.86 950.983 213.86C948.571 213.86 947.095 214.724 946.051 215.912H942.811L943.171 201.26H959.479V205.688H947.527L947.419 212.132C948.427 210.908 950.227 209.756 953.143 209.756C957.823 209.756 961.027 212.96 961.027 218.432C961.027 223.904 957.103 227.396 951.163 227.396ZM965.35 231.428L962.182 230.096L965.35 221.204L970.246 223.04L965.35 231.428ZM983.243 222.824C986.879 222.824 988.535 220.052 988.535 214.652V213.5C988.535 208.316 986.735 205.4 983.171 205.4C979.571 205.4 977.735 208.172 977.735 213.5V214.724C977.735 220.124 979.643 222.824 983.243 222.824ZM983.099 227.396C976.259 227.396 971.903 222.644 971.903 214.76V213.536C971.903 205.616 976.511 200.9 983.135 200.9C989.759 200.9 994.331 205.436 994.331 213.428V214.616C994.331 222.5 990.047 227.396 983.099 227.396ZM1008.91 222.824C1012.54 222.824 1014.2 220.052 1014.2 214.652V213.5C1014.2 208.316 1012.4 205.4 1008.84 205.4C1005.24 205.4 1003.4 208.172 1003.4 213.5V214.724C1003.4 220.124 1005.31 222.824 1008.91 222.824ZM1008.76 227.396C1001.92 227.396 997.568 222.644 997.568 214.76V213.536C997.568 205.616 1002.18 200.9 1008.8 200.9C1015.42 200.9 1020 205.436 1020 213.428V214.616C1020 222.5 1015.71 227.396 1008.76 227.396ZM1034.57 222.824C1038.21 222.824 1039.86 220.052 1039.86 214.652V213.5C1039.86 208.316 1038.06 205.4 1034.5 205.4C1030.9 205.4 1029.06 208.172 1029.06 213.5V214.724C1029.06 220.124 1030.97 222.824 1034.57 222.824ZM1034.43 227.396C1027.59 227.396 1023.23 222.644 1023.23 214.76V213.536C1023.23 205.616 1027.84 200.9 1034.46 200.9C1041.09 200.9 1045.66 205.436 1045.66 213.428V214.616C1045.66 222.5 1041.38 227.396 1034.43 227.396ZM1057.56 227V199.64H1062.78V216.128L1068.83 208.172H1074.37L1067.53 216.74L1074.91 227H1069.01L1062.78 218.108V227H1057.56ZM1082.24 227L1075.98 201.26H1081.88L1085.92 219.044L1090.31 201.26H1095.28L1099.85 219.152L1104.02 201.26H1109.42L1103.16 227H1097.22L1092.58 209.216L1087.86 227H1082.24ZM1112.47 227V199.64H1117.69V211.16C1118.63 209.288 1120.68 207.74 1123.81 207.74C1127.52 207.74 1130.15 209.972 1130.15 215.012V227H1124.93V215.768C1124.93 213.212 1123.92 211.988 1121.62 211.988C1119.39 211.988 1117.69 213.356 1117.69 216.128V227H1112.47Z" fill="#9AB856"/>
<path d="M893.18 253.656C894.62 253.656 895.484 252.584 895.484 250.872V250.76C895.484 249.032 894.62 247.976 893.18 247.976C891.74 247.976 890.86 249.016 890.86 250.744V250.872C890.86 252.584 891.708 253.656 893.18 253.656ZM893.164 255.16C890.7 255.16 888.876 253.448 888.876 250.904V250.776C888.876 248.184 890.716 246.456 893.18 246.456C895.628 246.456 897.468 248.168 897.468 250.728V250.856C897.468 253.464 895.628 255.16 893.164 255.16ZM899.554 255V248.088H898.418V246.632H899.554V245.512C899.554 243.672 900.578 242.68 902.37 242.68C902.834 242.68 903.122 242.728 903.474 242.84V244.344C903.25 244.264 902.946 244.2 902.594 244.2C901.81 244.2 901.49 244.712 901.49 245.432V246.632H903.394V248.088H901.49V255H899.554ZM912.507 255.16C910.043 255.16 908.267 253.544 908.267 250.904V250.776C908.267 248.184 910.043 246.456 912.427 246.456C914.507 246.456 916.379 247.688 916.379 250.68V251.24H910.251C910.315 252.824 911.115 253.72 912.555 253.72C913.723 253.72 914.331 253.256 914.475 252.44H916.347C916.075 254.2 914.651 255.16 912.507 255.16ZM910.283 249.944H914.459C914.363 248.504 913.627 247.864 912.427 247.864C911.259 247.864 910.475 248.648 910.283 249.944ZM918.108 255V246.632H920.044V247.96C920.444 247.144 921.372 246.456 922.748 246.456C924.428 246.456 925.612 247.432 925.612 249.736V255H923.676V249.912C923.676 248.648 923.164 248.072 922.012 248.072C920.924 248.072 920.044 248.744 920.044 250.072V255H918.108ZM931.523 255.16C929.059 255.16 927.283 253.544 927.283 250.904V250.776C927.283 248.184 929.059 246.456 931.443 246.456C933.523 246.456 935.395 247.688 935.395 250.68V251.24H929.267C929.331 252.824 930.131 253.72 931.571 253.72C932.739 253.72 933.347 253.256 933.491 252.44H935.363C935.091 254.2 933.667 255.16 931.523 255.16ZM929.299 249.944H933.475C933.379 248.504 932.643 247.864 931.443 247.864C930.275 247.864 929.491 248.648 929.299 249.944ZM937.124 255V246.632H939.06V248.2C939.588 247.144 940.372 246.52 941.78 246.504V248.312C940.084 248.328 939.06 248.872 939.06 250.648V255H937.124ZM946.895 258.072C944.271 258.072 943.087 256.888 942.863 255.288H944.815C944.975 256.12 945.615 256.6 946.879 256.6C948.383 256.6 949.215 255.848 949.215 254.344V253.112C948.751 253.912 947.711 254.664 946.479 254.664C944.383 254.664 942.767 253.096 942.767 250.68V250.568C942.767 248.216 944.367 246.456 946.527 246.456C947.903 246.456 948.735 247.08 949.215 247.912V246.632H951.151V254.376C951.135 256.84 949.487 258.072 946.895 258.072ZM946.959 253.176C948.303 253.176 949.279 252.216 949.279 250.616V250.504C949.279 248.92 948.415 247.976 947.023 247.976C945.583 247.976 944.751 249.016 944.751 250.536V250.664C944.751 252.216 945.711 253.176 946.959 253.176ZM954.38 257.864L955.9 254.152L952.588 246.632H954.684L956.908 252.024L958.956 246.632H960.844L956.284 257.864H954.38ZM968.972 255.16C966.812 255.16 965.548 254.168 965.468 252.392H967.292C967.388 253.24 967.82 253.736 968.956 253.736C969.996 253.736 970.46 253.368 970.46 252.664C970.46 251.976 969.9 251.72 968.668 251.512C966.46 251.16 965.644 250.536 965.644 248.968C965.644 247.288 967.212 246.456 968.78 246.456C970.492 246.456 971.852 247.096 972.06 248.984H970.268C970.108 248.216 969.676 247.864 968.78 247.864C967.948 247.864 967.452 248.264 967.452 248.856C967.452 249.464 967.852 249.704 969.18 249.928C971.148 250.232 972.316 250.712 972.316 252.488C972.316 254.184 971.116 255.16 968.972 255.16ZM976.206 255.16C974.67 255.16 973.406 254.424 973.406 252.68C973.406 250.728 975.294 250.024 977.694 250.024H978.734V249.592C978.734 248.472 978.35 247.912 977.214 247.912C976.206 247.912 975.71 248.392 975.614 249.224H973.742C973.902 247.272 975.454 246.456 977.326 246.456C979.198 246.456 980.67 247.224 980.67 249.512V255H978.766V253.976C978.222 254.696 977.486 255.16 976.206 255.16ZM976.67 253.768C977.854 253.768 978.734 253.144 978.734 252.072V251.24H977.742C976.27 251.24 975.326 251.576 975.326 252.6C975.326 253.304 975.71 253.768 976.67 253.768ZM984.847 255L981.791 246.632H983.871L986.063 253.016L988.223 246.632H990.127L987.103 255H984.847ZM994.929 255.16C992.465 255.16 990.689 253.544 990.689 250.904V250.776C990.689 248.184 992.465 246.456 994.849 246.456C996.929 246.456 998.801 247.688 998.801 250.68V251.24H992.673C992.737 252.824 993.537 253.72 994.977 253.72C996.145 253.72 996.753 253.256 996.897 252.44H998.769C998.497 254.2 997.073 255.16 994.929 255.16ZM992.705 249.944H996.881C996.785 248.504 996.049 247.864 994.849 247.864C993.681 247.864 992.897 248.648 992.705 249.944ZM1003.67 255.16C1001.57 255.16 999.986 253.672 999.986 250.952V250.824C999.986 248.152 1001.57 246.456 1003.75 246.456C1005.11 246.456 1005.95 247.08 1006.42 247.912V242.76H1008.35V255H1006.42V253.592C1005.97 254.424 1004.9 255.16 1003.67 255.16ZM1004.15 253.624C1005.49 253.624 1006.48 252.728 1006.48 250.856V250.728C1006.48 248.888 1005.63 247.976 1004.23 247.976C1002.8 247.976 1001.97 248.968 1001.97 250.776V250.904C1001.97 252.744 1002.9 253.624 1004.15 253.624Z" fill="black"/>
<path d="M944.625 119C950.755 115.274 957.121 111.81 963.757 108.634C964.331 108.359 964.905 108.083 965.496 107.808C1011.85 86.0788 1065.87 85.9214 1116.49 98.2816" stroke="#267C46" stroke-width="6" stroke-miterlimit="10" stroke-linecap="square"/>
<path d="M682.433 300.164C715.32 302.515 747.703 300.444 777.615 287.004C786.353 283.076 794.52 278.319 801.847 272.855C826.987 254.084 841.372 228.459 858.496 205.145C875.435 182.098 893.97 159.519 917.026 140" stroke="#267C46" stroke-width="6" stroke-miterlimit="10" stroke-linecap="square"/>
<path d="M240.847 403C339.836 365.146 434.676 272.848 565.519 285.113C591.894 287.591 619.55 292.799 647.307 296.642" stroke="#267C46" stroke-width="6" stroke-miterlimit="10" stroke-linecap="square"/>
<path d="M5 340C81.091 415 145.026 427.953 205.721 414.147" stroke="#267C46" stroke-width="6" stroke-miterlimit="10" stroke-linecap="square"/>
<path d="M224.341 419C229.082 419 232.926 415.194 232.926 410.5C232.926 405.806 229.082 402 224.341 402C219.6 402 215.757 405.806 215.757 410.5C215.757 415.194 219.6 419 224.341 419Z" fill="#DDE2E7"/>
<path d="M663.419 309C668.16 309 672.003 305.194 672.003 300.5C672.003 295.806 668.16 292 663.419 292C658.678 292 654.834 295.806 654.834 300.5C654.834 305.194 658.678 309 663.419 309Z" fill="#DDE2E7"/>
<path d="M931.883 139C936.624 139 940.467 135.194 940.467 130.5C940.467 125.806 936.624 122 931.883 122C927.142 122 923.298 125.806 923.298 130.5C923.298 135.194 927.142 139 931.883 139Z" fill="#DDE2E7"/>
<path d="M314.074 544V535.4L346.474 529.8V437.6H315.074V428.6L368.874 420.6V530L396.874 535.4V544H314.074Z" fill="#F3F3F3"/>
<path d="M152.875 494.396C145.099 494.396 142.291 489.14 142.291 482.12V481.472C142.291 472.76 147.007 467.9 153.307 467.9C158.419 467.9 161.659 470.312 162.235 475.028H156.835C156.475 473.336 155.611 472.292 153.379 472.292C150.175 472.292 148.195 475.1 148.051 480.392C149.239 478.484 151.183 477.188 154.279 477.188C159.139 477.188 162.775 480.356 162.775 485.54C162.775 490.832 158.995 494.396 152.875 494.396ZM152.803 490.184C155.359 490.184 157.051 488.312 157.051 485.612C157.051 482.912 155.431 481.04 152.803 481.04C150.211 481.04 148.411 482.876 148.411 485.432C148.411 488.384 150.211 490.184 152.803 490.184ZM168.568 494.324C166.768 494.324 165.364 492.92 165.364 491.156C165.364 489.428 166.768 488.024 168.568 488.024C170.404 488.024 171.808 489.428 171.808 491.156C171.808 492.92 170.404 494.324 168.568 494.324ZM174.115 494V493.064L183.547 483.092C186.031 480.464 187.615 478.196 187.615 475.856C187.615 473.732 186.427 472.364 184.195 472.364C181.927 472.364 180.487 473.696 180.091 477.08H174.799C175.087 471.14 178.687 467.9 184.447 467.9C190.135 467.9 193.375 471.068 193.375 475.712C193.375 479.132 191.395 481.94 188.407 484.82L183.547 489.572H193.555V494H174.115ZM205.715 494.396C199.379 494.396 196.427 490.94 196.175 486.332H201.539C201.863 488.492 202.727 489.932 205.679 489.932C208.307 489.932 209.711 488.096 209.711 485.36C209.711 482.588 208.127 480.86 205.535 480.86C203.123 480.86 201.647 481.724 200.603 482.912H197.363L197.723 468.26H214.031V472.688H202.079L201.971 479.132C202.979 477.908 204.779 476.756 207.695 476.756C212.375 476.756 215.579 479.96 215.579 485.432C215.579 490.904 211.655 494.396 205.715 494.396ZM234.332 494.36C230.372 494.36 228.248 492.344 228.248 488.42V478.88H225.836V475.172H228.248V471.104H233.432V475.172H237.392V478.88H233.432V487.952C233.432 489.464 234.188 490.184 235.52 490.184C236.312 490.184 236.888 490.076 237.5 489.824V493.856C236.78 494.108 235.736 494.36 234.332 494.36ZM249.81 490.436C252.726 490.436 254.418 488.276 254.418 484.712V484.46C254.418 480.86 252.726 478.7 249.81 478.7C246.93 478.7 245.202 480.788 245.202 484.388V484.676C245.202 488.276 246.858 490.436 249.81 490.436ZM249.774 494.396C244.158 494.396 239.874 490.652 239.874 484.784V484.496C239.874 478.592 244.158 474.74 249.81 474.74C255.462 474.74 259.71 478.52 259.71 484.388V484.676C259.71 490.616 255.426 494.396 249.774 494.396ZM263.21 494V475.172H268.43V478.16C269.366 476.288 271.418 474.74 274.55 474.74C278.258 474.74 280.886 476.972 280.886 482.012V494H275.666V482.768C275.666 480.212 274.658 478.988 272.354 478.988C270.122 478.988 268.43 480.356 268.43 483.128V494H263.21ZM292.198 494.396C287.122 494.396 284.17 492.164 283.99 488.096H288.85C289.066 489.788 289.894 490.76 292.162 490.76C294.178 490.76 295.114 490.004 295.114 488.708C295.114 487.412 293.998 486.872 291.298 486.476C286.294 485.72 284.35 484.28 284.35 480.608C284.35 476.684 287.95 474.74 291.802 474.74C295.978 474.74 299.11 476.252 299.578 480.572H294.79C294.502 479.024 293.638 478.304 291.838 478.304C290.146 478.304 289.174 479.096 289.174 480.248C289.174 481.436 290.074 481.904 292.81 482.3C297.526 482.984 300.118 484.172 300.118 488.204C300.118 492.272 297.166 494.396 292.198 494.396Z" fill="#9AB856"/>
<path d="M145.567 520.855C147.007 520.855 147.871 519.783 147.871 518.071V517.959C147.871 516.231 147.007 515.175 145.567 515.175C144.127 515.175 143.247 516.215 143.247 517.943V518.071C143.247 519.783 144.095 520.855 145.567 520.855ZM145.551 522.359C143.087 522.359 141.263 520.647 141.263 518.103V517.975C141.263 515.383 143.103 513.655 145.567 513.655C148.015 513.655 149.855 515.367 149.855 517.927V518.055C149.855 520.663 148.015 522.359 145.551 522.359ZM151.94 522.199V515.287H150.804V513.831H151.94V512.711C151.94 510.871 152.964 509.879 154.756 509.879C155.22 509.879 155.508 509.927 155.86 510.039V511.543C155.636 511.463 155.332 511.399 154.98 511.399C154.196 511.399 153.876 511.911 153.876 512.631V513.831H155.78V515.287H153.876V522.199H151.94ZM164.894 522.359C162.43 522.359 160.654 520.743 160.654 518.103V517.975C160.654 515.383 162.43 513.655 164.814 513.655C166.894 513.655 168.766 514.887 168.766 517.879V518.439H162.638C162.702 520.023 163.502 520.919 164.942 520.919C166.11 520.919 166.718 520.455 166.862 519.639H168.734C168.462 521.399 167.038 522.359 164.894 522.359ZM162.67 517.143H166.846C166.75 515.703 166.014 515.063 164.814 515.063C163.646 515.063 162.862 515.847 162.67 517.143ZM170.239 518.535V516.935H174.079V518.535H170.239ZM177.551 522.199L174.991 513.831H177.055L178.719 519.879L180.495 513.831H182.111L183.743 519.879L185.487 513.831H187.375L184.751 522.199H182.783L181.231 516.567L179.535 522.199H177.551ZM190.812 522.359C189.276 522.359 188.012 521.623 188.012 519.879C188.012 517.927 189.9 517.223 192.3 517.223H193.34V516.791C193.34 515.671 192.956 515.111 191.82 515.111C190.812 515.111 190.316 515.591 190.22 516.423H188.348C188.508 514.471 190.06 513.655 191.932 513.655C193.804 513.655 195.276 514.423 195.276 516.711V522.199H193.372V521.175C192.828 521.895 192.092 522.359 190.812 522.359ZM191.276 520.967C192.46 520.967 193.34 520.343 193.34 519.271V518.439H192.348C190.876 518.439 189.932 518.775 189.932 519.799C189.932 520.503 190.316 520.967 191.276 520.967ZM200.359 522.359C198.199 522.359 196.935 521.367 196.855 519.591H198.679C198.775 520.439 199.207 520.935 200.343 520.935C201.383 520.935 201.847 520.567 201.847 519.863C201.847 519.175 201.287 518.919 200.055 518.711C197.847 518.359 197.031 517.735 197.031 516.167C197.031 514.487 198.599 513.655 200.167 513.655C201.879 513.655 203.239 514.295 203.447 516.183H201.655C201.495 515.415 201.063 515.063 200.167 515.063C199.335 515.063 198.839 515.463 198.839 516.055C198.839 516.663 199.239 516.903 200.567 517.127C202.535 517.431 203.703 517.911 203.703 519.687C203.703 521.383 202.503 522.359 200.359 522.359ZM208.249 522.343C206.585 522.343 205.721 521.447 205.721 519.863V515.287H204.601V513.831H205.721V511.991H207.657V513.831H209.497V515.287H207.657V519.687C207.657 520.423 208.009 520.759 208.617 520.759C209.001 520.759 209.289 520.711 209.561 520.599V522.135C209.257 522.247 208.841 522.343 208.249 522.343ZM214.988 522.359C212.524 522.359 210.748 520.743 210.748 518.103V517.975C210.748 515.383 212.524 513.655 214.908 513.655C216.988 513.655 218.86 514.887 218.86 517.879V518.439H212.732C212.796 520.023 213.596 520.919 215.036 520.919C216.204 520.919 216.812 520.455 216.956 519.639H218.828C218.556 521.399 217.132 522.359 214.988 522.359ZM212.764 517.143H216.94C216.844 515.703 216.108 515.063 214.908 515.063C213.74 515.063 212.956 515.847 212.764 517.143ZM227.265 522.359C225.105 522.359 223.841 521.367 223.761 519.591H225.585C225.681 520.439 226.113 520.935 227.249 520.935C228.289 520.935 228.753 520.567 228.753 519.863C228.753 519.175 228.193 518.919 226.961 518.711C224.753 518.359 223.937 517.735 223.937 516.167C223.937 514.487 225.505 513.655 227.073 513.655C228.785 513.655 230.145 514.295 230.353 516.183H228.561C228.401 515.415 227.969 515.063 227.073 515.063C226.241 515.063 225.745 515.463 225.745 516.055C225.745 516.663 226.145 516.903 227.473 517.127C229.441 517.431 230.609 517.911 230.609 519.687C230.609 521.383 229.409 522.359 227.265 522.359ZM234.5 522.359C232.964 522.359 231.7 521.623 231.7 519.879C231.7 517.927 233.588 517.223 235.988 517.223H237.028V516.791C237.028 515.671 236.644 515.111 235.508 515.111C234.5 515.111 234.004 515.591 233.908 516.423H232.036C232.196 514.471 233.748 513.655 235.62 513.655C237.492 513.655 238.964 514.423 238.964 516.711V522.199H237.06V521.175C236.516 521.895 235.78 522.359 234.5 522.359ZM234.964 520.967C236.148 520.967 237.028 520.343 237.028 519.271V518.439H236.036C234.564 518.439 233.62 518.775 233.62 519.799C233.62 520.503 234.004 520.967 234.964 520.967ZM243.14 522.199L240.084 513.831H242.164L244.356 520.215L246.516 513.831H248.42L245.396 522.199H243.14ZM253.222 522.359C250.758 522.359 248.982 520.743 248.982 518.103V517.975C248.982 515.383 250.758 513.655 253.142 513.655C255.222 513.655 257.094 514.887 257.094 517.879V518.439H250.966C251.03 520.023 251.83 520.919 253.27 520.919C254.438 520.919 255.046 520.455 255.19 519.639H257.062C256.79 521.399 255.366 522.359 253.222 522.359ZM250.998 517.143H255.174C255.078 515.703 254.342 515.063 253.142 515.063C251.974 515.063 251.19 515.847 250.998 517.143ZM261.959 522.359C259.863 522.359 258.279 520.871 258.279 518.151V518.023C258.279 515.351 259.863 513.655 262.039 513.655C263.399 513.655 264.247 514.279 264.711 515.111V509.959H266.647V522.199H264.711V520.791C264.263 521.623 263.191 522.359 261.959 522.359ZM262.439 520.823C263.783 520.823 264.775 519.927 264.775 518.055V517.927C264.775 516.087 263.927 515.175 262.519 515.175C261.095 515.175 260.263 516.167 260.263 517.975V518.103C260.263 519.943 261.191 520.823 262.439 520.823ZM142.159 540.199V533.287H141.023V531.831H142.159V530.711C142.159 528.871 143.183 527.879 144.975 527.879C145.439 527.879 145.727 527.927 146.079 528.039V529.543C145.855 529.463 145.551 529.399 145.199 529.399C144.415 529.399 144.095 529.911 144.095 530.631V531.831H145.999V533.287H144.095V540.199H142.159ZM147.62 540.199V531.831H149.556V533.399C150.084 532.343 150.868 531.719 152.276 531.703V533.511C150.58 533.527 149.556 534.071 149.556 535.847V540.199H147.62ZM157.567 538.855C159.007 538.855 159.871 537.783 159.871 536.071V535.959C159.871 534.231 159.007 533.175 157.567 533.175C156.127 533.175 155.247 534.215 155.247 535.943V536.071C155.247 537.783 156.095 538.855 157.567 538.855ZM157.551 540.359C155.087 540.359 153.263 538.647 153.263 536.103V535.975C153.263 533.383 155.103 531.655 157.567 531.655C160.015 531.655 161.855 533.367 161.855 535.927V536.055C161.855 538.663 160.015 540.359 157.551 540.359ZM163.604 540.199V531.831H165.54V533.111C165.94 532.327 166.852 531.655 168.084 531.655C169.172 531.655 170.036 532.119 170.452 533.159C171.092 532.119 172.244 531.655 173.284 531.655C174.82 531.655 176.068 532.599 176.068 534.903V540.199H174.132V535.031C174.132 533.799 173.604 533.271 172.644 533.271C171.684 533.271 170.804 533.911 170.804 535.191V540.199H168.868V535.031C168.868 533.799 168.324 533.271 167.38 533.271C166.42 533.271 165.54 533.911 165.54 535.191V540.199H163.604ZM185.784 540.359C183.32 540.359 181.544 538.743 181.544 536.103V535.975C181.544 533.383 183.32 531.655 185.704 531.655C187.784 531.655 189.656 532.887 189.656 535.879V536.439H183.528C183.592 538.023 184.392 538.919 185.832 538.919C187 538.919 187.608 538.455 187.752 537.639H189.624C189.352 539.399 187.928 540.359 185.784 540.359ZM183.56 535.143H187.736C187.64 533.703 186.904 533.063 185.704 533.063C184.536 533.063 183.752 533.847 183.56 535.143ZM191.386 540.199V531.831H193.322V533.159C193.722 532.343 194.65 531.655 196.026 531.655C197.706 531.655 198.89 532.631 198.89 534.935V540.199H196.954V535.111C196.954 533.847 196.442 533.271 195.29 533.271C194.202 533.271 193.322 533.943 193.322 535.271V540.199H191.386ZM204.256 540.359C202.16 540.359 200.576 538.871 200.576 536.151V536.023C200.576 533.351 202.16 531.655 204.336 531.655C205.696 531.655 206.544 532.279 207.008 533.111V527.959H208.944V540.199H207.008V538.791C206.56 539.623 205.488 540.359 204.256 540.359ZM204.736 538.823C206.08 538.823 207.072 537.927 207.072 536.055V535.927C207.072 534.087 206.224 533.175 204.816 533.175C203.392 533.175 202.56 534.167 202.56 535.975V536.103C202.56 537.943 203.488 538.823 204.736 538.823ZM211.293 540.199V531.831H213.229V540.199H211.293ZM212.237 530.455C211.597 530.455 211.085 529.975 211.085 529.351C211.085 528.711 211.597 528.231 212.237 528.231C212.877 528.231 213.389 528.711 213.389 529.351C213.389 529.975 212.877 530.455 212.237 530.455ZM215.589 540.199V531.831H217.525V533.159C217.925 532.343 218.853 531.655 220.229 531.655C221.909 531.655 223.093 532.631 223.093 534.935V540.199H221.157V535.111C221.157 533.847 220.645 533.271 219.493 533.271C218.405 533.271 217.525 533.943 217.525 535.271V540.199H215.589ZM228.891 543.271C226.267 543.271 225.083 542.087 224.859 540.487H226.811C226.971 541.319 227.611 541.799 228.875 541.799C230.379 541.799 231.211 541.047 231.211 539.543V538.311C230.747 539.111 229.707 539.863 228.475 539.863C226.379 539.863 224.763 538.295 224.763 535.879V535.767C224.763 533.415 226.363 531.655 228.523 531.655C229.899 531.655 230.731 532.279 231.211 533.111V531.831H233.147V539.575C233.131 542.039 231.483 543.271 228.891 543.271ZM228.955 538.375C230.299 538.375 231.275 537.415 231.275 535.815V535.703C231.275 534.119 230.411 533.175 229.019 533.175C227.579 533.175 226.747 534.215 226.747 535.735V535.863C226.747 537.415 227.707 538.375 228.955 538.375ZM242.061 540.359C240.413 540.359 239.181 539.415 239.181 537.191V531.831H241.117V536.967C241.117 538.231 241.645 538.807 242.765 538.807C243.805 538.807 244.717 538.135 244.717 536.807V531.831H246.653V540.199H244.717V538.887C244.301 539.703 243.421 540.359 242.061 540.359ZM248.948 543.063V531.831H250.884V533.175C251.348 532.375 252.388 531.655 253.62 531.655C255.716 531.655 257.332 533.207 257.332 535.911V536.039C257.332 538.727 255.78 540.359 253.62 540.359C252.292 540.359 251.332 539.703 250.884 538.887V543.063H248.948ZM253.14 538.823C254.564 538.823 255.348 537.863 255.348 536.071V535.943C255.348 534.087 254.388 533.175 253.124 533.175C251.78 533.175 250.82 534.087 250.82 535.943V536.071C250.82 537.943 251.732 538.823 253.14 538.823ZM262.934 540.199V531.831H264.87V540.199H262.934ZM263.878 530.455C263.238 530.455 262.726 529.975 262.726 529.351C262.726 528.711 263.238 528.231 263.878 528.231C264.518 528.231 265.03 528.711 265.03 529.351C265.03 529.975 264.518 530.455 263.878 530.455ZM267.229 540.199V531.831H269.165V533.159C269.565 532.343 270.493 531.655 271.869 531.655C273.549 531.655 274.733 532.631 274.733 534.935V540.199H272.797V535.111C272.797 533.847 272.285 533.271 271.133 533.271C270.045 533.271 269.165 533.943 269.165 535.271V540.199H267.229ZM141.871 558.199V545.959H143.807V558.199H141.871ZM148.359 558.359C146.823 558.359 145.559 557.623 145.559 555.879C145.559 553.927 147.447 553.223 149.847 553.223H150.887V552.791C150.887 551.671 150.503 551.111 149.367 551.111C148.359 551.111 147.863 551.591 147.767 552.423H145.895C146.055 550.471 147.607 549.655 149.479 549.655C151.351 549.655 152.823 550.423 152.823 552.711V558.199H150.919V557.175C150.375 557.895 149.639 558.359 148.359 558.359ZM148.823 556.967C150.007 556.967 150.887 556.343 150.887 555.271V554.439H149.895C148.423 554.439 147.479 554.775 147.479 555.799C147.479 556.503 147.863 556.967 148.823 556.967ZM155.042 558.199V549.831H156.978V551.159C157.378 550.343 158.306 549.655 159.682 549.655C161.362 549.655 162.546 550.631 162.546 552.935V558.199H160.61V553.111C160.61 551.847 160.098 551.271 158.946 551.271C157.858 551.271 156.978 551.943 156.978 553.271V558.199H155.042ZM167.912 558.359C165.816 558.359 164.232 556.871 164.232 554.151V554.023C164.232 551.351 165.816 549.655 167.992 549.655C169.352 549.655 170.2 550.279 170.664 551.111V545.959H172.6V558.199H170.664V556.791C170.216 557.623 169.144 558.359 167.912 558.359ZM168.392 556.823C169.736 556.823 170.728 555.927 170.728 554.055V553.927C170.728 552.087 169.88 551.175 168.472 551.175C167.048 551.175 166.216 552.167 166.216 553.975V554.103C166.216 555.943 167.144 556.823 168.392 556.823ZM175.237 558.199V551.287H174.101V549.831H175.237V548.711C175.237 546.871 176.245 545.879 178.021 545.879C178.501 545.879 178.773 545.927 179.077 546.023V547.527C178.853 547.431 178.613 547.399 178.261 547.399C177.493 547.399 177.173 547.911 177.173 548.631V549.831H179.077V551.287H177.173V558.199H175.237ZM180.527 558.199V549.831H182.463V558.199H180.527ZM181.471 548.455C180.831 548.455 180.319 547.975 180.319 547.351C180.319 546.711 180.831 546.231 181.471 546.231C182.111 546.231 182.623 546.711 182.623 547.351C182.623 547.975 182.111 548.455 181.471 548.455ZM184.871 558.199V545.959H186.807V558.199H184.871ZM189.215 558.199V545.959H191.151V558.199H189.215ZM196.375 558.359C194.215 558.359 192.951 557.367 192.871 555.591H194.695C194.791 556.439 195.223 556.935 196.359 556.935C197.399 556.935 197.863 556.567 197.863 555.863C197.863 555.175 197.303 554.919 196.071 554.711C193.863 554.359 193.047 553.735 193.047 552.167C193.047 550.487 194.615 549.655 196.183 549.655C197.895 549.655 199.255 550.295 199.463 552.183H197.671C197.511 551.415 197.079 551.063 196.183 551.063C195.351 551.063 194.855 551.463 194.855 552.055C194.855 552.663 195.255 552.903 196.583 553.127C198.551 553.431 199.719 553.911 199.719 555.687C199.719 557.383 198.519 558.359 196.375 558.359Z" fill="black"/>
</svg>
