<svg xmlns="http://www.w3.org/2000/svg" width="50" height="61" viewBox="0 0 50 61" fill="none">
  <g clip-path="url(#clip0_5735_6742)">
    <path d="M47.6321 20.9706C43.6381 23.4412 41.1712 27.6765 41.1712 32.3824C41.1712 37.6765 44.3429 42.5 49.1592 44.5C48.2194 47.5588 46.8098 50.3824 45.0477 52.9706C42.4634 56.6176 39.7616 60.3824 35.7676 60.3824C31.7736 60.3824 30.5989 58.0294 25.9001 58.0294C21.3188 58.0294 19.6742 60.5 15.9152 60.5C12.1562 60.5 9.57183 57.0882 6.63508 52.8529C2.75858 46.9706 0.52665 40.1471 0.40918 32.9706C0.40918 21.3235 7.92725 15.0882 15.4453 15.0882C19.4393 15.0882 22.7285 17.6765 25.1953 17.6765C27.5447 17.6765 31.3038 14.9706 35.7676 14.9706C40.4664 14.8529 44.9303 17.0882 47.6321 20.9706ZM33.6532 10.0294C35.6501 7.67647 36.7074 4.73529 36.8248 1.67647C36.8248 1.32353 36.8248 0.852941 36.7074 0.5C33.3007 0.852941 30.1291 2.5 27.8971 5.08824C25.9001 7.32353 24.7254 10.1471 24.608 13.2059C24.608 13.5588 24.608 13.9118 24.7254 14.2647C24.9604 14.2647 25.3128 14.3824 25.5477 14.3824C28.7194 14.1471 31.6562 12.5 33.6532 10.0294Z" fill="#101112"/>
  </g>
  <defs>
    <clipPath id="clip0_5735_6742">
      <rect width="48.75" height="60" fill="white" transform="translate(0.40918 0.5)"/>
    </clipPath>
  </defs>
</svg>