<svg xmlns="http://www.w3.org/2000/svg" width="25" height="26" viewBox="0 0 25 26" fill="none">
  <g clip-path="url(#clip0_5476_35386)">
    <path d="M8.59375 23.1562C9.4567 23.1562 10.1562 22.4567 10.1562 21.5938C10.1562 20.7308 9.4567 20.0312 8.59375 20.0312C7.73081 20.0312 7.03125 20.7308 7.03125 21.5938C7.03125 22.4567 7.73081 23.1562 8.59375 23.1562Z" fill="#101112"/>
    <path d="M18.75 23.1562C19.6129 23.1562 20.3125 22.4567 20.3125 21.5938C20.3125 20.7308 19.6129 20.0312 18.75 20.0312C17.8871 20.0312 17.1875 20.7308 17.1875 21.5938C17.1875 22.4567 17.8871 23.1562 18.75 23.1562Z" fill="#101112"/>
    <path d="M1.5625 3.625H3.90625L7.49512 16.543C7.58645 16.872 7.78304 17.162 8.0548 17.3687C8.32657 17.5754 8.65856 17.6874 9 17.6875H18.6523C18.9939 17.6876 19.3262 17.5757 19.5981 17.369C19.8701 17.1623 20.0668 16.8721 20.1582 16.543L22.6562 7.53125H4.99121" stroke="#101112" stroke-width="2" stroke-linecap="round" stroke-linejoin="round"/>
  </g>
  <defs>
    <clipPath id="clip0_5476_35386">
      <rect width="25" height="25" fill="white" transform="translate(0 0.5)"/>
    </clipPath>
  </defs>
</svg>