<svg width="31" height="30" viewBox="0 0 31 30" fill="none" xmlns="http://www.w3.org/2000/svg">
<g id="Dell svg" clip-path="url(#clip0_5775_8108)">
<path id="Vector" d="M14.651 11.2917L10.9426 14.1667C10.5676 12.75 9.31763 11.6667 7.77596 11.6667H5.10929V18.25H7.77596C9.31763 18.25 10.651 17.2083 10.9426 15.75L14.651 18.625L18.3593 15.75V18.25H22.5676V16.9167H19.8176V11.6667H18.276V14.1667L14.7343 17.0417L13.9843 16.375L15.6926 15L17.526 13.5833L16.4843 12.7083L12.9426 15.4583L12.1926 14.7917L15.7343 12.125L14.651 11.2917ZM6.52596 13H7.69263C7.94263 13 8.15096 13.0417 8.35929 13.1667C8.56763 13.25 8.77596 13.4167 8.94263 13.5833C9.10929 13.75 9.23429 13.9583 9.35929 14.2083C9.48429 14.4583 9.52596 14.7083 9.52596 15C9.52596 15.25 9.48429 15.5 9.40096 15.75C9.31763 16 9.19263 16.2083 9.02596 16.375C8.85929 16.5417 8.65096 16.7083 8.44263 16.8333C8.23429 16.9583 7.98429 17 7.73429 17H6.52596V13ZM27.3593 16.9167V18.25H23.151V11.6667H24.6926V16.9167H27.3593ZM15.6926 0C7.48429 0 0.692627 6.79167 0.692627 15C0.692627 23.2083 7.40096 30 15.6926 30C23.9843 30 30.6926 23.2917 30.6926 15C30.6926 6.70833 23.901 0 15.6926 0ZM15.6926 1.54167C16.6093 1.54167 17.526 1.625 18.401 1.83333C19.276 2 20.1093 2.29167 20.9426 2.625C21.7343 2.95833 22.526 3.375 23.2343 3.875C23.9426 4.375 24.6093 4.91667 25.2343 5.5C25.8593 6.08333 26.401 6.79167 26.8593 7.5C27.3593 8.20833 27.776 9 28.1093 9.79167C28.4426 10.5833 28.7343 11.4583 28.901 12.3333C29.0676 13.2083 29.1926 14.125 29.1926 15.0417C29.1926 15.9583 29.1093 16.875 28.901 17.75C28.7343 18.625 28.4426 19.4583 28.1093 20.2917C27.776 21.0833 27.3593 21.875 26.8593 22.5833C26.3593 23.2917 25.8176 23.9583 25.2343 24.5833C24.651 25.2083 23.9426 25.75 23.2343 26.2083C22.526 26.7083 21.7343 27.125 20.9426 27.4583C20.151 27.7917 19.276 28.0833 18.401 28.25C17.526 28.4167 16.6093 28.5417 15.6926 28.5417C14.776 28.5417 13.8593 28.4583 12.9843 28.25C12.1093 28.0833 11.276 27.7917 10.4426 27.4583C9.65096 27.125 8.85929 26.7083 8.15096 26.2083C7.44263 25.7083 6.77596 25.1667 6.15096 24.5833C5.52596 24 4.98429 23.2917 4.52596 22.5833C4.02596 21.875 3.60929 21.0833 3.27596 20.2917C2.94263 19.5 2.65096 18.625 2.48429 17.75C2.31763 16.875 2.19263 15.9583 2.19263 15.0417C2.19263 14.125 2.27596 13.2083 2.48429 12.3333C2.65096 11.4583 2.94263 10.625 3.27596 9.79167C3.60929 9 4.02596 8.20833 4.52596 7.5C5.02596 6.79167 5.56763 6.125 6.15096 5.5C6.73429 4.875 7.44263 4.33333 8.15096 3.875C8.85929 3.375 9.65096 2.95833 10.4426 2.625C11.2343 2.29167 12.1093 2 12.9843 1.83333C13.8593 1.625 14.776 1.54167 15.6926 1.54167Z" fill="black"/>
</g>
<defs>
<clipPath id="clip0_5775_8108">
<rect width="30" height="30" fill="white" transform="translate(0.692627)"/>
</clipPath>
</defs>
</svg>
