<svg xmlns="http://www.w3.org/2000/svg" width="16" height="16" viewBox="0 0 16 16" fill="none">
  <path d="M14.673 7.67173C15.7437 6.86184 15.1709 5.15517 13.8284 5.15517H11.3992C10.7853 5.15517 10.243 4.75521 10.0617 4.16868L9.33754 1.82637C8.9309 0.511057 7.0691 0.511056 6.66246 1.82637L5.93832 4.16868C5.75699 4.75521 5.21469 5.15517 4.60078 5.15517H2.12961C0.791419 5.15517 0.215919 6.85274 1.27822 7.66654L3.39469 9.28792C3.85885 9.6435 4.05314 10.2501 3.88196 10.8092L3.11296 13.3207C2.71416 14.6232 4.22167 15.6704 5.30301 14.842L7.14861 13.4281C7.65097 13.0432 8.34903 13.0432 8.85139 13.4281L10.6807 14.8295C11.7636 15.659 13.2725 14.6079 12.8696 13.3046L12.09 10.7827C11.9159 10.2198 12.113 9.60809 12.5829 9.25263L14.673 7.67173Z" fill="#101112"/>
</svg>