<svg width="34" height="35" viewBox="0 0 34 35" fill="none" xmlns="http://www.w3.org/2000/svg">
<circle cx="17" cy="17.5" r="17" fill="white"/>
<g clip-path="url(#clip0_5877_5355)">
<path d="M16.9995 25L23.9808 17.9188C24.7134 17.1861 25.1251 16.1924 25.1251 15.1563C25.1251 14.1201 24.7134 13.1264 23.9808 12.3938C23.2481 11.6611 22.2544 11.2495 21.2183 11.2495C20.1821 11.2495 19.1884 11.6611 18.4558 12.3938L16.9995 13.75L15.5433 12.3938C14.8106 11.6611 13.8169 11.2495 12.7808 11.2495C11.7446 11.2495 10.7509 11.6611 10.0183 12.3938C9.28563 13.1264 8.87402 14.1201 8.87402 15.1563C8.87402 16.1924 9.28563 17.1861 10.0183 17.9188L16.9995 25Z" stroke="#373A3D" stroke-width="2" stroke-linecap="round" stroke-linejoin="round"/>
</g>
<defs>
<clipPath id="clip0_5877_5355">
<rect width="20" height="20" fill="white" transform="translate(7 7.5)"/>
</clipPath>
</defs>
</svg>
