<svg width="1440" height="704" viewBox="0 0 1440 704" fill="none" xmlns="http://www.w3.org/2000/svg">
<rect x="0.25" y="0.25" width="1439.5" height="703.5" fill="white"/>
<rect x="0.25" y="0.25" width="1439.5" height="703.5" stroke="url(#paint0_linear_7317_52480)" stroke-width="0.5"/>
<path d="M1260.72 284.2C1254.19 284.2 1247.72 283.533 1241.32 282.2C1234.92 280.867 1229.05 279.2 1223.72 277.2L1227.12 264.8C1233.92 267.2 1239.52 268.8 1243.92 269.6C1248.45 270.4 1252.32 270.8 1255.52 270.8C1260.45 270.8 1264.99 270 1269.12 268.4C1273.25 266.667 1276.52 264.067 1278.92 260.6C1281.45 257.133 1282.72 252.667 1282.72 247.2C1282.72 241.733 1281.65 237.4 1279.52 234.2C1277.52 230.867 1274.79 228.467 1271.32 227C1267.99 225.4 1264.25 224.333 1260.12 223.8C1255.99 223.267 1251.85 223 1247.72 223L1246.92 212.6C1258.25 211.267 1266.19 208.267 1270.72 203.6C1275.25 198.933 1277.52 193.4 1277.52 187C1277.52 181.933 1276.05 178 1273.12 175.2C1270.19 172.267 1265.52 170.8 1259.12 170.8C1256.05 170.8 1251.99 171.333 1246.92 172.4C1241.85 173.467 1236.45 175.333 1230.72 178L1225.72 167.2C1229.05 165.2 1232.92 163.4 1237.32 161.8C1241.85 160.067 1246.59 158.733 1251.52 157.8C1256.59 156.867 1261.52 156.4 1266.32 156.4C1272.72 156.4 1278.52 157.4 1283.72 159.4C1288.92 161.267 1293.05 164.2 1296.12 168.2C1299.19 172.2 1300.72 177.267 1300.72 183.4C1300.72 188.467 1299.65 193.067 1297.52 197.2C1295.52 201.2 1292.72 204.667 1289.12 207.6C1285.65 210.533 1281.79 213 1277.52 215C1286.45 216.733 1293.52 220.467 1298.72 226.2C1304.05 231.933 1306.72 238.933 1306.72 247.2C1306.72 259.467 1302.85 268.733 1295.12 275C1287.39 281.133 1275.92 284.2 1260.72 284.2Z" fill="#F3F3F3"/>
<path d="M876.495 468L872.295 455.4L915.095 412.2C918.828 408.6 921.962 404.933 924.495 401.2C927.028 397.333 929.028 393.4 930.495 389.4C931.962 385.267 932.695 381.133 932.695 377C932.695 371.4 930.828 366.733 927.095 363C923.362 359.267 917.628 357.4 909.895 357.4C904.962 357.4 900.228 358.133 895.695 359.6C891.295 361.067 886.695 362.733 881.895 364.6L876.695 353C882.028 350.333 888.095 347.933 894.895 345.8C901.695 343.533 909.028 342.4 916.895 342.4C924.495 342.4 931.362 343.467 937.495 345.6C943.628 347.6 948.495 351 952.095 355.8C955.695 360.467 957.495 366.867 957.495 375C957.495 380.867 956.362 386.4 954.095 391.6C951.828 396.8 948.628 401.933 944.495 407C940.362 411.933 935.495 417.133 929.895 422.6L895.095 453.8L944.695 452.2L952.495 436H962.895L960.095 468H876.495Z" fill="#F3F3F3"/>
<path d="M705.834 437.396C700.146 437.396 695.754 434.768 695.754 429.728C695.754 426.596 697.554 424.328 700.506 423.284C698.166 422.312 696.762 420.512 696.762 417.92C696.762 413.456 701.046 410.9 705.87 410.9C710.802 410.9 714.906 413.492 714.906 417.884C714.906 420.476 713.43 422.24 711.162 423.248C714.186 424.292 715.878 426.524 715.878 429.584C715.878 434.624 711.558 437.396 705.834 437.396ZM705.834 433.148C708.282 433.148 710.118 431.708 710.118 429.152C710.118 426.632 708.282 425.228 705.87 425.228C703.494 425.228 701.55 426.632 701.55 429.188C701.55 431.744 703.458 433.148 705.834 433.148ZM705.906 421.664C707.994 421.664 709.506 420.404 709.506 418.28C709.506 416.3 707.922 414.968 705.87 414.968C703.818 414.968 702.198 416.228 702.198 418.316C702.198 420.404 703.89 421.664 705.906 421.664ZM720.856 437L728.704 415.976H717.364V411.26H736.012V411.908L726.796 437H720.856ZM736.722 437V436.064L746.154 426.092C748.638 423.464 750.222 421.196 750.222 418.856C750.222 416.732 749.034 415.364 746.802 415.364C744.534 415.364 743.094 416.696 742.698 420.08H737.406C737.694 414.14 741.294 410.9 747.054 410.9C752.742 410.9 755.982 414.068 755.982 418.712C755.982 422.132 754.002 424.94 751.014 427.82L746.154 432.572H756.162V437H736.722ZM762.71 437.324C760.91 437.324 759.506 435.92 759.506 434.156C759.506 432.428 760.91 431.024 762.71 431.024C764.546 431.024 765.95 432.428 765.95 434.156C765.95 435.92 764.546 437.324 762.71 437.324ZM778.166 437.396C771.83 437.396 768.878 433.94 768.626 429.332H773.99C774.314 431.492 775.178 432.932 778.13 432.932C780.758 432.932 782.162 431.096 782.162 428.36C782.162 425.588 780.578 423.86 777.986 423.86C775.574 423.86 774.098 424.724 773.054 425.912H769.814L770.174 411.26H786.482V415.688H774.53L774.422 422.132C775.43 420.908 777.23 419.756 780.146 419.756C784.826 419.756 788.03 422.96 788.03 428.432C788.03 433.904 784.106 437.396 778.166 437.396ZM806.783 437.36C802.823 437.36 800.699 435.344 800.699 431.42V421.88H798.287V418.172H800.699V414.104H805.883V418.172H809.843V421.88H805.883V430.952C805.883 432.464 806.639 433.184 807.971 433.184C808.763 433.184 809.339 433.076 809.951 432.824V436.856C809.231 437.108 808.187 437.36 806.783 437.36ZM822.261 433.436C825.177 433.436 826.869 431.276 826.869 427.712V427.46C826.869 423.86 825.177 421.7 822.261 421.7C819.381 421.7 817.653 423.788 817.653 427.388V427.676C817.653 431.276 819.309 433.436 822.261 433.436ZM822.225 437.396C816.609 437.396 812.325 433.652 812.325 427.784V427.496C812.325 421.592 816.609 417.74 822.261 417.74C827.913 417.74 832.161 421.52 832.161 427.388V427.676C832.161 433.616 827.877 437.396 822.225 437.396ZM835.661 437V418.172H840.881V421.16C841.817 419.288 843.869 417.74 847.001 417.74C850.709 417.74 853.337 419.972 853.337 425.012V437H848.117V425.768C848.117 423.212 847.109 421.988 844.805 421.988C842.573 421.988 840.881 423.356 840.881 426.128V437H835.661ZM864.649 437.396C859.573 437.396 856.621 435.164 856.441 431.096H861.301C861.517 432.788 862.345 433.76 864.613 433.76C866.629 433.76 867.565 433.004 867.565 431.708C867.565 430.412 866.449 429.872 863.749 429.476C858.745 428.72 856.801 427.28 856.801 423.608C856.801 419.684 860.401 417.74 864.253 417.74C868.429 417.74 871.561 419.252 872.029 423.572H867.241C866.953 422.024 866.089 421.304 864.289 421.304C862.597 421.304 861.625 422.096 861.625 423.248C861.625 424.436 862.525 424.904 865.261 425.3C869.977 425.984 872.569 427.172 872.569 431.204C872.569 435.272 869.617 437.396 864.649 437.396Z" fill="#9AB856"/>
<path d="M695.783 465V452.76H697.719V465H695.783ZM703.759 465.16C701.295 465.16 699.519 463.544 699.519 460.904V460.776C699.519 458.184 701.295 456.456 703.679 456.456C705.759 456.456 707.631 457.688 707.631 460.68V461.24H701.503C701.567 462.824 702.367 463.72 703.807 463.72C704.975 463.72 705.583 463.256 705.727 462.44H707.599C707.327 464.2 705.903 465.16 703.759 465.16ZM701.535 459.944H705.711C705.615 458.504 704.879 457.864 703.679 457.864C702.511 457.864 701.727 458.648 701.535 459.944ZM712.302 465.16C710.142 465.16 708.878 464.168 708.798 462.392H710.622C710.718 463.24 711.15 463.736 712.286 463.736C713.326 463.736 713.79 463.368 713.79 462.664C713.79 461.976 713.23 461.72 711.998 461.512C709.79 461.16 708.974 460.536 708.974 458.968C708.974 457.288 710.542 456.456 712.11 456.456C713.822 456.456 715.182 457.096 715.39 458.984H713.598C713.438 458.216 713.006 457.864 712.11 457.864C711.278 457.864 710.782 458.264 710.782 458.856C710.782 459.464 711.182 459.704 712.51 459.928C714.478 460.232 715.646 460.712 715.646 462.488C715.646 464.184 714.446 465.16 712.302 465.16ZM720.209 465.16C718.049 465.16 716.785 464.168 716.705 462.392H718.529C718.625 463.24 719.057 463.736 720.193 463.736C721.233 463.736 721.697 463.368 721.697 462.664C721.697 461.976 721.137 461.72 719.905 461.512C717.697 461.16 716.881 460.536 716.881 458.968C716.881 457.288 718.449 456.456 720.017 456.456C721.729 456.456 723.089 457.096 723.297 458.984H721.505C721.345 458.216 720.913 457.864 720.017 457.864C719.185 457.864 718.689 458.264 718.689 458.856C718.689 459.464 719.089 459.704 720.417 459.928C722.385 460.232 723.553 460.712 723.553 462.488C723.553 464.184 722.353 465.16 720.209 465.16ZM728.931 465.16C726.467 465.16 724.691 463.544 724.691 460.904V460.776C724.691 458.184 726.467 456.456 728.851 456.456C730.931 456.456 732.803 457.688 732.803 460.68V461.24H726.675C726.739 462.824 727.539 463.72 728.979 463.72C730.147 463.72 730.755 463.256 730.899 462.44H732.771C732.499 464.2 731.075 465.16 728.931 465.16ZM726.707 459.944H730.883C730.787 458.504 730.051 457.864 728.851 457.864C727.683 457.864 726.899 458.648 726.707 459.944ZM734.532 465V456.632H736.468V458.2C736.996 457.144 737.78 456.52 739.188 456.504V458.312C737.492 458.328 736.468 458.872 736.468 460.648V465H734.532ZM749.872 465.16C746.288 465.16 744.288 462.872 744.288 459.352V459.224C744.288 455.784 746.656 453.384 749.84 453.384C752.464 453.384 754.496 454.696 754.752 457.384H752.592C752.352 455.864 751.504 455.08 749.856 455.08C747.84 455.08 746.528 456.648 746.528 459.208V459.336C746.528 461.912 747.76 463.432 749.872 463.432C751.456 463.432 752.576 462.632 752.8 461.016H754.88C754.544 463.768 752.592 465.16 749.872 465.16ZM761.971 463.448C764.131 463.448 765.491 461.8 765.491 459.32V459.192C765.491 456.84 764.179 455.096 761.939 455.096C759.699 455.096 758.371 456.744 758.371 459.208V459.336C758.371 461.832 759.891 463.448 761.971 463.448ZM761.939 465.16C758.435 465.16 756.147 462.648 756.147 459.352V459.224C756.147 455.88 758.547 453.4 761.939 453.4C765.347 453.4 767.699 455.816 767.699 459.176V459.304C767.699 462.648 765.411 465.16 761.939 465.16ZM768.683 465V464.616L773.003 460.056C774.091 458.904 774.747 457.896 774.747 456.808C774.747 455.736 774.139 455.064 773.035 455.064C771.899 455.064 771.179 455.72 770.987 457.336H769.035C769.179 454.84 770.683 453.4 773.099 453.4C775.467 453.4 776.875 454.76 776.875 456.776C776.875 458.264 775.995 459.56 774.635 460.872L772.091 463.352H776.955V465H768.683ZM782.817 465V453.56H789.969V455.24H784.945V458.376H788.977V459.976H784.945V463.32H790.241V465H782.817ZM792.001 465V456.632H793.937V457.912C794.337 457.128 795.249 456.456 796.481 456.456C797.569 456.456 798.433 456.92 798.849 457.96C799.489 456.92 800.641 456.456 801.681 456.456C803.217 456.456 804.465 457.4 804.465 459.704V465H802.529V459.832C802.529 458.6 802.001 458.072 801.041 458.072C800.081 458.072 799.201 458.712 799.201 459.992V465H797.265V459.832C797.265 458.6 796.721 458.072 795.777 458.072C794.817 458.072 793.937 458.712 793.937 459.992V465H792.001ZM806.736 465V456.632H808.672V465H806.736ZM807.68 455.256C807.04 455.256 806.528 454.776 806.528 454.152C806.528 453.512 807.04 453.032 807.68 453.032C808.32 453.032 808.832 453.512 808.832 454.152C808.832 454.776 808.32 455.256 807.68 455.256ZM813.896 465.16C811.736 465.16 810.472 464.168 810.392 462.392H812.216C812.312 463.24 812.744 463.736 813.88 463.736C814.92 463.736 815.384 463.368 815.384 462.664C815.384 461.976 814.824 461.72 813.592 461.512C811.384 461.16 810.568 460.536 810.568 458.968C810.568 457.288 812.136 456.456 813.704 456.456C815.416 456.456 816.776 457.096 816.984 458.984H815.192C815.032 458.216 814.6 457.864 813.704 457.864C812.872 457.864 812.376 458.264 812.376 458.856C812.376 459.464 812.776 459.704 814.104 459.928C816.072 460.232 817.24 460.712 817.24 462.488C817.24 464.184 816.04 465.16 813.896 465.16ZM821.802 465.16C819.642 465.16 818.378 464.168 818.298 462.392H820.122C820.218 463.24 820.65 463.736 821.786 463.736C822.826 463.736 823.29 463.368 823.29 462.664C823.29 461.976 822.73 461.72 821.498 461.512C819.29 461.16 818.474 460.536 818.474 458.968C818.474 457.288 820.042 456.456 821.61 456.456C823.322 456.456 824.682 457.096 824.89 458.984H823.098C822.938 458.216 822.506 457.864 821.61 457.864C820.778 457.864 820.282 458.264 820.282 458.856C820.282 459.464 820.682 459.704 822.01 459.928C823.978 460.232 825.146 460.712 825.146 462.488C825.146 464.184 823.946 465.16 821.802 465.16ZM826.893 465V456.632H828.829V465H826.893ZM827.837 455.256C827.197 455.256 826.685 454.776 826.685 454.152C826.685 453.512 827.197 453.032 827.837 453.032C828.477 453.032 828.989 453.512 828.989 454.152C828.989 454.776 828.477 455.256 827.837 455.256ZM834.932 463.656C836.372 463.656 837.236 462.584 837.236 460.872V460.76C837.236 459.032 836.372 457.976 834.932 457.976C833.492 457.976 832.612 459.016 832.612 460.744V460.872C832.612 462.584 833.46 463.656 834.932 463.656ZM834.916 465.16C832.452 465.16 830.628 463.448 830.628 460.904V460.776C830.628 458.184 832.468 456.456 834.932 456.456C837.38 456.456 839.22 458.168 839.22 460.728V460.856C839.22 463.464 837.38 465.16 834.916 465.16ZM840.97 465V456.632H842.906V457.96C843.306 457.144 844.234 456.456 845.61 456.456C847.29 456.456 848.474 457.432 848.474 459.736V465H846.538V459.912C846.538 458.648 846.026 458.072 844.874 458.072C843.786 458.072 842.906 458.744 842.906 460.072V465H840.97Z" fill="black"/>
<path d="M1018.74 254.396C1012.41 254.396 1009.46 250.94 1009.2 246.332H1014.57C1014.89 248.492 1015.76 249.932 1018.71 249.932C1021.34 249.932 1022.74 248.096 1022.74 245.36C1022.74 242.588 1021.16 240.86 1018.56 240.86C1016.15 240.86 1014.68 241.724 1013.63 242.912H1010.39L1010.75 228.26H1027.06V232.688H1015.11L1015 239.132C1016.01 237.908 1017.81 236.756 1020.72 236.756C1025.4 236.756 1028.61 239.96 1028.61 245.432C1028.61 250.904 1024.68 254.396 1018.74 254.396ZM1032.93 258.428L1029.76 257.096L1032.93 248.204L1037.83 250.04L1032.93 258.428ZM1039.56 254V253.064L1049 243.092C1051.48 240.464 1053.06 238.196 1053.06 235.856C1053.06 233.732 1051.88 232.364 1049.64 232.364C1047.38 232.364 1045.94 233.696 1045.54 237.08H1040.25C1040.54 231.14 1044.14 227.9 1049.9 227.9C1055.58 227.9 1058.82 231.068 1058.82 235.712C1058.82 239.132 1056.84 241.94 1053.86 244.82L1049 249.572H1059V254H1039.56ZM1071.16 254.396C1064.83 254.396 1061.87 250.94 1061.62 246.332H1066.99C1067.31 248.492 1068.17 249.932 1071.13 249.932C1073.75 249.932 1075.16 248.096 1075.16 245.36C1075.16 242.588 1073.57 240.86 1070.98 240.86C1068.57 240.86 1067.09 241.724 1066.05 242.912H1062.81L1063.17 228.26H1079.48V232.688H1067.53L1067.42 239.132C1068.43 237.908 1070.23 236.756 1073.14 236.756C1077.82 236.756 1081.03 239.96 1081.03 245.432C1081.03 250.904 1077.1 254.396 1071.16 254.396ZM1085.35 258.428L1082.18 257.096L1085.35 248.204L1090.25 250.04L1085.35 258.428ZM1103.24 249.824C1106.88 249.824 1108.54 247.052 1108.54 241.652V240.5C1108.54 235.316 1106.74 232.4 1103.17 232.4C1099.57 232.4 1097.74 235.172 1097.74 240.5V241.724C1097.74 247.124 1099.64 249.824 1103.24 249.824ZM1103.1 254.396C1096.26 254.396 1091.9 249.644 1091.9 241.76V240.536C1091.9 232.616 1096.51 227.9 1103.14 227.9C1109.76 227.9 1114.33 232.436 1114.33 240.428V241.616C1114.33 249.5 1110.05 254.396 1103.1 254.396ZM1128.91 249.824C1132.54 249.824 1134.2 247.052 1134.2 241.652V240.5C1134.2 235.316 1132.4 232.4 1128.84 232.4C1125.24 232.4 1123.4 235.172 1123.4 240.5V241.724C1123.4 247.124 1125.31 249.824 1128.91 249.824ZM1128.76 254.396C1121.92 254.396 1117.57 249.644 1117.57 241.76V240.536C1117.57 232.616 1122.18 227.9 1128.8 227.9C1135.42 227.9 1140 232.436 1140 240.428V241.616C1140 249.5 1135.71 254.396 1128.76 254.396ZM1154.57 249.824C1158.21 249.824 1159.86 247.052 1159.86 241.652V240.5C1159.86 235.316 1158.06 232.4 1154.5 232.4C1150.9 232.4 1149.06 235.172 1149.06 240.5V241.724C1149.06 247.124 1150.97 249.824 1154.57 249.824ZM1154.43 254.396C1147.59 254.396 1143.23 249.644 1143.23 241.76V240.536C1143.23 232.616 1147.84 227.9 1154.46 227.9C1161.09 227.9 1165.66 232.436 1165.66 240.428V241.616C1165.66 249.5 1161.38 254.396 1154.43 254.396ZM1177.56 254V226.64H1182.78V243.128L1188.83 235.172H1194.37L1187.53 243.74L1194.91 254H1189.01L1182.78 245.108V254H1177.56ZM1202.24 254L1195.98 228.26H1201.88L1205.92 246.044L1210.31 228.26H1215.28L1219.85 246.152L1224.02 228.26H1229.42L1223.16 254H1217.22L1212.58 236.216L1207.86 254H1202.24ZM1232.47 254V226.64H1237.69V238.16C1238.63 236.288 1240.68 234.74 1243.81 234.74C1247.52 234.74 1250.15 236.972 1250.15 242.012V254H1244.93V242.768C1244.93 240.212 1243.92 238.988 1241.62 238.988C1239.39 238.988 1237.69 240.356 1237.69 243.128V254H1232.47Z" fill="#9AB856"/>
<path d="M1013.18 280.656C1014.62 280.656 1015.48 279.584 1015.48 277.872V277.76C1015.48 276.032 1014.62 274.976 1013.18 274.976C1011.74 274.976 1010.86 276.016 1010.86 277.744V277.872C1010.86 279.584 1011.71 280.656 1013.18 280.656ZM1013.16 282.16C1010.7 282.16 1008.88 280.448 1008.88 277.904V277.776C1008.88 275.184 1010.72 273.456 1013.18 273.456C1015.63 273.456 1017.47 275.168 1017.47 277.728V277.856C1017.47 280.464 1015.63 282.16 1013.16 282.16ZM1019.55 282V275.088H1018.42V273.632H1019.55V272.512C1019.55 270.672 1020.58 269.68 1022.37 269.68C1022.83 269.68 1023.12 269.728 1023.47 269.84V271.344C1023.25 271.264 1022.95 271.2 1022.59 271.2C1021.81 271.2 1021.49 271.712 1021.49 272.432V273.632H1023.39V275.088H1021.49V282H1019.55ZM1032.51 282.16C1030.04 282.16 1028.27 280.544 1028.27 277.904V277.776C1028.27 275.184 1030.04 273.456 1032.43 273.456C1034.51 273.456 1036.38 274.688 1036.38 277.68V278.24H1030.25C1030.31 279.824 1031.11 280.72 1032.55 280.72C1033.72 280.72 1034.33 280.256 1034.47 279.44H1036.35C1036.07 281.2 1034.65 282.16 1032.51 282.16ZM1030.28 276.944H1034.46C1034.36 275.504 1033.63 274.864 1032.43 274.864C1031.26 274.864 1030.47 275.648 1030.28 276.944ZM1038.11 282V273.632H1040.04V274.96C1040.44 274.144 1041.37 273.456 1042.75 273.456C1044.43 273.456 1045.61 274.432 1045.61 276.736V282H1043.68V276.912C1043.68 275.648 1043.16 275.072 1042.01 275.072C1040.92 275.072 1040.04 275.744 1040.04 277.072V282H1038.11ZM1051.52 282.16C1049.06 282.16 1047.28 280.544 1047.28 277.904V277.776C1047.28 275.184 1049.06 273.456 1051.44 273.456C1053.52 273.456 1055.39 274.688 1055.39 277.68V278.24H1049.27C1049.33 279.824 1050.13 280.72 1051.57 280.72C1052.74 280.72 1053.35 280.256 1053.49 279.44H1055.36C1055.09 281.2 1053.67 282.16 1051.52 282.16ZM1049.3 276.944H1053.47C1053.38 275.504 1052.64 274.864 1051.44 274.864C1050.27 274.864 1049.49 275.648 1049.3 276.944ZM1057.12 282V273.632H1059.06V275.2C1059.59 274.144 1060.37 273.52 1061.78 273.504V275.312C1060.08 275.328 1059.06 275.872 1059.06 277.648V282H1057.12ZM1066.89 285.072C1064.27 285.072 1063.09 283.888 1062.86 282.288H1064.81C1064.97 283.12 1065.61 283.6 1066.88 283.6C1068.38 283.6 1069.21 282.848 1069.21 281.344V280.112C1068.75 280.912 1067.71 281.664 1066.48 281.664C1064.38 281.664 1062.77 280.096 1062.77 277.68V277.568C1062.77 275.216 1064.37 273.456 1066.53 273.456C1067.9 273.456 1068.73 274.08 1069.21 274.912V273.632H1071.15V281.376C1071.13 283.84 1069.49 285.072 1066.89 285.072ZM1066.96 280.176C1068.3 280.176 1069.28 279.216 1069.28 277.616V277.504C1069.28 275.92 1068.41 274.976 1067.02 274.976C1065.58 274.976 1064.75 276.016 1064.75 277.536V277.664C1064.75 279.216 1065.71 280.176 1066.96 280.176ZM1074.38 284.864L1075.9 281.152L1072.59 273.632H1074.68L1076.91 279.024L1078.96 273.632H1080.84L1076.28 284.864H1074.38ZM1088.97 282.16C1086.81 282.16 1085.55 281.168 1085.47 279.392H1087.29C1087.39 280.24 1087.82 280.736 1088.96 280.736C1090 280.736 1090.46 280.368 1090.46 279.664C1090.46 278.976 1089.9 278.72 1088.67 278.512C1086.46 278.16 1085.64 277.536 1085.64 275.968C1085.64 274.288 1087.21 273.456 1088.78 273.456C1090.49 273.456 1091.85 274.096 1092.06 275.984H1090.27C1090.11 275.216 1089.68 274.864 1088.78 274.864C1087.95 274.864 1087.45 275.264 1087.45 275.856C1087.45 276.464 1087.85 276.704 1089.18 276.928C1091.15 277.232 1092.32 277.712 1092.32 279.488C1092.32 281.184 1091.12 282.16 1088.97 282.16ZM1096.21 282.16C1094.67 282.16 1093.41 281.424 1093.41 279.68C1093.41 277.728 1095.29 277.024 1097.69 277.024H1098.73V276.592C1098.73 275.472 1098.35 274.912 1097.21 274.912C1096.21 274.912 1095.71 275.392 1095.61 276.224H1093.74C1093.9 274.272 1095.45 273.456 1097.33 273.456C1099.2 273.456 1100.67 274.224 1100.67 276.512V282H1098.77V280.976C1098.22 281.696 1097.49 282.16 1096.21 282.16ZM1096.67 280.768C1097.85 280.768 1098.73 280.144 1098.73 279.072V278.24H1097.74C1096.27 278.24 1095.33 278.576 1095.33 279.6C1095.33 280.304 1095.71 280.768 1096.67 280.768ZM1104.85 282L1101.79 273.632H1103.87L1106.06 280.016L1108.22 273.632H1110.13L1107.1 282H1104.85ZM1114.93 282.16C1112.46 282.16 1110.69 280.544 1110.69 277.904V277.776C1110.69 275.184 1112.46 273.456 1114.85 273.456C1116.93 273.456 1118.8 274.688 1118.8 277.68V278.24H1112.67C1112.74 279.824 1113.54 280.72 1114.98 280.72C1116.14 280.72 1116.75 280.256 1116.9 279.44H1118.77C1118.5 281.2 1117.07 282.16 1114.93 282.16ZM1112.7 276.944H1116.88C1116.78 275.504 1116.05 274.864 1114.85 274.864C1113.68 274.864 1112.9 275.648 1112.7 276.944ZM1123.67 282.16C1121.57 282.16 1119.99 280.672 1119.99 277.952V277.824C1119.99 275.152 1121.57 273.456 1123.75 273.456C1125.11 273.456 1125.95 274.08 1126.42 274.912V269.76H1128.35V282H1126.42V280.592C1125.97 281.424 1124.9 282.16 1123.67 282.16ZM1124.15 280.624C1125.49 280.624 1126.48 279.728 1126.48 277.856V277.728C1126.48 275.888 1125.63 274.976 1124.23 274.976C1122.8 274.976 1121.97 275.968 1121.97 277.776V277.904C1121.97 279.744 1122.9 280.624 1124.15 280.624Z" fill="black"/>
<path d="M1064.62 146C1070.75 142.274 1077.12 138.81 1083.76 135.634C1084.33 135.359 1084.91 135.083 1085.5 134.808C1131.85 113.079 1185.87 112.921 1236.49 125.282" stroke="#267C46" stroke-width="6" stroke-miterlimit="10" stroke-linecap="square"/>
<path d="M802.434 327.164C835.32 329.515 867.703 327.444 897.615 314.004C906.353 310.076 914.52 305.319 921.847 299.855C946.987 281.084 961.372 255.459 978.496 232.145C995.435 209.098 1013.97 186.519 1037.03 167" stroke="#267C46" stroke-width="6" stroke-miterlimit="10" stroke-linecap="square"/>
<path d="M360.847 430C459.836 392.146 554.676 299.848 685.519 312.113C711.894 314.591 739.55 319.799 767.307 323.642" stroke="#267C46" stroke-width="6" stroke-miterlimit="10" stroke-linecap="square"/>
<path d="M125 367C201.091 442 265.026 454.953 325.721 441.147" stroke="#267C46" stroke-width="6" stroke-miterlimit="10" stroke-linecap="square"/>
<path d="M344.341 446C349.082 446 352.926 442.194 352.926 437.5C352.926 432.806 349.082 429 344.341 429C339.6 429 335.757 432.806 335.757 437.5C335.757 442.194 339.6 446 344.341 446Z" fill="#DDE2E7"/>
<path d="M783.419 336C788.16 336 792.003 332.194 792.003 327.5C792.003 322.806 788.16 319 783.419 319C778.678 319 774.834 322.806 774.834 327.5C774.834 332.194 778.678 336 783.419 336Z" fill="#DDE2E7"/>
<path d="M1051.88 166C1056.62 166 1060.47 162.194 1060.47 157.5C1060.47 152.806 1056.62 149 1051.88 149C1047.14 149 1043.3 152.806 1043.3 157.5C1043.3 162.194 1047.14 166 1051.88 166Z" fill="#DDE2E7"/>
<path d="M434.074 571V562.4L466.474 556.8V464.6H435.074V455.6L488.874 447.6V557L516.874 562.4V571H434.074Z" fill="#F3F3F3"/>
<path d="M272.875 521.396C265.099 521.396 262.291 516.14 262.291 509.12V508.472C262.291 499.76 267.007 494.9 273.307 494.9C278.419 494.9 281.659 497.312 282.235 502.028H276.835C276.475 500.336 275.611 499.292 273.379 499.292C270.175 499.292 268.195 502.1 268.051 507.392C269.239 505.484 271.183 504.188 274.279 504.188C279.139 504.188 282.775 507.356 282.775 512.54C282.775 517.832 278.995 521.396 272.875 521.396ZM272.803 517.184C275.359 517.184 277.051 515.312 277.051 512.612C277.051 509.912 275.431 508.04 272.803 508.04C270.211 508.04 268.411 509.876 268.411 512.432C268.411 515.384 270.211 517.184 272.803 517.184ZM288.568 521.324C286.768 521.324 285.364 519.92 285.364 518.156C285.364 516.428 286.768 515.024 288.568 515.024C290.404 515.024 291.808 516.428 291.808 518.156C291.808 519.92 290.404 521.324 288.568 521.324ZM294.115 521V520.064L303.547 510.092C306.031 507.464 307.615 505.196 307.615 502.856C307.615 500.732 306.427 499.364 304.195 499.364C301.927 499.364 300.487 500.696 300.091 504.08H294.799C295.087 498.14 298.687 494.9 304.447 494.9C310.135 494.9 313.375 498.068 313.375 502.712C313.375 506.132 311.395 508.94 308.407 511.82L303.547 516.572H313.555V521H294.115ZM325.715 521.396C319.379 521.396 316.427 517.94 316.175 513.332H321.539C321.863 515.492 322.727 516.932 325.679 516.932C328.307 516.932 329.711 515.096 329.711 512.36C329.711 509.588 328.127 507.86 325.535 507.86C323.123 507.86 321.647 508.724 320.603 509.912H317.363L317.723 495.26H334.031V499.688H322.079L321.971 506.132C322.979 504.908 324.779 503.756 327.695 503.756C332.375 503.756 335.579 506.96 335.579 512.432C335.579 517.904 331.655 521.396 325.715 521.396ZM354.332 521.36C350.372 521.36 348.248 519.344 348.248 515.42V505.88H345.836V502.172H348.248V498.104H353.432V502.172H357.392V505.88H353.432V514.952C353.432 516.464 354.188 517.184 355.52 517.184C356.312 517.184 356.888 517.076 357.5 516.824V520.856C356.78 521.108 355.736 521.36 354.332 521.36ZM369.81 517.436C372.726 517.436 374.418 515.276 374.418 511.712V511.46C374.418 507.86 372.726 505.7 369.81 505.7C366.93 505.7 365.202 507.788 365.202 511.388V511.676C365.202 515.276 366.858 517.436 369.81 517.436ZM369.774 521.396C364.158 521.396 359.874 517.652 359.874 511.784V511.496C359.874 505.592 364.158 501.74 369.81 501.74C375.462 501.74 379.71 505.52 379.71 511.388V511.676C379.71 517.616 375.426 521.396 369.774 521.396ZM383.21 521V502.172H388.43V505.16C389.366 503.288 391.418 501.74 394.55 501.74C398.258 501.74 400.886 503.972 400.886 509.012V521H395.666V509.768C395.666 507.212 394.658 505.988 392.354 505.988C390.122 505.988 388.43 507.356 388.43 510.128V521H383.21ZM412.198 521.396C407.122 521.396 404.17 519.164 403.99 515.096H408.85C409.066 516.788 409.894 517.76 412.162 517.76C414.178 517.76 415.114 517.004 415.114 515.708C415.114 514.412 413.998 513.872 411.298 513.476C406.294 512.72 404.35 511.28 404.35 507.608C404.35 503.684 407.95 501.74 411.802 501.74C415.978 501.74 419.11 503.252 419.578 507.572H414.79C414.502 506.024 413.638 505.304 411.838 505.304C410.146 505.304 409.174 506.096 409.174 507.248C409.174 508.436 410.074 508.904 412.81 509.3C417.526 509.984 420.118 511.172 420.118 515.204C420.118 519.272 417.166 521.396 412.198 521.396Z" fill="#9AB856"/>
<path d="M265.567 547.855C267.007 547.855 267.871 546.783 267.871 545.071V544.959C267.871 543.231 267.007 542.175 265.567 542.175C264.127 542.175 263.247 543.215 263.247 544.943V545.071C263.247 546.783 264.095 547.855 265.567 547.855ZM265.551 549.359C263.087 549.359 261.263 547.647 261.263 545.103V544.975C261.263 542.383 263.103 540.655 265.567 540.655C268.015 540.655 269.855 542.367 269.855 544.927V545.055C269.855 547.663 268.015 549.359 265.551 549.359ZM271.94 549.199V542.287H270.804V540.831H271.94V539.711C271.94 537.871 272.964 536.879 274.756 536.879C275.22 536.879 275.508 536.927 275.86 537.039V538.543C275.636 538.463 275.332 538.399 274.98 538.399C274.196 538.399 273.876 538.911 273.876 539.631V540.831H275.78V542.287H273.876V549.199H271.94ZM284.894 549.359C282.43 549.359 280.654 547.743 280.654 545.103V544.975C280.654 542.383 282.43 540.655 284.814 540.655C286.894 540.655 288.766 541.887 288.766 544.879V545.439H282.638C282.702 547.023 283.502 547.919 284.942 547.919C286.11 547.919 286.718 547.455 286.862 546.639H288.734C288.462 548.399 287.038 549.359 284.894 549.359ZM282.67 544.143H286.846C286.75 542.703 286.014 542.063 284.814 542.063C283.646 542.063 282.862 542.847 282.67 544.143ZM290.239 545.535V543.935H294.079V545.535H290.239ZM297.551 549.199L294.991 540.831H297.055L298.719 546.879L300.495 540.831H302.111L303.743 546.879L305.487 540.831H307.375L304.751 549.199H302.783L301.231 543.567L299.535 549.199H297.551ZM310.812 549.359C309.276 549.359 308.012 548.623 308.012 546.879C308.012 544.927 309.9 544.223 312.3 544.223H313.34V543.791C313.34 542.671 312.956 542.111 311.82 542.111C310.812 542.111 310.316 542.591 310.22 543.423H308.348C308.508 541.471 310.06 540.655 311.932 540.655C313.804 540.655 315.276 541.423 315.276 543.711V549.199H313.372V548.175C312.828 548.895 312.092 549.359 310.812 549.359ZM311.276 547.967C312.46 547.967 313.34 547.343 313.34 546.271V545.439H312.348C310.876 545.439 309.932 545.775 309.932 546.799C309.932 547.503 310.316 547.967 311.276 547.967ZM320.359 549.359C318.199 549.359 316.935 548.367 316.855 546.591H318.679C318.775 547.439 319.207 547.935 320.343 547.935C321.383 547.935 321.847 547.567 321.847 546.863C321.847 546.175 321.287 545.919 320.055 545.711C317.847 545.359 317.031 544.735 317.031 543.167C317.031 541.487 318.599 540.655 320.167 540.655C321.879 540.655 323.239 541.295 323.447 543.183H321.655C321.495 542.415 321.063 542.063 320.167 542.063C319.335 542.063 318.839 542.463 318.839 543.055C318.839 543.663 319.239 543.903 320.567 544.127C322.535 544.431 323.703 544.911 323.703 546.687C323.703 548.383 322.503 549.359 320.359 549.359ZM328.249 549.343C326.585 549.343 325.721 548.447 325.721 546.863V542.287H324.601V540.831H325.721V538.991H327.657V540.831H329.497V542.287H327.657V546.687C327.657 547.423 328.009 547.759 328.617 547.759C329.001 547.759 329.289 547.711 329.561 547.599V549.135C329.257 549.247 328.841 549.343 328.249 549.343ZM334.988 549.359C332.524 549.359 330.748 547.743 330.748 545.103V544.975C330.748 542.383 332.524 540.655 334.908 540.655C336.988 540.655 338.86 541.887 338.86 544.879V545.439H332.732C332.796 547.023 333.596 547.919 335.036 547.919C336.204 547.919 336.812 547.455 336.956 546.639H338.828C338.556 548.399 337.132 549.359 334.988 549.359ZM332.764 544.143H336.94C336.844 542.703 336.108 542.063 334.908 542.063C333.74 542.063 332.956 542.847 332.764 544.143ZM347.265 549.359C345.105 549.359 343.841 548.367 343.761 546.591H345.585C345.681 547.439 346.113 547.935 347.249 547.935C348.289 547.935 348.753 547.567 348.753 546.863C348.753 546.175 348.193 545.919 346.961 545.711C344.753 545.359 343.937 544.735 343.937 543.167C343.937 541.487 345.505 540.655 347.073 540.655C348.785 540.655 350.145 541.295 350.353 543.183H348.561C348.401 542.415 347.969 542.063 347.073 542.063C346.241 542.063 345.745 542.463 345.745 543.055C345.745 543.663 346.145 543.903 347.473 544.127C349.441 544.431 350.609 544.911 350.609 546.687C350.609 548.383 349.409 549.359 347.265 549.359ZM354.5 549.359C352.964 549.359 351.7 548.623 351.7 546.879C351.7 544.927 353.588 544.223 355.988 544.223H357.028V543.791C357.028 542.671 356.644 542.111 355.508 542.111C354.5 542.111 354.004 542.591 353.908 543.423H352.036C352.196 541.471 353.748 540.655 355.62 540.655C357.492 540.655 358.964 541.423 358.964 543.711V549.199H357.06V548.175C356.516 548.895 355.78 549.359 354.5 549.359ZM354.964 547.967C356.148 547.967 357.028 547.343 357.028 546.271V545.439H356.036C354.564 545.439 353.62 545.775 353.62 546.799C353.62 547.503 354.004 547.967 354.964 547.967ZM363.14 549.199L360.084 540.831H362.164L364.356 547.215L366.516 540.831H368.42L365.396 549.199H363.14ZM373.222 549.359C370.758 549.359 368.982 547.743 368.982 545.103V544.975C368.982 542.383 370.758 540.655 373.142 540.655C375.222 540.655 377.094 541.887 377.094 544.879V545.439H370.966C371.03 547.023 371.83 547.919 373.27 547.919C374.438 547.919 375.046 547.455 375.19 546.639H377.062C376.79 548.399 375.366 549.359 373.222 549.359ZM370.998 544.143H375.174C375.078 542.703 374.342 542.063 373.142 542.063C371.974 542.063 371.19 542.847 370.998 544.143ZM381.959 549.359C379.863 549.359 378.279 547.871 378.279 545.151V545.023C378.279 542.351 379.863 540.655 382.039 540.655C383.399 540.655 384.247 541.279 384.711 542.111V536.959H386.647V549.199H384.711V547.791C384.263 548.623 383.191 549.359 381.959 549.359ZM382.439 547.823C383.783 547.823 384.775 546.927 384.775 545.055V544.927C384.775 543.087 383.927 542.175 382.519 542.175C381.095 542.175 380.263 543.167 380.263 544.975V545.103C380.263 546.943 381.191 547.823 382.439 547.823ZM262.159 567.199V560.287H261.023V558.831H262.159V557.711C262.159 555.871 263.183 554.879 264.975 554.879C265.439 554.879 265.727 554.927 266.079 555.039V556.543C265.855 556.463 265.551 556.399 265.199 556.399C264.415 556.399 264.095 556.911 264.095 557.631V558.831H265.999V560.287H264.095V567.199H262.159ZM267.62 567.199V558.831H269.556V560.399C270.084 559.343 270.868 558.719 272.276 558.703V560.511C270.58 560.527 269.556 561.071 269.556 562.847V567.199H267.62ZM277.567 565.855C279.007 565.855 279.871 564.783 279.871 563.071V562.959C279.871 561.231 279.007 560.175 277.567 560.175C276.127 560.175 275.247 561.215 275.247 562.943V563.071C275.247 564.783 276.095 565.855 277.567 565.855ZM277.551 567.359C275.087 567.359 273.263 565.647 273.263 563.103V562.975C273.263 560.383 275.103 558.655 277.567 558.655C280.015 558.655 281.855 560.367 281.855 562.927V563.055C281.855 565.663 280.015 567.359 277.551 567.359ZM283.604 567.199V558.831H285.54V560.111C285.94 559.327 286.852 558.655 288.084 558.655C289.172 558.655 290.036 559.119 290.452 560.159C291.092 559.119 292.244 558.655 293.284 558.655C294.82 558.655 296.068 559.599 296.068 561.903V567.199H294.132V562.031C294.132 560.799 293.604 560.271 292.644 560.271C291.684 560.271 290.804 560.911 290.804 562.191V567.199H288.868V562.031C288.868 560.799 288.324 560.271 287.38 560.271C286.42 560.271 285.54 560.911 285.54 562.191V567.199H283.604ZM305.784 567.359C303.32 567.359 301.544 565.743 301.544 563.103V562.975C301.544 560.383 303.32 558.655 305.704 558.655C307.784 558.655 309.656 559.887 309.656 562.879V563.439H303.528C303.592 565.023 304.392 565.919 305.832 565.919C307 565.919 307.608 565.455 307.752 564.639H309.624C309.352 566.399 307.928 567.359 305.784 567.359ZM303.56 562.143H307.736C307.64 560.703 306.904 560.063 305.704 560.063C304.536 560.063 303.752 560.847 303.56 562.143ZM311.386 567.199V558.831H313.322V560.159C313.722 559.343 314.65 558.655 316.026 558.655C317.706 558.655 318.89 559.631 318.89 561.935V567.199H316.954V562.111C316.954 560.847 316.442 560.271 315.29 560.271C314.202 560.271 313.322 560.943 313.322 562.271V567.199H311.386ZM324.256 567.359C322.16 567.359 320.576 565.871 320.576 563.151V563.023C320.576 560.351 322.16 558.655 324.336 558.655C325.696 558.655 326.544 559.279 327.008 560.111V554.959H328.944V567.199H327.008V565.791C326.56 566.623 325.488 567.359 324.256 567.359ZM324.736 565.823C326.08 565.823 327.072 564.927 327.072 563.055V562.927C327.072 561.087 326.224 560.175 324.816 560.175C323.392 560.175 322.56 561.167 322.56 562.975V563.103C322.56 564.943 323.488 565.823 324.736 565.823ZM331.293 567.199V558.831H333.229V567.199H331.293ZM332.237 557.455C331.597 557.455 331.085 556.975 331.085 556.351C331.085 555.711 331.597 555.231 332.237 555.231C332.877 555.231 333.389 555.711 333.389 556.351C333.389 556.975 332.877 557.455 332.237 557.455ZM335.589 567.199V558.831H337.525V560.159C337.925 559.343 338.853 558.655 340.229 558.655C341.909 558.655 343.093 559.631 343.093 561.935V567.199H341.157V562.111C341.157 560.847 340.645 560.271 339.493 560.271C338.405 560.271 337.525 560.943 337.525 562.271V567.199H335.589ZM348.891 570.271C346.267 570.271 345.083 569.087 344.859 567.487H346.811C346.971 568.319 347.611 568.799 348.875 568.799C350.379 568.799 351.211 568.047 351.211 566.543V565.311C350.747 566.111 349.707 566.863 348.475 566.863C346.379 566.863 344.763 565.295 344.763 562.879V562.767C344.763 560.415 346.363 558.655 348.523 558.655C349.899 558.655 350.731 559.279 351.211 560.111V558.831H353.147V566.575C353.131 569.039 351.483 570.271 348.891 570.271ZM348.955 565.375C350.299 565.375 351.275 564.415 351.275 562.815V562.703C351.275 561.119 350.411 560.175 349.019 560.175C347.579 560.175 346.747 561.215 346.747 562.735V562.863C346.747 564.415 347.707 565.375 348.955 565.375ZM362.061 567.359C360.413 567.359 359.181 566.415 359.181 564.191V558.831H361.117V563.967C361.117 565.231 361.645 565.807 362.765 565.807C363.805 565.807 364.717 565.135 364.717 563.807V558.831H366.653V567.199H364.717V565.887C364.301 566.703 363.421 567.359 362.061 567.359ZM368.948 570.063V558.831H370.884V560.175C371.348 559.375 372.388 558.655 373.62 558.655C375.716 558.655 377.332 560.207 377.332 562.911V563.039C377.332 565.727 375.78 567.359 373.62 567.359C372.292 567.359 371.332 566.703 370.884 565.887V570.063H368.948ZM373.14 565.823C374.564 565.823 375.348 564.863 375.348 563.071V562.943C375.348 561.087 374.388 560.175 373.124 560.175C371.78 560.175 370.82 561.087 370.82 562.943V563.071C370.82 564.943 371.732 565.823 373.14 565.823ZM382.934 567.199V558.831H384.87V567.199H382.934ZM383.878 557.455C383.238 557.455 382.726 556.975 382.726 556.351C382.726 555.711 383.238 555.231 383.878 555.231C384.518 555.231 385.03 555.711 385.03 556.351C385.03 556.975 384.518 557.455 383.878 557.455ZM387.229 567.199V558.831H389.165V560.159C389.565 559.343 390.493 558.655 391.869 558.655C393.549 558.655 394.733 559.631 394.733 561.935V567.199H392.797V562.111C392.797 560.847 392.285 560.271 391.133 560.271C390.045 560.271 389.165 560.943 389.165 562.271V567.199H387.229ZM261.871 585.199V572.959H263.807V585.199H261.871ZM268.359 585.359C266.823 585.359 265.559 584.623 265.559 582.879C265.559 580.927 267.447 580.223 269.847 580.223H270.887V579.791C270.887 578.671 270.503 578.111 269.367 578.111C268.359 578.111 267.863 578.591 267.767 579.423H265.895C266.055 577.471 267.607 576.655 269.479 576.655C271.351 576.655 272.823 577.423 272.823 579.711V585.199H270.919V584.175C270.375 584.895 269.639 585.359 268.359 585.359ZM268.823 583.967C270.007 583.967 270.887 583.343 270.887 582.271V581.439H269.895C268.423 581.439 267.479 581.775 267.479 582.799C267.479 583.503 267.863 583.967 268.823 583.967ZM275.042 585.199V576.831H276.978V578.159C277.378 577.343 278.306 576.655 279.682 576.655C281.362 576.655 282.546 577.631 282.546 579.935V585.199H280.61V580.111C280.61 578.847 280.098 578.271 278.946 578.271C277.858 578.271 276.978 578.943 276.978 580.271V585.199H275.042ZM287.912 585.359C285.816 585.359 284.232 583.871 284.232 581.151V581.023C284.232 578.351 285.816 576.655 287.992 576.655C289.352 576.655 290.2 577.279 290.664 578.111V572.959H292.6V585.199H290.664V583.791C290.216 584.623 289.144 585.359 287.912 585.359ZM288.392 583.823C289.736 583.823 290.728 582.927 290.728 581.055V580.927C290.728 579.087 289.88 578.175 288.472 578.175C287.048 578.175 286.216 579.167 286.216 580.975V581.103C286.216 582.943 287.144 583.823 288.392 583.823ZM295.237 585.199V578.287H294.101V576.831H295.237V575.711C295.237 573.871 296.245 572.879 298.021 572.879C298.501 572.879 298.773 572.927 299.077 573.023V574.527C298.853 574.431 298.613 574.399 298.261 574.399C297.493 574.399 297.173 574.911 297.173 575.631V576.831H299.077V578.287H297.173V585.199H295.237ZM300.527 585.199V576.831H302.463V585.199H300.527ZM301.471 575.455C300.831 575.455 300.319 574.975 300.319 574.351C300.319 573.711 300.831 573.231 301.471 573.231C302.111 573.231 302.623 573.711 302.623 574.351C302.623 574.975 302.111 575.455 301.471 575.455ZM304.871 585.199V572.959H306.807V585.199H304.871ZM309.215 585.199V572.959H311.151V585.199H309.215ZM316.375 585.359C314.215 585.359 312.951 584.367 312.871 582.591H314.695C314.791 583.439 315.223 583.935 316.359 583.935C317.399 583.935 317.863 583.567 317.863 582.863C317.863 582.175 317.303 581.919 316.071 581.711C313.863 581.359 313.047 580.735 313.047 579.167C313.047 577.487 314.615 576.655 316.183 576.655C317.895 576.655 319.255 577.295 319.463 579.183H317.671C317.511 578.415 317.079 578.063 316.183 578.063C315.351 578.063 314.855 578.463 314.855 579.055C314.855 579.663 315.255 579.903 316.583 580.127C318.551 580.431 319.719 580.911 319.719 582.687C319.719 584.383 318.519 585.359 316.375 585.359Z" fill="black"/>
<defs>
<linearGradient id="paint0_linear_7317_52480" x1="29.5" y1="704" x2="1440" y2="704" gradientUnits="userSpaceOnUse">
<stop stop-color="white"/>
<stop offset="0.514929" stop-opacity="0.4"/>
<stop offset="1" stop-color="white"/>
</linearGradient>
</defs>
</svg>
