<svg width="1440" height="576" viewBox="0 0 1440 576" fill="none" xmlns="http://www.w3.org/2000/svg">
<rect width="1440" height="576" fill="white"/>
<path d="M1260.72 220.2C1254.19 220.2 1247.72 219.533 1241.32 218.2C1234.92 216.867 1229.05 215.2 1223.72 213.2L1227.12 200.8C1233.92 203.2 1239.52 204.8 1243.92 205.6C1248.45 206.4 1252.32 206.8 1255.52 206.8C1260.45 206.8 1264.99 206 1269.12 204.4C1273.25 202.667 1276.52 200.067 1278.92 196.6C1281.45 193.133 1282.72 188.667 1282.72 183.2C1282.72 177.733 1281.65 173.4 1279.52 170.2C1277.52 166.867 1274.79 164.467 1271.32 163C1267.99 161.4 1264.25 160.333 1260.12 159.8C1255.99 159.267 1251.85 159 1247.72 159L1246.92 148.6C1258.25 147.267 1266.19 144.267 1270.72 139.6C1275.25 134.933 1277.52 129.4 1277.52 123C1277.52 117.933 1276.05 114 1273.12 111.2C1270.19 108.267 1265.52 106.8 1259.12 106.8C1256.05 106.8 1251.99 107.333 1246.92 108.4C1241.85 109.467 1236.45 111.333 1230.72 114L1225.72 103.2C1229.05 101.2 1232.92 99.4 1237.32 97.8C1241.85 96.0667 1246.59 94.7333 1251.52 93.8C1256.59 92.8667 1261.52 92.4 1266.32 92.4C1272.72 92.4 1278.52 93.4 1283.72 95.4C1288.92 97.2667 1293.05 100.2 1296.12 104.2C1299.19 108.2 1300.72 113.267 1300.72 119.4C1300.72 124.467 1299.65 129.067 1297.52 133.2C1295.52 137.2 1292.72 140.667 1289.12 143.6C1285.65 146.533 1281.79 149 1277.52 151C1286.45 152.733 1293.52 156.467 1298.72 162.2C1304.05 167.933 1306.72 174.933 1306.72 183.2C1306.72 195.467 1302.85 204.733 1295.12 211C1287.39 217.133 1275.92 220.2 1260.72 220.2Z" fill="#F3F3F3"/>
<path d="M876.495 404L872.295 391.4L915.095 348.2C918.828 344.6 921.962 340.933 924.495 337.2C927.028 333.333 929.028 329.4 930.495 325.4C931.962 321.267 932.695 317.133 932.695 313C932.695 307.4 930.828 302.733 927.095 299C923.362 295.267 917.628 293.4 909.895 293.4C904.962 293.4 900.228 294.133 895.695 295.6C891.295 297.067 886.695 298.733 881.895 300.6L876.695 289C882.028 286.333 888.095 283.933 894.895 281.8C901.695 279.533 909.028 278.4 916.895 278.4C924.495 278.4 931.362 279.467 937.495 281.6C943.628 283.6 948.495 287 952.095 291.8C955.695 296.467 957.495 302.867 957.495 311C957.495 316.867 956.362 322.4 954.095 327.6C951.828 332.8 948.628 337.933 944.495 343C940.362 347.933 935.495 353.133 929.895 358.6L895.095 389.8L944.695 388.2L952.495 372H962.895L960.095 404H876.495Z" fill="#F3F3F3"/>
<path d="M705.834 373.396C700.146 373.396 695.754 370.768 695.754 365.728C695.754 362.596 697.554 360.328 700.506 359.284C698.166 358.312 696.762 356.512 696.762 353.92C696.762 349.456 701.046 346.9 705.87 346.9C710.802 346.9 714.906 349.492 714.906 353.884C714.906 356.476 713.43 358.24 711.162 359.248C714.186 360.292 715.878 362.524 715.878 365.584C715.878 370.624 711.558 373.396 705.834 373.396ZM705.834 369.148C708.282 369.148 710.118 367.708 710.118 365.152C710.118 362.632 708.282 361.228 705.87 361.228C703.494 361.228 701.55 362.632 701.55 365.188C701.55 367.744 703.458 369.148 705.834 369.148ZM705.906 357.664C707.994 357.664 709.506 356.404 709.506 354.28C709.506 352.3 707.922 350.968 705.87 350.968C703.818 350.968 702.198 352.228 702.198 354.316C702.198 356.404 703.89 357.664 705.906 357.664ZM720.856 373L728.704 351.976H717.364V347.26H736.012V347.908L726.796 373H720.856ZM736.722 373V372.064L746.154 362.092C748.638 359.464 750.222 357.196 750.222 354.856C750.222 352.732 749.034 351.364 746.802 351.364C744.534 351.364 743.094 352.696 742.698 356.08H737.406C737.694 350.14 741.294 346.9 747.054 346.9C752.742 346.9 755.982 350.068 755.982 354.712C755.982 358.132 754.002 360.94 751.014 363.82L746.154 368.572H756.162V373H736.722ZM762.71 373.324C760.91 373.324 759.506 371.92 759.506 370.156C759.506 368.428 760.91 367.024 762.71 367.024C764.546 367.024 765.95 368.428 765.95 370.156C765.95 371.92 764.546 373.324 762.71 373.324ZM778.166 373.396C771.83 373.396 768.878 369.94 768.626 365.332H773.99C774.314 367.492 775.178 368.932 778.13 368.932C780.758 368.932 782.162 367.096 782.162 364.36C782.162 361.588 780.578 359.86 777.986 359.86C775.574 359.86 774.098 360.724 773.054 361.912H769.814L770.174 347.26H786.482V351.688H774.53L774.422 358.132C775.43 356.908 777.23 355.756 780.146 355.756C784.826 355.756 788.03 358.96 788.03 364.432C788.03 369.904 784.106 373.396 778.166 373.396ZM806.783 373.36C802.823 373.36 800.699 371.344 800.699 367.42V357.88H798.287V354.172H800.699V350.104H805.883V354.172H809.843V357.88H805.883V366.952C805.883 368.464 806.639 369.184 807.971 369.184C808.763 369.184 809.339 369.076 809.951 368.824V372.856C809.231 373.108 808.187 373.36 806.783 373.36ZM822.261 369.436C825.177 369.436 826.869 367.276 826.869 363.712V363.46C826.869 359.86 825.177 357.7 822.261 357.7C819.381 357.7 817.653 359.788 817.653 363.388V363.676C817.653 367.276 819.309 369.436 822.261 369.436ZM822.225 373.396C816.609 373.396 812.325 369.652 812.325 363.784V363.496C812.325 357.592 816.609 353.74 822.261 353.74C827.913 353.74 832.161 357.52 832.161 363.388V363.676C832.161 369.616 827.877 373.396 822.225 373.396ZM835.661 373V354.172H840.881V357.16C841.817 355.288 843.869 353.74 847.001 353.74C850.709 353.74 853.337 355.972 853.337 361.012V373H848.117V361.768C848.117 359.212 847.109 357.988 844.805 357.988C842.573 357.988 840.881 359.356 840.881 362.128V373H835.661ZM864.649 373.396C859.573 373.396 856.621 371.164 856.441 367.096H861.301C861.517 368.788 862.345 369.76 864.613 369.76C866.629 369.76 867.565 369.004 867.565 367.708C867.565 366.412 866.449 365.872 863.749 365.476C858.745 364.72 856.801 363.28 856.801 359.608C856.801 355.684 860.401 353.74 864.253 353.74C868.429 353.74 871.561 355.252 872.029 359.572H867.241C866.953 358.024 866.089 357.304 864.289 357.304C862.597 357.304 861.625 358.096 861.625 359.248C861.625 360.436 862.525 360.904 865.261 361.3C869.977 361.984 872.569 363.172 872.569 367.204C872.569 371.272 869.617 373.396 864.649 373.396Z" fill="#9AB856"/>
<path d="M695.783 401V388.76H697.719V401H695.783ZM703.759 401.16C701.295 401.16 699.519 399.544 699.519 396.904V396.776C699.519 394.184 701.295 392.456 703.679 392.456C705.759 392.456 707.631 393.688 707.631 396.68V397.24H701.503C701.567 398.824 702.367 399.72 703.807 399.72C704.975 399.72 705.583 399.256 705.727 398.44H707.599C707.327 400.2 705.903 401.16 703.759 401.16ZM701.535 395.944H705.711C705.615 394.504 704.879 393.864 703.679 393.864C702.511 393.864 701.727 394.648 701.535 395.944ZM712.302 401.16C710.142 401.16 708.878 400.168 708.798 398.392H710.622C710.718 399.24 711.15 399.736 712.286 399.736C713.326 399.736 713.79 399.368 713.79 398.664C713.79 397.976 713.23 397.72 711.998 397.512C709.79 397.16 708.974 396.536 708.974 394.968C708.974 393.288 710.542 392.456 712.11 392.456C713.822 392.456 715.182 393.096 715.39 394.984H713.598C713.438 394.216 713.006 393.864 712.11 393.864C711.278 393.864 710.782 394.264 710.782 394.856C710.782 395.464 711.182 395.704 712.51 395.928C714.478 396.232 715.646 396.712 715.646 398.488C715.646 400.184 714.446 401.16 712.302 401.16ZM720.209 401.16C718.049 401.16 716.785 400.168 716.705 398.392H718.529C718.625 399.24 719.057 399.736 720.193 399.736C721.233 399.736 721.697 399.368 721.697 398.664C721.697 397.976 721.137 397.72 719.905 397.512C717.697 397.16 716.881 396.536 716.881 394.968C716.881 393.288 718.449 392.456 720.017 392.456C721.729 392.456 723.089 393.096 723.297 394.984H721.505C721.345 394.216 720.913 393.864 720.017 393.864C719.185 393.864 718.689 394.264 718.689 394.856C718.689 395.464 719.089 395.704 720.417 395.928C722.385 396.232 723.553 396.712 723.553 398.488C723.553 400.184 722.353 401.16 720.209 401.16ZM728.931 401.16C726.467 401.16 724.691 399.544 724.691 396.904V396.776C724.691 394.184 726.467 392.456 728.851 392.456C730.931 392.456 732.803 393.688 732.803 396.68V397.24H726.675C726.739 398.824 727.539 399.72 728.979 399.72C730.147 399.72 730.755 399.256 730.899 398.44H732.771C732.499 400.2 731.075 401.16 728.931 401.16ZM726.707 395.944H730.883C730.787 394.504 730.051 393.864 728.851 393.864C727.683 393.864 726.899 394.648 726.707 395.944ZM734.532 401V392.632H736.468V394.2C736.996 393.144 737.78 392.52 739.188 392.504V394.312C737.492 394.328 736.468 394.872 736.468 396.648V401H734.532ZM749.872 401.16C746.288 401.16 744.288 398.872 744.288 395.352V395.224C744.288 391.784 746.656 389.384 749.84 389.384C752.464 389.384 754.496 390.696 754.752 393.384H752.592C752.352 391.864 751.504 391.08 749.856 391.08C747.84 391.08 746.528 392.648 746.528 395.208V395.336C746.528 397.912 747.76 399.432 749.872 399.432C751.456 399.432 752.576 398.632 752.8 397.016H754.88C754.544 399.768 752.592 401.16 749.872 401.16ZM761.971 399.448C764.131 399.448 765.491 397.8 765.491 395.32V395.192C765.491 392.84 764.179 391.096 761.939 391.096C759.699 391.096 758.371 392.744 758.371 395.208V395.336C758.371 397.832 759.891 399.448 761.971 399.448ZM761.939 401.16C758.435 401.16 756.147 398.648 756.147 395.352V395.224C756.147 391.88 758.547 389.4 761.939 389.4C765.347 389.4 767.699 391.816 767.699 395.176V395.304C767.699 398.648 765.411 401.16 761.939 401.16ZM768.683 401V400.616L773.003 396.056C774.091 394.904 774.747 393.896 774.747 392.808C774.747 391.736 774.139 391.064 773.035 391.064C771.899 391.064 771.179 391.72 770.987 393.336H769.035C769.179 390.84 770.683 389.4 773.099 389.4C775.467 389.4 776.875 390.76 776.875 392.776C776.875 394.264 775.995 395.56 774.635 396.872L772.091 399.352H776.955V401H768.683ZM782.817 401V389.56H789.969V391.24H784.945V394.376H788.977V395.976H784.945V399.32H790.241V401H782.817ZM792.001 401V392.632H793.937V393.912C794.337 393.128 795.249 392.456 796.481 392.456C797.569 392.456 798.433 392.92 798.849 393.96C799.489 392.92 800.641 392.456 801.681 392.456C803.217 392.456 804.465 393.4 804.465 395.704V401H802.529V395.832C802.529 394.6 802.001 394.072 801.041 394.072C800.081 394.072 799.201 394.712 799.201 395.992V401H797.265V395.832C797.265 394.6 796.721 394.072 795.777 394.072C794.817 394.072 793.937 394.712 793.937 395.992V401H792.001ZM806.736 401V392.632H808.672V401H806.736ZM807.68 391.256C807.04 391.256 806.528 390.776 806.528 390.152C806.528 389.512 807.04 389.032 807.68 389.032C808.32 389.032 808.832 389.512 808.832 390.152C808.832 390.776 808.32 391.256 807.68 391.256ZM813.896 401.16C811.736 401.16 810.472 400.168 810.392 398.392H812.216C812.312 399.24 812.744 399.736 813.88 399.736C814.92 399.736 815.384 399.368 815.384 398.664C815.384 397.976 814.824 397.72 813.592 397.512C811.384 397.16 810.568 396.536 810.568 394.968C810.568 393.288 812.136 392.456 813.704 392.456C815.416 392.456 816.776 393.096 816.984 394.984H815.192C815.032 394.216 814.6 393.864 813.704 393.864C812.872 393.864 812.376 394.264 812.376 394.856C812.376 395.464 812.776 395.704 814.104 395.928C816.072 396.232 817.24 396.712 817.24 398.488C817.24 400.184 816.04 401.16 813.896 401.16ZM821.802 401.16C819.642 401.16 818.378 400.168 818.298 398.392H820.122C820.218 399.24 820.65 399.736 821.786 399.736C822.826 399.736 823.29 399.368 823.29 398.664C823.29 397.976 822.73 397.72 821.498 397.512C819.29 397.16 818.474 396.536 818.474 394.968C818.474 393.288 820.042 392.456 821.61 392.456C823.322 392.456 824.682 393.096 824.89 394.984H823.098C822.938 394.216 822.506 393.864 821.61 393.864C820.778 393.864 820.282 394.264 820.282 394.856C820.282 395.464 820.682 395.704 822.01 395.928C823.978 396.232 825.146 396.712 825.146 398.488C825.146 400.184 823.946 401.16 821.802 401.16ZM826.893 401V392.632H828.829V401H826.893ZM827.837 391.256C827.197 391.256 826.685 390.776 826.685 390.152C826.685 389.512 827.197 389.032 827.837 389.032C828.477 389.032 828.989 389.512 828.989 390.152C828.989 390.776 828.477 391.256 827.837 391.256ZM834.932 399.656C836.372 399.656 837.236 398.584 837.236 396.872V396.76C837.236 395.032 836.372 393.976 834.932 393.976C833.492 393.976 832.612 395.016 832.612 396.744V396.872C832.612 398.584 833.46 399.656 834.932 399.656ZM834.916 401.16C832.452 401.16 830.628 399.448 830.628 396.904V396.776C830.628 394.184 832.468 392.456 834.932 392.456C837.38 392.456 839.22 394.168 839.22 396.728V396.856C839.22 399.464 837.38 401.16 834.916 401.16ZM840.97 401V392.632H842.906V393.96C843.306 393.144 844.234 392.456 845.61 392.456C847.29 392.456 848.474 393.432 848.474 395.736V401H846.538V395.912C846.538 394.648 846.026 394.072 844.874 394.072C843.786 394.072 842.906 394.744 842.906 396.072V401H840.97Z" fill="black"/>
<path d="M1018.74 190.396C1012.41 190.396 1009.46 186.94 1009.2 182.332H1014.57C1014.89 184.492 1015.76 185.932 1018.71 185.932C1021.34 185.932 1022.74 184.096 1022.74 181.36C1022.74 178.588 1021.16 176.86 1018.56 176.86C1016.15 176.86 1014.68 177.724 1013.63 178.912H1010.39L1010.75 164.26H1027.06V168.688H1015.11L1015 175.132C1016.01 173.908 1017.81 172.756 1020.72 172.756C1025.4 172.756 1028.61 175.96 1028.61 181.432C1028.61 186.904 1024.68 190.396 1018.74 190.396ZM1032.93 194.428L1029.76 193.096L1032.93 184.204L1037.83 186.04L1032.93 194.428ZM1039.56 190V189.064L1049 179.092C1051.48 176.464 1053.06 174.196 1053.06 171.856C1053.06 169.732 1051.88 168.364 1049.64 168.364C1047.38 168.364 1045.94 169.696 1045.54 173.08H1040.25C1040.54 167.14 1044.14 163.9 1049.9 163.9C1055.58 163.9 1058.82 167.068 1058.82 171.712C1058.82 175.132 1056.84 177.94 1053.86 180.82L1049 185.572H1059V190H1039.56ZM1071.16 190.396C1064.83 190.396 1061.87 186.94 1061.62 182.332H1066.99C1067.31 184.492 1068.17 185.932 1071.13 185.932C1073.75 185.932 1075.16 184.096 1075.16 181.36C1075.16 178.588 1073.57 176.86 1070.98 176.86C1068.57 176.86 1067.09 177.724 1066.05 178.912H1062.81L1063.17 164.26H1079.48V168.688H1067.53L1067.42 175.132C1068.43 173.908 1070.23 172.756 1073.14 172.756C1077.82 172.756 1081.03 175.96 1081.03 181.432C1081.03 186.904 1077.1 190.396 1071.16 190.396ZM1085.35 194.428L1082.18 193.096L1085.35 184.204L1090.25 186.04L1085.35 194.428ZM1103.24 185.824C1106.88 185.824 1108.54 183.052 1108.54 177.652V176.5C1108.54 171.316 1106.74 168.4 1103.17 168.4C1099.57 168.4 1097.74 171.172 1097.74 176.5V177.724C1097.74 183.124 1099.64 185.824 1103.24 185.824ZM1103.1 190.396C1096.26 190.396 1091.9 185.644 1091.9 177.76V176.536C1091.9 168.616 1096.51 163.9 1103.14 163.9C1109.76 163.9 1114.33 168.436 1114.33 176.428V177.616C1114.33 185.5 1110.05 190.396 1103.1 190.396ZM1128.91 185.824C1132.54 185.824 1134.2 183.052 1134.2 177.652V176.5C1134.2 171.316 1132.4 168.4 1128.84 168.4C1125.24 168.4 1123.4 171.172 1123.4 176.5V177.724C1123.4 183.124 1125.31 185.824 1128.91 185.824ZM1128.76 190.396C1121.92 190.396 1117.57 185.644 1117.57 177.76V176.536C1117.57 168.616 1122.18 163.9 1128.8 163.9C1135.42 163.9 1140 168.436 1140 176.428V177.616C1140 185.5 1135.71 190.396 1128.76 190.396ZM1154.57 185.824C1158.21 185.824 1159.86 183.052 1159.86 177.652V176.5C1159.86 171.316 1158.06 168.4 1154.5 168.4C1150.9 168.4 1149.06 171.172 1149.06 176.5V177.724C1149.06 183.124 1150.97 185.824 1154.57 185.824ZM1154.43 190.396C1147.59 190.396 1143.23 185.644 1143.23 177.76V176.536C1143.23 168.616 1147.84 163.9 1154.46 163.9C1161.09 163.9 1165.66 168.436 1165.66 176.428V177.616C1165.66 185.5 1161.38 190.396 1154.43 190.396ZM1177.56 190V162.64H1182.78V179.128L1188.83 171.172H1194.37L1187.53 179.74L1194.91 190H1189.01L1182.78 181.108V190H1177.56ZM1202.24 190L1195.98 164.26H1201.88L1205.92 182.044L1210.31 164.26H1215.28L1219.85 182.152L1224.02 164.26H1229.42L1223.16 190H1217.22L1212.58 172.216L1207.86 190H1202.24ZM1232.47 190V162.64H1237.69V174.16C1238.63 172.288 1240.68 170.74 1243.81 170.74C1247.52 170.74 1250.15 172.972 1250.15 178.012V190H1244.93V178.768C1244.93 176.212 1243.92 174.988 1241.62 174.988C1239.39 174.988 1237.69 176.356 1237.69 179.128V190H1232.47Z" fill="#9AB856"/>
<path d="M1013.18 216.656C1014.62 216.656 1015.48 215.584 1015.48 213.872V213.76C1015.48 212.032 1014.62 210.976 1013.18 210.976C1011.74 210.976 1010.86 212.016 1010.86 213.744V213.872C1010.86 215.584 1011.71 216.656 1013.18 216.656ZM1013.16 218.16C1010.7 218.16 1008.88 216.448 1008.88 213.904V213.776C1008.88 211.184 1010.72 209.456 1013.18 209.456C1015.63 209.456 1017.47 211.168 1017.47 213.728V213.856C1017.47 216.464 1015.63 218.16 1013.16 218.16ZM1019.55 218V211.088H1018.42V209.632H1019.55V208.512C1019.55 206.672 1020.58 205.68 1022.37 205.68C1022.83 205.68 1023.12 205.728 1023.47 205.84V207.344C1023.25 207.264 1022.95 207.2 1022.59 207.2C1021.81 207.2 1021.49 207.712 1021.49 208.432V209.632H1023.39V211.088H1021.49V218H1019.55ZM1032.51 218.16C1030.04 218.16 1028.27 216.544 1028.27 213.904V213.776C1028.27 211.184 1030.04 209.456 1032.43 209.456C1034.51 209.456 1036.38 210.688 1036.38 213.68V214.24H1030.25C1030.31 215.824 1031.11 216.72 1032.55 216.72C1033.72 216.72 1034.33 216.256 1034.47 215.44H1036.35C1036.07 217.2 1034.65 218.16 1032.51 218.16ZM1030.28 212.944H1034.46C1034.36 211.504 1033.63 210.864 1032.43 210.864C1031.26 210.864 1030.47 211.648 1030.28 212.944ZM1038.11 218V209.632H1040.04V210.96C1040.44 210.144 1041.37 209.456 1042.75 209.456C1044.43 209.456 1045.61 210.432 1045.61 212.736V218H1043.68V212.912C1043.68 211.648 1043.16 211.072 1042.01 211.072C1040.92 211.072 1040.04 211.744 1040.04 213.072V218H1038.11ZM1051.52 218.16C1049.06 218.16 1047.28 216.544 1047.28 213.904V213.776C1047.28 211.184 1049.06 209.456 1051.44 209.456C1053.52 209.456 1055.39 210.688 1055.39 213.68V214.24H1049.27C1049.33 215.824 1050.13 216.72 1051.57 216.72C1052.74 216.72 1053.35 216.256 1053.49 215.44H1055.36C1055.09 217.2 1053.67 218.16 1051.52 218.16ZM1049.3 212.944H1053.47C1053.38 211.504 1052.64 210.864 1051.44 210.864C1050.27 210.864 1049.49 211.648 1049.3 212.944ZM1057.12 218V209.632H1059.06V211.2C1059.59 210.144 1060.37 209.52 1061.78 209.504V211.312C1060.08 211.328 1059.06 211.872 1059.06 213.648V218H1057.12ZM1066.89 221.072C1064.27 221.072 1063.09 219.888 1062.86 218.288H1064.81C1064.97 219.12 1065.61 219.6 1066.88 219.6C1068.38 219.6 1069.21 218.848 1069.21 217.344V216.112C1068.75 216.912 1067.71 217.664 1066.48 217.664C1064.38 217.664 1062.77 216.096 1062.77 213.68V213.568C1062.77 211.216 1064.37 209.456 1066.53 209.456C1067.9 209.456 1068.73 210.08 1069.21 210.912V209.632H1071.15V217.376C1071.13 219.84 1069.49 221.072 1066.89 221.072ZM1066.96 216.176C1068.3 216.176 1069.28 215.216 1069.28 213.616V213.504C1069.28 211.92 1068.41 210.976 1067.02 210.976C1065.58 210.976 1064.75 212.016 1064.75 213.536V213.664C1064.75 215.216 1065.71 216.176 1066.96 216.176ZM1074.38 220.864L1075.9 217.152L1072.59 209.632H1074.68L1076.91 215.024L1078.96 209.632H1080.84L1076.28 220.864H1074.38ZM1088.97 218.16C1086.81 218.16 1085.55 217.168 1085.47 215.392H1087.29C1087.39 216.24 1087.82 216.736 1088.96 216.736C1090 216.736 1090.46 216.368 1090.46 215.664C1090.46 214.976 1089.9 214.72 1088.67 214.512C1086.46 214.16 1085.64 213.536 1085.64 211.968C1085.64 210.288 1087.21 209.456 1088.78 209.456C1090.49 209.456 1091.85 210.096 1092.06 211.984H1090.27C1090.11 211.216 1089.68 210.864 1088.78 210.864C1087.95 210.864 1087.45 211.264 1087.45 211.856C1087.45 212.464 1087.85 212.704 1089.18 212.928C1091.15 213.232 1092.32 213.712 1092.32 215.488C1092.32 217.184 1091.12 218.16 1088.97 218.16ZM1096.21 218.16C1094.67 218.16 1093.41 217.424 1093.41 215.68C1093.41 213.728 1095.29 213.024 1097.69 213.024H1098.73V212.592C1098.73 211.472 1098.35 210.912 1097.21 210.912C1096.21 210.912 1095.71 211.392 1095.61 212.224H1093.74C1093.9 210.272 1095.45 209.456 1097.33 209.456C1099.2 209.456 1100.67 210.224 1100.67 212.512V218H1098.77V216.976C1098.22 217.696 1097.49 218.16 1096.21 218.16ZM1096.67 216.768C1097.85 216.768 1098.73 216.144 1098.73 215.072V214.24H1097.74C1096.27 214.24 1095.33 214.576 1095.33 215.6C1095.33 216.304 1095.71 216.768 1096.67 216.768ZM1104.85 218L1101.79 209.632H1103.87L1106.06 216.016L1108.22 209.632H1110.13L1107.1 218H1104.85ZM1114.93 218.16C1112.46 218.16 1110.69 216.544 1110.69 213.904V213.776C1110.69 211.184 1112.46 209.456 1114.85 209.456C1116.93 209.456 1118.8 210.688 1118.8 213.68V214.24H1112.67C1112.74 215.824 1113.54 216.72 1114.98 216.72C1116.14 216.72 1116.75 216.256 1116.9 215.44H1118.77C1118.5 217.2 1117.07 218.16 1114.93 218.16ZM1112.7 212.944H1116.88C1116.78 211.504 1116.05 210.864 1114.85 210.864C1113.68 210.864 1112.9 211.648 1112.7 212.944ZM1123.67 218.16C1121.57 218.16 1119.99 216.672 1119.99 213.952V213.824C1119.99 211.152 1121.57 209.456 1123.75 209.456C1125.11 209.456 1125.95 210.08 1126.42 210.912V205.76H1128.35V218H1126.42V216.592C1125.97 217.424 1124.9 218.16 1123.67 218.16ZM1124.15 216.624C1125.49 216.624 1126.48 215.728 1126.48 213.856V213.728C1126.48 211.888 1125.63 210.976 1124.23 210.976C1122.8 210.976 1121.97 211.968 1121.97 213.776V213.904C1121.97 215.744 1122.9 216.624 1124.15 216.624Z" fill="black"/>
<path d="M1064.62 82C1070.75 78.2736 1077.12 74.8096 1083.76 71.6342C1084.33 71.3587 1084.91 71.0831 1085.5 70.8076C1131.85 49.0788 1185.87 48.9214 1236.49 61.2816" stroke="#267C46" stroke-width="6" stroke-miterlimit="10" stroke-linecap="square"/>
<path d="M802.434 263.164C835.32 265.515 867.703 263.444 897.615 250.004C906.353 246.076 914.52 241.319 921.847 235.855C946.987 217.084 961.372 191.459 978.496 168.145C995.435 145.098 1013.97 122.519 1037.03 103" stroke="#267C46" stroke-width="6" stroke-miterlimit="10" stroke-linecap="square"/>
<path d="M360.847 366C459.836 328.146 554.676 235.848 685.519 248.113C711.894 250.591 739.55 255.799 767.307 259.642" stroke="#267C46" stroke-width="6" stroke-miterlimit="10" stroke-linecap="square"/>
<path d="M125 303C201.091 378 265.026 390.953 325.721 377.147" stroke="#267C46" stroke-width="6" stroke-miterlimit="10" stroke-linecap="square"/>
<path d="M344.341 382C349.082 382 352.926 378.194 352.926 373.5C352.926 368.806 349.082 365 344.341 365C339.6 365 335.757 368.806 335.757 373.5C335.757 378.194 339.6 382 344.341 382Z" fill="#DDE2E7"/>
<path d="M783.419 272C788.16 272 792.003 268.194 792.003 263.5C792.003 258.806 788.16 255 783.419 255C778.678 255 774.834 258.806 774.834 263.5C774.834 268.194 778.678 272 783.419 272Z" fill="#DDE2E7"/>
<path d="M1051.88 102C1056.62 102 1060.47 98.1944 1060.47 93.5C1060.47 88.8056 1056.62 85 1051.88 85C1047.14 85 1043.3 88.8056 1043.3 93.5C1043.3 98.1944 1047.14 102 1051.88 102Z" fill="#DDE2E7"/>
<path d="M434.074 507V498.4L466.474 492.8V400.6H435.074V391.6L488.874 383.6V493L516.874 498.4V507H434.074Z" fill="#F3F3F3"/>
<path d="M272.875 457.396C265.099 457.396 262.291 452.14 262.291 445.12V444.472C262.291 435.76 267.007 430.9 273.307 430.9C278.419 430.9 281.659 433.312 282.235 438.028H276.835C276.475 436.336 275.611 435.292 273.379 435.292C270.175 435.292 268.195 438.1 268.051 443.392C269.239 441.484 271.183 440.188 274.279 440.188C279.139 440.188 282.775 443.356 282.775 448.54C282.775 453.832 278.995 457.396 272.875 457.396ZM272.803 453.184C275.359 453.184 277.051 451.312 277.051 448.612C277.051 445.912 275.431 444.04 272.803 444.04C270.211 444.04 268.411 445.876 268.411 448.432C268.411 451.384 270.211 453.184 272.803 453.184ZM288.568 457.324C286.768 457.324 285.364 455.92 285.364 454.156C285.364 452.428 286.768 451.024 288.568 451.024C290.404 451.024 291.808 452.428 291.808 454.156C291.808 455.92 290.404 457.324 288.568 457.324ZM294.115 457V456.064L303.547 446.092C306.031 443.464 307.615 441.196 307.615 438.856C307.615 436.732 306.427 435.364 304.195 435.364C301.927 435.364 300.487 436.696 300.091 440.08H294.799C295.087 434.14 298.687 430.9 304.447 430.9C310.135 430.9 313.375 434.068 313.375 438.712C313.375 442.132 311.395 444.94 308.407 447.82L303.547 452.572H313.555V457H294.115ZM325.715 457.396C319.379 457.396 316.427 453.94 316.175 449.332H321.539C321.863 451.492 322.727 452.932 325.679 452.932C328.307 452.932 329.711 451.096 329.711 448.36C329.711 445.588 328.127 443.86 325.535 443.86C323.123 443.86 321.647 444.724 320.603 445.912H317.363L317.723 431.26H334.031V435.688H322.079L321.971 442.132C322.979 440.908 324.779 439.756 327.695 439.756C332.375 439.756 335.579 442.96 335.579 448.432C335.579 453.904 331.655 457.396 325.715 457.396ZM354.332 457.36C350.372 457.36 348.248 455.344 348.248 451.42V441.88H345.836V438.172H348.248V434.104H353.432V438.172H357.392V441.88H353.432V450.952C353.432 452.464 354.188 453.184 355.52 453.184C356.312 453.184 356.888 453.076 357.5 452.824V456.856C356.78 457.108 355.736 457.36 354.332 457.36ZM369.81 453.436C372.726 453.436 374.418 451.276 374.418 447.712V447.46C374.418 443.86 372.726 441.7 369.81 441.7C366.93 441.7 365.202 443.788 365.202 447.388V447.676C365.202 451.276 366.858 453.436 369.81 453.436ZM369.774 457.396C364.158 457.396 359.874 453.652 359.874 447.784V447.496C359.874 441.592 364.158 437.74 369.81 437.74C375.462 437.74 379.71 441.52 379.71 447.388V447.676C379.71 453.616 375.426 457.396 369.774 457.396ZM383.21 457V438.172H388.43V441.16C389.366 439.288 391.418 437.74 394.55 437.74C398.258 437.74 400.886 439.972 400.886 445.012V457H395.666V445.768C395.666 443.212 394.658 441.988 392.354 441.988C390.122 441.988 388.43 443.356 388.43 446.128V457H383.21ZM412.198 457.396C407.122 457.396 404.17 455.164 403.99 451.096H408.85C409.066 452.788 409.894 453.76 412.162 453.76C414.178 453.76 415.114 453.004 415.114 451.708C415.114 450.412 413.998 449.872 411.298 449.476C406.294 448.72 404.35 447.28 404.35 443.608C404.35 439.684 407.95 437.74 411.802 437.74C415.978 437.74 419.11 439.252 419.578 443.572H414.79C414.502 442.024 413.638 441.304 411.838 441.304C410.146 441.304 409.174 442.096 409.174 443.248C409.174 444.436 410.074 444.904 412.81 445.3C417.526 445.984 420.118 447.172 420.118 451.204C420.118 455.272 417.166 457.396 412.198 457.396Z" fill="#9AB856"/>
<path d="M265.567 483.855C267.007 483.855 267.871 482.783 267.871 481.071V480.959C267.871 479.231 267.007 478.175 265.567 478.175C264.127 478.175 263.247 479.215 263.247 480.943V481.071C263.247 482.783 264.095 483.855 265.567 483.855ZM265.551 485.359C263.087 485.359 261.263 483.647 261.263 481.103V480.975C261.263 478.383 263.103 476.655 265.567 476.655C268.015 476.655 269.855 478.367 269.855 480.927V481.055C269.855 483.663 268.015 485.359 265.551 485.359ZM271.94 485.199V478.287H270.804V476.831H271.94V475.711C271.94 473.871 272.964 472.879 274.756 472.879C275.22 472.879 275.508 472.927 275.86 473.039V474.543C275.636 474.463 275.332 474.399 274.98 474.399C274.196 474.399 273.876 474.911 273.876 475.631V476.831H275.78V478.287H273.876V485.199H271.94ZM284.894 485.359C282.43 485.359 280.654 483.743 280.654 481.103V480.975C280.654 478.383 282.43 476.655 284.814 476.655C286.894 476.655 288.766 477.887 288.766 480.879V481.439H282.638C282.702 483.023 283.502 483.919 284.942 483.919C286.11 483.919 286.718 483.455 286.862 482.639H288.734C288.462 484.399 287.038 485.359 284.894 485.359ZM282.67 480.143H286.846C286.75 478.703 286.014 478.063 284.814 478.063C283.646 478.063 282.862 478.847 282.67 480.143ZM290.239 481.535V479.935H294.079V481.535H290.239ZM297.551 485.199L294.991 476.831H297.055L298.719 482.879L300.495 476.831H302.111L303.743 482.879L305.487 476.831H307.375L304.751 485.199H302.783L301.231 479.567L299.535 485.199H297.551ZM310.812 485.359C309.276 485.359 308.012 484.623 308.012 482.879C308.012 480.927 309.9 480.223 312.3 480.223H313.34V479.791C313.34 478.671 312.956 478.111 311.82 478.111C310.812 478.111 310.316 478.591 310.22 479.423H308.348C308.508 477.471 310.06 476.655 311.932 476.655C313.804 476.655 315.276 477.423 315.276 479.711V485.199H313.372V484.175C312.828 484.895 312.092 485.359 310.812 485.359ZM311.276 483.967C312.46 483.967 313.34 483.343 313.34 482.271V481.439H312.348C310.876 481.439 309.932 481.775 309.932 482.799C309.932 483.503 310.316 483.967 311.276 483.967ZM320.359 485.359C318.199 485.359 316.935 484.367 316.855 482.591H318.679C318.775 483.439 319.207 483.935 320.343 483.935C321.383 483.935 321.847 483.567 321.847 482.863C321.847 482.175 321.287 481.919 320.055 481.711C317.847 481.359 317.031 480.735 317.031 479.167C317.031 477.487 318.599 476.655 320.167 476.655C321.879 476.655 323.239 477.295 323.447 479.183H321.655C321.495 478.415 321.063 478.063 320.167 478.063C319.335 478.063 318.839 478.463 318.839 479.055C318.839 479.663 319.239 479.903 320.567 480.127C322.535 480.431 323.703 480.911 323.703 482.687C323.703 484.383 322.503 485.359 320.359 485.359ZM328.249 485.343C326.585 485.343 325.721 484.447 325.721 482.863V478.287H324.601V476.831H325.721V474.991H327.657V476.831H329.497V478.287H327.657V482.687C327.657 483.423 328.009 483.759 328.617 483.759C329.001 483.759 329.289 483.711 329.561 483.599V485.135C329.257 485.247 328.841 485.343 328.249 485.343ZM334.988 485.359C332.524 485.359 330.748 483.743 330.748 481.103V480.975C330.748 478.383 332.524 476.655 334.908 476.655C336.988 476.655 338.86 477.887 338.86 480.879V481.439H332.732C332.796 483.023 333.596 483.919 335.036 483.919C336.204 483.919 336.812 483.455 336.956 482.639H338.828C338.556 484.399 337.132 485.359 334.988 485.359ZM332.764 480.143H336.94C336.844 478.703 336.108 478.063 334.908 478.063C333.74 478.063 332.956 478.847 332.764 480.143ZM347.265 485.359C345.105 485.359 343.841 484.367 343.761 482.591H345.585C345.681 483.439 346.113 483.935 347.249 483.935C348.289 483.935 348.753 483.567 348.753 482.863C348.753 482.175 348.193 481.919 346.961 481.711C344.753 481.359 343.937 480.735 343.937 479.167C343.937 477.487 345.505 476.655 347.073 476.655C348.785 476.655 350.145 477.295 350.353 479.183H348.561C348.401 478.415 347.969 478.063 347.073 478.063C346.241 478.063 345.745 478.463 345.745 479.055C345.745 479.663 346.145 479.903 347.473 480.127C349.441 480.431 350.609 480.911 350.609 482.687C350.609 484.383 349.409 485.359 347.265 485.359ZM354.5 485.359C352.964 485.359 351.7 484.623 351.7 482.879C351.7 480.927 353.588 480.223 355.988 480.223H357.028V479.791C357.028 478.671 356.644 478.111 355.508 478.111C354.5 478.111 354.004 478.591 353.908 479.423H352.036C352.196 477.471 353.748 476.655 355.62 476.655C357.492 476.655 358.964 477.423 358.964 479.711V485.199H357.06V484.175C356.516 484.895 355.78 485.359 354.5 485.359ZM354.964 483.967C356.148 483.967 357.028 483.343 357.028 482.271V481.439H356.036C354.564 481.439 353.62 481.775 353.62 482.799C353.62 483.503 354.004 483.967 354.964 483.967ZM363.14 485.199L360.084 476.831H362.164L364.356 483.215L366.516 476.831H368.42L365.396 485.199H363.14ZM373.222 485.359C370.758 485.359 368.982 483.743 368.982 481.103V480.975C368.982 478.383 370.758 476.655 373.142 476.655C375.222 476.655 377.094 477.887 377.094 480.879V481.439H370.966C371.03 483.023 371.83 483.919 373.27 483.919C374.438 483.919 375.046 483.455 375.19 482.639H377.062C376.79 484.399 375.366 485.359 373.222 485.359ZM370.998 480.143H375.174C375.078 478.703 374.342 478.063 373.142 478.063C371.974 478.063 371.19 478.847 370.998 480.143ZM381.959 485.359C379.863 485.359 378.279 483.871 378.279 481.151V481.023C378.279 478.351 379.863 476.655 382.039 476.655C383.399 476.655 384.247 477.279 384.711 478.111V472.959H386.647V485.199H384.711V483.791C384.263 484.623 383.191 485.359 381.959 485.359ZM382.439 483.823C383.783 483.823 384.775 482.927 384.775 481.055V480.927C384.775 479.087 383.927 478.175 382.519 478.175C381.095 478.175 380.263 479.167 380.263 480.975V481.103C380.263 482.943 381.191 483.823 382.439 483.823ZM262.159 503.199V496.287H261.023V494.831H262.159V493.711C262.159 491.871 263.183 490.879 264.975 490.879C265.439 490.879 265.727 490.927 266.079 491.039V492.543C265.855 492.463 265.551 492.399 265.199 492.399C264.415 492.399 264.095 492.911 264.095 493.631V494.831H265.999V496.287H264.095V503.199H262.159ZM267.62 503.199V494.831H269.556V496.399C270.084 495.343 270.868 494.719 272.276 494.703V496.511C270.58 496.527 269.556 497.071 269.556 498.847V503.199H267.62ZM277.567 501.855C279.007 501.855 279.871 500.783 279.871 499.071V498.959C279.871 497.231 279.007 496.175 277.567 496.175C276.127 496.175 275.247 497.215 275.247 498.943V499.071C275.247 500.783 276.095 501.855 277.567 501.855ZM277.551 503.359C275.087 503.359 273.263 501.647 273.263 499.103V498.975C273.263 496.383 275.103 494.655 277.567 494.655C280.015 494.655 281.855 496.367 281.855 498.927V499.055C281.855 501.663 280.015 503.359 277.551 503.359ZM283.604 503.199V494.831H285.54V496.111C285.94 495.327 286.852 494.655 288.084 494.655C289.172 494.655 290.036 495.119 290.452 496.159C291.092 495.119 292.244 494.655 293.284 494.655C294.82 494.655 296.068 495.599 296.068 497.903V503.199H294.132V498.031C294.132 496.799 293.604 496.271 292.644 496.271C291.684 496.271 290.804 496.911 290.804 498.191V503.199H288.868V498.031C288.868 496.799 288.324 496.271 287.38 496.271C286.42 496.271 285.54 496.911 285.54 498.191V503.199H283.604ZM305.784 503.359C303.32 503.359 301.544 501.743 301.544 499.103V498.975C301.544 496.383 303.32 494.655 305.704 494.655C307.784 494.655 309.656 495.887 309.656 498.879V499.439H303.528C303.592 501.023 304.392 501.919 305.832 501.919C307 501.919 307.608 501.455 307.752 500.639H309.624C309.352 502.399 307.928 503.359 305.784 503.359ZM303.56 498.143H307.736C307.64 496.703 306.904 496.063 305.704 496.063C304.536 496.063 303.752 496.847 303.56 498.143ZM311.386 503.199V494.831H313.322V496.159C313.722 495.343 314.65 494.655 316.026 494.655C317.706 494.655 318.89 495.631 318.89 497.935V503.199H316.954V498.111C316.954 496.847 316.442 496.271 315.29 496.271C314.202 496.271 313.322 496.943 313.322 498.271V503.199H311.386ZM324.256 503.359C322.16 503.359 320.576 501.871 320.576 499.151V499.023C320.576 496.351 322.16 494.655 324.336 494.655C325.696 494.655 326.544 495.279 327.008 496.111V490.959H328.944V503.199H327.008V501.791C326.56 502.623 325.488 503.359 324.256 503.359ZM324.736 501.823C326.08 501.823 327.072 500.927 327.072 499.055V498.927C327.072 497.087 326.224 496.175 324.816 496.175C323.392 496.175 322.56 497.167 322.56 498.975V499.103C322.56 500.943 323.488 501.823 324.736 501.823ZM331.293 503.199V494.831H333.229V503.199H331.293ZM332.237 493.455C331.597 493.455 331.085 492.975 331.085 492.351C331.085 491.711 331.597 491.231 332.237 491.231C332.877 491.231 333.389 491.711 333.389 492.351C333.389 492.975 332.877 493.455 332.237 493.455ZM335.589 503.199V494.831H337.525V496.159C337.925 495.343 338.853 494.655 340.229 494.655C341.909 494.655 343.093 495.631 343.093 497.935V503.199H341.157V498.111C341.157 496.847 340.645 496.271 339.493 496.271C338.405 496.271 337.525 496.943 337.525 498.271V503.199H335.589ZM348.891 506.271C346.267 506.271 345.083 505.087 344.859 503.487H346.811C346.971 504.319 347.611 504.799 348.875 504.799C350.379 504.799 351.211 504.047 351.211 502.543V501.311C350.747 502.111 349.707 502.863 348.475 502.863C346.379 502.863 344.763 501.295 344.763 498.879V498.767C344.763 496.415 346.363 494.655 348.523 494.655C349.899 494.655 350.731 495.279 351.211 496.111V494.831H353.147V502.575C353.131 505.039 351.483 506.271 348.891 506.271ZM348.955 501.375C350.299 501.375 351.275 500.415 351.275 498.815V498.703C351.275 497.119 350.411 496.175 349.019 496.175C347.579 496.175 346.747 497.215 346.747 498.735V498.863C346.747 500.415 347.707 501.375 348.955 501.375ZM362.061 503.359C360.413 503.359 359.181 502.415 359.181 500.191V494.831H361.117V499.967C361.117 501.231 361.645 501.807 362.765 501.807C363.805 501.807 364.717 501.135 364.717 499.807V494.831H366.653V503.199H364.717V501.887C364.301 502.703 363.421 503.359 362.061 503.359ZM368.948 506.063V494.831H370.884V496.175C371.348 495.375 372.388 494.655 373.62 494.655C375.716 494.655 377.332 496.207 377.332 498.911V499.039C377.332 501.727 375.78 503.359 373.62 503.359C372.292 503.359 371.332 502.703 370.884 501.887V506.063H368.948ZM373.14 501.823C374.564 501.823 375.348 500.863 375.348 499.071V498.943C375.348 497.087 374.388 496.175 373.124 496.175C371.78 496.175 370.82 497.087 370.82 498.943V499.071C370.82 500.943 371.732 501.823 373.14 501.823ZM382.934 503.199V494.831H384.87V503.199H382.934ZM383.878 493.455C383.238 493.455 382.726 492.975 382.726 492.351C382.726 491.711 383.238 491.231 383.878 491.231C384.518 491.231 385.03 491.711 385.03 492.351C385.03 492.975 384.518 493.455 383.878 493.455ZM387.229 503.199V494.831H389.165V496.159C389.565 495.343 390.493 494.655 391.869 494.655C393.549 494.655 394.733 495.631 394.733 497.935V503.199H392.797V498.111C392.797 496.847 392.285 496.271 391.133 496.271C390.045 496.271 389.165 496.943 389.165 498.271V503.199H387.229ZM261.871 521.199V508.959H263.807V521.199H261.871ZM268.359 521.359C266.823 521.359 265.559 520.623 265.559 518.879C265.559 516.927 267.447 516.223 269.847 516.223H270.887V515.791C270.887 514.671 270.503 514.111 269.367 514.111C268.359 514.111 267.863 514.591 267.767 515.423H265.895C266.055 513.471 267.607 512.655 269.479 512.655C271.351 512.655 272.823 513.423 272.823 515.711V521.199H270.919V520.175C270.375 520.895 269.639 521.359 268.359 521.359ZM268.823 519.967C270.007 519.967 270.887 519.343 270.887 518.271V517.439H269.895C268.423 517.439 267.479 517.775 267.479 518.799C267.479 519.503 267.863 519.967 268.823 519.967ZM275.042 521.199V512.831H276.978V514.159C277.378 513.343 278.306 512.655 279.682 512.655C281.362 512.655 282.546 513.631 282.546 515.935V521.199H280.61V516.111C280.61 514.847 280.098 514.271 278.946 514.271C277.858 514.271 276.978 514.943 276.978 516.271V521.199H275.042ZM287.912 521.359C285.816 521.359 284.232 519.871 284.232 517.151V517.023C284.232 514.351 285.816 512.655 287.992 512.655C289.352 512.655 290.2 513.279 290.664 514.111V508.959H292.6V521.199H290.664V519.791C290.216 520.623 289.144 521.359 287.912 521.359ZM288.392 519.823C289.736 519.823 290.728 518.927 290.728 517.055V516.927C290.728 515.087 289.88 514.175 288.472 514.175C287.048 514.175 286.216 515.167 286.216 516.975V517.103C286.216 518.943 287.144 519.823 288.392 519.823ZM295.237 521.199V514.287H294.101V512.831H295.237V511.711C295.237 509.871 296.245 508.879 298.021 508.879C298.501 508.879 298.773 508.927 299.077 509.023V510.527C298.853 510.431 298.613 510.399 298.261 510.399C297.493 510.399 297.173 510.911 297.173 511.631V512.831H299.077V514.287H297.173V521.199H295.237ZM300.527 521.199V512.831H302.463V521.199H300.527ZM301.471 511.455C300.831 511.455 300.319 510.975 300.319 510.351C300.319 509.711 300.831 509.231 301.471 509.231C302.111 509.231 302.623 509.711 302.623 510.351C302.623 510.975 302.111 511.455 301.471 511.455ZM304.871 521.199V508.959H306.807V521.199H304.871ZM309.215 521.199V508.959H311.151V521.199H309.215ZM316.375 521.359C314.215 521.359 312.951 520.367 312.871 518.591H314.695C314.791 519.439 315.223 519.935 316.359 519.935C317.399 519.935 317.863 519.567 317.863 518.863C317.863 518.175 317.303 517.919 316.071 517.711C313.863 517.359 313.047 516.735 313.047 515.167C313.047 513.487 314.615 512.655 316.183 512.655C317.895 512.655 319.255 513.295 319.463 515.183H317.671C317.511 514.415 317.079 514.063 316.183 514.063C315.351 514.063 314.855 514.463 314.855 515.055C314.855 515.663 315.255 515.903 316.583 516.127C318.551 516.431 319.719 516.911 319.719 518.687C319.719 520.383 318.519 521.359 316.375 521.359Z" fill="black"/>
</svg>
