<svg xmlns="http://www.w3.org/2000/svg" width="25" height="25" viewBox="0 0 25 25" fill="none">
  <path fill-rule="evenodd" clip-rule="evenodd" d="M5.90909 3.95455C5.65593 3.95455 5.41314 4.05511 5.23413 4.23413C5.06227 4.40598 4.96272 4.63661 4.95503 4.87876C5.20521 8.81852 6.88311 12.5326 9.67526 15.3247C12.4674 18.1169 16.1815 19.7948 20.1212 20.045C20.3634 20.0373 20.594 19.9377 20.7659 19.7659C20.9449 19.5869 21.0455 19.3441 21.0455 19.0909V15.5582L17.3328 14.0731L16.2342 15.9042C15.9056 16.4518 15.2118 16.6559 14.639 16.3734C12.0278 15.0856 9.91439 12.9722 8.62658 10.361C8.34407 9.78818 8.54815 9.09442 9.09585 8.7658L10.9269 7.66718L9.44182 3.95455H5.90909ZM3.4985 2.4985C4.13783 1.85917 5.00494 1.5 5.90909 1.5H10.2727C10.7746 1.5 11.2258 1.80553 11.4122 2.27148L13.594 7.72602C13.8178 8.28531 13.6025 8.92428 13.086 9.2342L11.3786 10.2586C12.2349 11.6159 13.3841 12.7651 14.7414 13.6214L15.7658 11.914C16.0757 11.3975 16.7147 11.1822 17.274 11.406L22.7285 13.5878C23.1945 13.7742 23.5 14.2254 23.5 14.7273V19.0909C23.5 19.9951 23.1408 20.8622 22.5015 21.5015C21.8622 22.1408 20.9951 22.5 20.0909 22.5C20.0661 22.5 20.0413 22.4992 20.0165 22.4977C15.4619 22.221 11.1661 20.2869 7.93964 17.0604C4.71314 13.8339 2.77904 9.53809 2.50226 4.98354C2.50075 4.95875 2.5 4.93392 2.5 4.90909C2.5 4.00494 2.85917 3.13783 3.4985 2.4985Z" fill="black"/>
</svg>