<svg xmlns="http://www.w3.org/2000/svg" width="36" height="36" viewBox="0 0 36 36" fill="none">
  <path d="M6.50937 29.4906C5.07187 28.0531 6.025 25.0328 5.29375 23.2641C4.53438 21.4375 1.75 19.9531 1.75 18C1.75 16.0469 4.53438 14.5625 5.29375 12.7359C6.025 10.9687 5.07187 7.94687 6.50937 6.50937C7.94687 5.07187 10.9687 6.025 12.7359 5.29375C14.5703 4.53438 16.0469 1.75 18 1.75C19.9531 1.75 21.4375 4.53438 23.2641 5.29375C25.0328 6.025 28.0531 5.07187 29.4906 6.50937C30.9281 7.94687 29.975 10.9672 30.7063 12.7359C31.4656 14.5703 34.25 16.0469 34.25 18C34.25 19.9531 31.4656 21.4375 30.7063 23.2641C29.975 25.0328 30.9281 28.0531 29.4906 29.4906C28.0531 30.9281 25.0328 29.975 23.2641 30.7063C21.4375 31.4656 19.9531 34.25 18 34.25C16.0469 34.25 14.5625 31.4656 12.7359 30.7063C10.9687 29.975 7.94687 30.9281 6.50937 29.4906Z" stroke="#101112" stroke-width="2" stroke-linecap="round" stroke-linejoin="round"/>
  <path d="M11.75 19.25L15.5 23L24.25 14.25" stroke="#101112" stroke-width="2" stroke-linecap="round" stroke-linejoin="round"/>
</svg>