<svg xmlns="http://www.w3.org/2000/svg" width="24" height="26" viewBox="0 0 24 26" fill="none">
  <path fill-rule="evenodd" clip-rule="evenodd" d="M20.5031 4.44651C18.2473 2.18781 15.2471 0.943285 12.0504 0.942139C5.4634 0.942139 0.102564 6.3024 0.100272 12.8911C0.099126 14.9974 0.649764 17.0533 1.69546 18.8651L0 25.0579L6.33491 23.3962C8.0802 24.3485 10.0455 24.8499 12.0453 24.8505H12.0504C18.6363 24.8505 23.9977 19.4896 24 12.9009C24.0011 9.70767 22.7595 6.70578 20.5031 4.44708V4.44651ZM12.0504 22.8324H12.0464C10.2644 22.8319 8.51627 22.3528 6.991 21.4481L6.62828 21.2327L2.86893 22.2187L3.87223 18.5533L3.63615 18.1775C2.64203 16.5961 2.1166 14.7682 2.11775 12.8917C2.12004 7.41571 6.57556 2.96019 12.0545 2.96019C14.7073 2.96133 17.201 3.99557 19.0763 5.87324C20.9517 7.75034 21.9837 10.2463 21.9825 12.8997C21.9802 18.3763 17.5247 22.8319 12.0504 22.8319V22.8324ZM17.4983 15.3939C17.1998 15.2444 15.7319 14.5224 15.4579 14.4227C15.1841 14.323 14.9853 14.2732 14.7864 14.5723C14.5876 14.8714 14.0152 15.5441 13.841 15.7429C13.6668 15.9423 13.4926 15.9669 13.1941 15.8173C12.8956 15.6678 11.9335 15.3527 10.7927 14.3356C9.9052 13.5437 9.3058 12.5663 9.13167 12.2671C8.95747 11.9681 9.11333 11.8065 9.26227 11.6581C9.39633 11.524 9.5608 11.3091 9.71033 11.1349C9.85993 10.9607 9.9092 10.8359 10.0089 10.637C10.1086 10.4376 10.0587 10.2635 9.98427 10.1139C9.90973 9.96434 9.31273 8.4946 9.06347 7.897C8.82107 7.31486 8.57473 7.39394 8.39193 7.3842C8.21773 7.3756 8.01893 7.37388 7.81953 7.37388C7.62013 7.37388 7.29693 7.44837 7.02307 7.74747C6.7492 8.04654 5.97794 8.76907 5.97794 10.2382C5.97794 11.7073 7.04773 13.1278 7.19727 13.3272C7.3468 13.5266 9.30293 16.5422 12.2979 17.836C13.0102 18.1437 13.5665 18.3276 14.0003 18.4651C14.7154 18.6926 15.3663 18.6605 15.8808 18.5837C16.4544 18.4978 17.6473 17.8612 17.896 17.1639C18.1447 16.4665 18.1447 15.8683 18.0702 15.744C17.9957 15.6197 17.7963 15.5446 17.4978 15.3951L17.4983 15.3939Z" fill="#25D366"/>
</svg>