<svg xmlns="http://www.w3.org/2000/svg" width="25" height="26" viewBox="0 0 25 26" fill="none">
  <g clip-path="url(#clip0_5476_35391)">
    <path d="M12.4997 22.375L21.2262 13.5234C22.1421 12.6076 22.6566 11.3655 22.6566 10.0703C22.6566 8.77511 22.1421 7.53299 21.2262 6.61716C20.3104 5.70133 19.0683 5.18683 17.7731 5.18683C16.4779 5.18683 15.2358 5.70133 14.32 6.61716L12.4997 8.31247L10.6794 6.61716C9.76353 5.70133 8.5214 5.18683 7.22623 5.18683C5.93106 5.18683 4.68893 5.70133 3.7731 6.61716C2.85728 7.53299 2.34277 8.77511 2.34277 10.0703C2.34277 11.3655 2.85728 12.6076 3.7731 13.5234L12.4997 22.375Z" stroke="#101112" stroke-width="2" stroke-linecap="round" stroke-linejoin="round"/>
  </g>
  <defs>
    <clipPath id="clip0_5476_35391">
      <rect width="25" height="25" fill="white" transform="translate(0 0.5)"/>
    </clipPath>
  </defs>
</svg>