<svg width="1440" height="734" viewBox="0 0 1440 734" fill="none" xmlns="http://www.w3.org/2000/svg">
<rect width="1440" height="734" fill="white"/>
<path d="M126.554 108V106.278L130.166 105.354V84.9L126.512 83.976V82.254H138.734V83.976L135.08 84.9V105.354L138.734 106.278V108H126.554ZM141.392 108V106.362L144.836 105.312V90.612L141.392 90.192V88.512L148.154 86.958H149.75V88.638C150.254 88.386 150.912 88.134 151.724 87.882C152.536 87.63 153.39 87.42 154.286 87.252C155.21 87.056 156.078 86.958 156.89 86.958C157.758 86.958 158.598 87.098 159.41 87.378C160.25 87.63 160.908 88.106 161.384 88.806C161.972 88.554 162.7 88.288 163.568 88.008C164.436 87.728 165.36 87.49 166.34 87.294C167.348 87.07 168.286 86.958 169.154 86.958C170.134 86.958 171.016 87.098 171.8 87.378C172.612 87.658 173.256 88.134 173.732 88.806C174.208 89.45 174.446 90.304 174.446 91.368V105.312L177.932 106.362V108H166.802V106.362L169.532 105.312V92.586C169.532 91.578 169.308 90.906 168.86 90.57C168.44 90.206 167.586 90.024 166.298 90.024C165.43 90.024 164.618 90.08 163.862 90.192C163.134 90.304 162.532 90.444 162.056 90.612C162.056 90.752 162.056 90.906 162.056 91.074C162.084 91.214 162.098 91.368 162.098 91.536V105.312L164.828 106.362V108H154.454V106.362L157.184 105.312V92.586C157.184 91.55 156.96 90.864 156.512 90.528C156.092 90.192 155.196 90.024 153.824 90.024C153.04 90.024 152.284 90.08 151.556 90.192C150.856 90.304 150.254 90.444 149.75 90.612V105.312L152.48 106.362V108H141.392ZM179.28 115.056V113.25L182.724 112.326V90.528L178.944 90.192V88.512C180.008 88.232 181.212 87.98 182.556 87.756C183.928 87.532 185.328 87.35 186.756 87.21C188.184 87.042 189.542 86.958 190.83 86.958C192.874 86.958 194.568 87.21 195.912 87.714C197.284 88.19 198.376 88.904 199.188 89.856C200 90.78 200.574 91.914 200.91 93.258C201.274 94.574 201.456 96.072 201.456 97.752C201.456 99.768 201.092 101.546 200.364 103.086C199.664 104.626 198.614 105.83 197.214 106.698C195.814 107.566 194.092 108 192.048 108C191.46 108 190.858 107.944 190.242 107.832C189.654 107.72 189.136 107.58 188.688 107.412L189.234 105.438C189.402 105.466 189.626 105.508 189.906 105.564C190.214 105.592 190.466 105.606 190.662 105.606C191.866 105.606 192.832 105.396 193.56 104.976C194.288 104.556 194.834 103.982 195.198 103.254C195.59 102.526 195.842 101.686 195.954 100.734C196.066 99.754 196.122 98.704 196.122 97.584C196.122 96.66 196.066 95.722 195.954 94.77C195.842 93.818 195.618 92.95 195.282 92.166C194.946 91.382 194.428 90.738 193.728 90.234C193.028 89.73 192.09 89.478 190.914 89.478C190.382 89.478 189.836 89.52 189.276 89.604C188.716 89.688 188.17 89.814 187.638 89.982V112.2L192.048 113.166V115.056H179.28ZM209.445 108.42C208.409 108.42 207.527 108.196 206.799 107.748C206.099 107.3 205.553 106.684 205.161 105.9C204.797 105.116 204.615 104.234 204.615 103.254C204.615 102.526 204.755 101.756 205.035 100.944C205.343 100.132 205.875 99.39 206.631 98.718C207.415 98.018 208.535 97.528 209.991 97.248L215.913 96.114V92.964C215.913 91.872 215.689 91.074 215.241 90.57C214.821 90.066 214.037 89.814 212.889 89.814C212.329 89.814 211.755 89.87 211.167 89.982C210.607 90.066 210.089 90.192 209.613 90.36L208.689 93.888H206.463L205.749 88.512C207.009 88.036 208.339 87.658 209.739 87.378C211.167 87.098 212.637 86.958 214.149 86.958C215.521 86.958 216.697 87.098 217.677 87.378C218.685 87.658 219.455 88.162 219.987 88.89C220.547 89.618 220.827 90.64 220.827 91.956V104.892L224.061 105.9V107.496C223.137 107.748 222.339 107.93 221.667 108.042C221.023 108.154 220.365 108.21 219.693 108.21C218.881 108.21 218.111 108.028 217.383 107.664C216.655 107.272 216.193 106.698 215.997 105.942C214.961 106.698 213.925 107.3 212.889 107.748C211.853 108.196 210.705 108.42 209.445 108.42ZM212.007 105.312C212.679 105.312 213.379 105.172 214.107 104.892C214.835 104.612 215.437 104.318 215.913 104.01V98.34L212.721 99.012C211.517 99.264 210.677 99.712 210.201 100.356C209.753 101 209.529 101.77 209.529 102.666C209.529 103.618 209.753 104.304 210.201 104.724C210.677 105.116 211.279 105.312 212.007 105.312ZM235.461 108.42C233.193 108.42 231.359 107.93 229.959 106.95C228.559 105.97 227.551 104.682 226.935 103.086C226.319 101.462 226.011 99.684 226.011 97.752C226.011 95.736 226.319 93.916 226.935 92.292C227.551 90.668 228.545 89.38 229.917 88.428C231.317 87.448 233.165 86.958 235.461 86.958C236.861 86.958 238.107 87.07 239.199 87.294C240.319 87.49 241.453 87.812 242.601 88.26L241.803 93.888H239.703L238.779 90.066C238.303 89.898 237.827 89.772 237.351 89.688C236.903 89.576 236.413 89.52 235.881 89.52C234.621 89.52 233.655 89.884 232.983 90.612C232.339 91.312 231.891 92.278 231.639 93.51C231.415 94.714 231.303 96.1 231.303 97.668C231.303 99.124 231.387 100.356 231.555 101.364C231.751 102.372 232.045 103.184 232.437 103.8C232.829 104.416 233.333 104.864 233.949 105.144C234.565 105.424 235.321 105.564 236.217 105.564C237.085 105.564 238.037 105.494 239.073 105.354C240.137 105.186 241.243 104.934 242.391 104.598L242.685 106.278C241.733 106.894 240.641 107.412 239.409 107.832C238.177 108.224 236.861 108.42 235.461 108.42ZM250.762 108.378C249.754 108.378 248.984 108.224 248.452 107.916C247.948 107.58 247.598 107.16 247.402 106.656C247.234 106.124 247.15 105.592 247.15 105.06V90.066H244.126V88.26L247.57 86.874L249.796 82.674H252.022V87.336H257.524V90.276L252.022 90.066V104.808L256.936 105.732V107.496C256.348 107.664 255.662 107.818 254.878 107.958C254.094 108.07 253.324 108.168 252.568 108.252C251.84 108.336 251.238 108.378 250.762 108.378Z" fill="#267C46"/>
<path d="M279.628 108.378C276.688 108.378 274.294 107.776 272.446 106.572C270.598 105.34 269.24 103.716 268.372 101.7C267.532 99.656 267.112 97.416 267.112 94.98C267.112 92.544 267.532 90.318 268.372 88.302C269.212 86.286 270.542 84.676 272.362 83.472C274.21 82.268 276.632 81.666 279.628 81.666C282.624 81.666 285.032 82.268 286.852 83.472C288.672 84.676 289.988 86.286 290.8 88.302C291.612 90.318 292.018 92.544 292.018 94.98C292.018 97.416 291.598 99.656 290.758 101.7C289.946 103.716 288.63 105.34 286.81 106.572C284.99 107.776 282.596 108.378 279.628 108.378ZM279.796 105.774C281.308 105.774 282.526 105.424 283.45 104.724C284.374 104.024 285.074 103.128 285.55 102.036C286.026 100.944 286.334 99.782 286.474 98.55C286.642 97.29 286.726 96.1 286.726 94.98C286.726 93.888 286.628 92.726 286.432 91.494C286.264 90.234 285.914 89.058 285.382 87.966C284.878 86.874 284.136 85.992 283.156 85.32C282.204 84.62 280.944 84.27 279.376 84.27C277.892 84.27 276.688 84.62 275.764 85.32C274.84 85.992 274.14 86.874 273.664 87.966C273.188 89.058 272.852 90.234 272.656 91.494C272.488 92.726 272.404 93.888 272.404 94.98C272.404 96.128 272.502 97.332 272.698 98.592C272.894 99.852 273.244 101.028 273.748 102.12C274.28 103.212 275.022 104.094 275.974 104.766C276.954 105.438 278.228 105.774 279.796 105.774ZM294.711 108V106.152L298.155 105.312V90.066H294.753V88.302L298.155 86.958C298.155 84.914 298.519 83.178 299.247 81.75C300.003 80.322 301.067 79.23 302.439 78.474C303.811 77.718 305.435 77.34 307.311 77.34C307.787 77.34 308.319 77.396 308.907 77.508C309.495 77.592 310.027 77.704 310.503 77.844C311.007 77.984 311.357 78.138 311.553 78.306L310.839 83.934H308.529L307.857 80.784C307.605 80.7 307.339 80.63 307.059 80.574C306.779 80.518 306.513 80.49 306.261 80.49C305.337 80.49 304.637 80.728 304.161 81.204C303.713 81.652 303.419 82.296 303.279 83.136C303.139 83.948 303.069 84.9 303.069 85.992V87.336H309.369V90.36L303.111 89.982V105.186L307.983 106.026V108H294.711ZM318.384 108V106.278L322.038 105.354V84.9L318.342 83.976V82.254H337.368V88.176H335.268L334.344 84.9H326.994V94.224H331.992L332.748 91.452H334.764V99.348H332.748L331.908 96.45H326.994V105.27H335.1L336.192 101.406H338.292V108H318.384ZM348.076 108.42C346.48 108.42 345.15 107.916 344.086 106.908C343.05 105.9 342.266 104.584 341.734 102.96C341.23 101.336 340.978 99.6 340.978 97.752C340.978 94.42 341.776 91.788 343.372 89.856C344.968 87.924 347.208 86.958 350.092 86.958C350.904 86.958 351.646 87.042 352.318 87.21C353.018 87.35 353.578 87.504 353.998 87.672C354.446 87.84 354.698 87.952 354.754 88.008V81.078L351.268 80.616V78.978L358.03 77.34H359.668V104.892L363.07 105.9V107.496C362.174 107.748 361.348 107.93 360.592 108.042C359.864 108.154 359.164 108.21 358.492 108.21C357.708 108.21 356.952 108.028 356.224 107.664C355.496 107.272 355.048 106.726 354.88 106.026C353.928 106.726 352.892 107.3 351.772 107.748C350.68 108.196 349.448 108.42 348.076 108.42ZM350.47 105.354C351.338 105.354 352.164 105.186 352.948 104.85C353.76 104.514 354.362 104.178 354.754 103.842V90.654C354.278 90.29 353.69 90.01 352.99 89.814C352.318 89.59 351.646 89.478 350.974 89.478C349.406 89.478 348.23 90.22 347.446 91.704C346.662 93.188 346.27 95.176 346.27 97.668C346.27 99.936 346.592 101.784 347.236 103.212C347.908 104.64 348.986 105.354 350.47 105.354ZM364.845 108V106.152L368.289 105.312V90.654L364.845 90.192V88.554L371.607 86.958H373.203V105.312L376.605 106.152V108H364.845ZM370.515 84.018C369.591 84.018 368.821 83.724 368.205 83.136C367.617 82.548 367.323 81.806 367.323 80.91C367.323 80.014 367.617 79.272 368.205 78.684C368.821 78.096 369.591 77.802 370.515 77.802C371.439 77.802 372.195 78.096 372.783 78.684C373.399 79.272 373.707 80.014 373.707 80.91C373.707 81.806 373.399 82.548 372.783 83.136C372.195 83.724 371.439 84.018 370.515 84.018ZM378.588 108V106.152L382.032 105.312V90.066H378.63V88.302L382.032 86.958C382.032 84.914 382.396 83.178 383.124 81.75C383.88 80.322 384.944 79.23 386.316 78.474C387.688 77.718 389.312 77.34 391.188 77.34C391.664 77.34 392.196 77.396 392.784 77.508C393.372 77.592 393.904 77.704 394.38 77.844C394.884 77.984 395.234 78.138 395.43 78.306L394.716 83.934H392.406L391.734 80.784C391.482 80.7 391.216 80.63 390.936 80.574C390.656 80.518 390.39 80.49 390.138 80.49C389.214 80.49 388.514 80.728 388.038 81.204C387.59 81.652 387.296 82.296 387.156 83.136C387.016 83.948 386.946 84.9 386.946 85.992V87.336H393.246V90.36L386.988 89.982V105.186L391.86 106.026V108H378.588ZM397.578 115.056C396.99 115.056 396.318 114.958 395.562 114.762C394.806 114.594 394.022 114.314 393.21 113.922L393.504 112.2H395.898C396.906 112.2 397.76 111.976 398.46 111.528C399.188 111.08 399.804 110.464 400.308 109.68C400.812 108.896 401.274 108 401.694 106.992L394.554 89.898L392.328 88.89V87.336H401.904V88.89L399.804 89.898L404.172 101.448L407.994 89.982L405.18 89.268V87.336H413.958V89.184L411.27 89.982L405.306 106.572C404.354 109.204 403.29 111.276 402.114 112.788C400.966 114.3 399.454 115.056 397.578 115.056ZM126.134 164V162.152L129.578 161.312V146.654L126.134 146.192V144.554L132.896 142.958H134.492V161.312L137.894 162.152V164H126.134ZM131.804 140.018C130.88 140.018 130.11 139.724 129.494 139.136C128.906 138.548 128.612 137.806 128.612 136.91C128.612 136.014 128.906 135.272 129.494 134.684C130.11 134.096 130.88 133.802 131.804 133.802C132.728 133.802 133.484 134.096 134.072 134.684C134.688 135.272 134.996 136.014 134.996 136.91C134.996 137.806 134.688 138.548 134.072 139.136C133.484 139.724 132.728 140.018 131.804 140.018ZM139.751 164V162.362L143.195 161.312V146.612L139.751 146.192V144.512L146.513 142.958H148.109V144.638C148.529 144.442 149.159 144.218 149.999 143.966C150.839 143.686 151.749 143.448 152.729 143.252C153.709 143.056 154.647 142.958 155.543 142.958C156.495 142.958 157.363 143.098 158.147 143.378C158.959 143.658 159.617 144.12 160.121 144.764C160.625 145.408 160.877 146.276 160.877 147.368V161.312L164.363 162.362V164H153.107V162.362L155.963 161.312V148.586C155.963 147.522 155.739 146.836 155.291 146.528C154.843 146.192 153.947 146.024 152.603 146.024C151.707 146.024 150.881 146.08 150.125 146.192C149.397 146.304 148.725 146.444 148.109 146.612V161.312L150.965 162.362V164H139.751ZM173.25 164V162.152L176.694 161.312V137.078L173.25 136.616V134.978L180.012 133.34H181.608V161.312L185.052 162.152V164H173.25ZM192.464 164.42C191.428 164.42 190.546 164.196 189.818 163.748C189.118 163.3 188.572 162.684 188.18 161.9C187.816 161.116 187.634 160.234 187.634 159.254C187.634 158.526 187.774 157.756 188.054 156.944C188.362 156.132 188.894 155.39 189.65 154.718C190.434 154.018 191.554 153.528 193.01 153.248L198.932 152.114V148.964C198.932 147.872 198.708 147.074 198.26 146.57C197.84 146.066 197.056 145.814 195.908 145.814C195.348 145.814 194.774 145.87 194.186 145.982C193.626 146.066 193.108 146.192 192.632 146.36L191.708 149.888H189.482L188.768 144.512C190.028 144.036 191.358 143.658 192.758 143.378C194.186 143.098 195.656 142.958 197.168 142.958C198.54 142.958 199.716 143.098 200.696 143.378C201.704 143.658 202.474 144.162 203.006 144.89C203.566 145.618 203.846 146.64 203.846 147.956V160.892L207.08 161.9V163.496C206.156 163.748 205.358 163.93 204.686 164.042C204.042 164.154 203.384 164.21 202.712 164.21C201.9 164.21 201.13 164.028 200.402 163.664C199.674 163.272 199.212 162.698 199.016 161.942C197.98 162.698 196.944 163.3 195.908 163.748C194.872 164.196 193.724 164.42 192.464 164.42ZM195.026 161.312C195.698 161.312 196.398 161.172 197.126 160.892C197.854 160.612 198.456 160.318 198.932 160.01V154.34L195.74 155.012C194.536 155.264 193.696 155.712 193.22 156.356C192.772 157 192.548 157.77 192.548 158.666C192.548 159.618 192.772 160.304 193.22 160.724C193.696 161.116 194.298 161.312 195.026 161.312ZM216.213 164.42C215.233 164.42 214.113 164.322 212.853 164.126C211.593 163.958 210.473 163.706 209.493 163.37L209.997 157.868H212.055L212.937 161.354C213.329 161.466 213.777 161.578 214.281 161.69C214.813 161.802 215.443 161.858 216.171 161.858C217.515 161.858 218.551 161.62 219.279 161.144C220.035 160.64 220.413 159.884 220.413 158.876C220.413 158.232 220.217 157.728 219.825 157.364C219.433 157 218.719 156.65 217.683 156.314L213.777 154.97C212.405 154.466 211.369 153.78 210.669 152.912C209.969 152.016 209.619 150.826 209.619 149.342C209.619 147.41 210.263 145.87 211.551 144.722C212.839 143.546 214.827 142.958 217.515 142.958C218.523 142.958 219.573 143.07 220.665 143.294C221.757 143.49 222.793 143.798 223.773 144.218L223.185 149.216H221.211L220.329 146.15C219.965 145.982 219.531 145.842 219.027 145.73C218.551 145.59 218.019 145.52 217.431 145.52C216.283 145.52 215.373 145.744 214.701 146.192C214.057 146.612 213.735 147.228 213.735 148.04C213.735 148.74 213.903 149.3 214.239 149.72C214.575 150.14 215.177 150.49 216.045 150.77L220.245 152.156C221.309 152.492 222.149 152.912 222.765 153.416C223.409 153.892 223.871 154.494 224.151 155.222C224.459 155.95 224.613 156.846 224.613 157.91C224.613 159.87 223.885 161.452 222.429 162.656C221.001 163.832 218.929 164.42 216.213 164.42ZM233.577 164.378C232.569 164.378 231.799 164.224 231.267 163.916C230.763 163.58 230.413 163.16 230.217 162.656C230.049 162.124 229.965 161.592 229.965 161.06V146.066H226.941V144.26L230.385 142.874L232.611 138.674H234.837V143.336H240.339V146.276L234.837 146.066V160.808L239.751 161.732V163.496C239.163 163.664 238.477 163.818 237.693 163.958C236.909 164.07 236.139 164.168 235.383 164.252C234.655 164.336 234.053 164.378 233.577 164.378ZM251.186 164V162.194L257.99 161.018V141.656H251.396V139.766L262.694 138.086V161.06L268.574 162.194V164H251.186ZM282.119 171.056C281.531 171.056 280.859 170.958 280.103 170.762C279.347 170.594 278.563 170.314 277.751 169.922L278.045 168.2H280.439C281.447 168.2 282.301 167.976 283.001 167.528C283.729 167.08 284.345 166.464 284.849 165.68C285.353 164.896 285.815 164 286.235 162.992L279.095 145.898L276.869 144.89V143.336H286.445V144.89L284.345 145.898L288.713 157.448L292.535 145.982L289.721 145.268V143.336H298.499V145.184L295.811 145.982L289.847 162.572C288.895 165.204 287.831 167.276 286.655 168.788C285.507 170.3 283.995 171.056 282.119 171.056ZM308.437 164.42C306.617 164.42 305.063 164.154 303.775 163.622C302.515 163.09 301.507 162.348 300.751 161.396C299.995 160.416 299.449 159.282 299.113 157.994C298.777 156.706 298.609 155.292 298.609 153.752C298.609 151.792 298.833 150.126 299.281 148.754C299.757 147.382 300.415 146.276 301.255 145.436C302.123 144.568 303.131 143.938 304.279 143.546C305.427 143.154 306.673 142.958 308.017 142.958C310.873 142.958 312.959 143.602 314.275 144.89C315.619 146.178 316.291 148.194 316.291 150.938C316.291 151.134 316.277 151.386 316.249 151.694C316.249 152.002 316.235 152.31 316.207 152.618C316.207 152.926 316.179 153.22 316.123 153.5H303.901V154.634C303.901 156.314 304.125 157.672 304.573 158.708C305.049 159.716 305.721 160.458 306.589 160.934C307.457 161.382 308.507 161.606 309.739 161.606C310.579 161.606 311.531 161.522 312.595 161.354C313.659 161.158 314.709 160.92 315.745 160.64L316.039 162.278C315.059 162.922 313.967 163.44 312.763 163.832C311.559 164.224 310.117 164.42 308.437 164.42ZM303.985 151.484L311.209 151.064V150.14C311.209 149.216 311.125 148.418 310.957 147.746C310.817 147.046 310.523 146.514 310.075 146.15C309.655 145.758 309.039 145.562 308.227 145.562C307.191 145.562 306.365 145.786 305.749 146.234C305.161 146.654 304.741 147.312 304.489 148.208C304.237 149.104 304.069 150.196 303.985 151.484ZM324.124 164.42C323.088 164.42 322.206 164.196 321.478 163.748C320.778 163.3 320.232 162.684 319.84 161.9C319.476 161.116 319.294 160.234 319.294 159.254C319.294 158.526 319.434 157.756 319.714 156.944C320.022 156.132 320.554 155.39 321.31 154.718C322.094 154.018 323.214 153.528 324.67 153.248L330.592 152.114V148.964C330.592 147.872 330.368 147.074 329.92 146.57C329.5 146.066 328.716 145.814 327.568 145.814C327.008 145.814 326.434 145.87 325.846 145.982C325.286 146.066 324.768 146.192 324.292 146.36L323.368 149.888H321.142L320.428 144.512C321.688 144.036 323.018 143.658 324.418 143.378C325.846 143.098 327.316 142.958 328.828 142.958C330.2 142.958 331.376 143.098 332.356 143.378C333.364 143.658 334.134 144.162 334.666 144.89C335.226 145.618 335.506 146.64 335.506 147.956V160.892L338.74 161.9V163.496C337.816 163.748 337.018 163.93 336.346 164.042C335.702 164.154 335.044 164.21 334.372 164.21C333.56 164.21 332.79 164.028 332.062 163.664C331.334 163.272 330.872 162.698 330.676 161.942C329.64 162.698 328.604 163.3 327.568 163.748C326.532 164.196 325.384 164.42 324.124 164.42ZM326.686 161.312C327.358 161.312 328.058 161.172 328.786 160.892C329.514 160.612 330.116 160.318 330.592 160.01V154.34L327.4 155.012C326.196 155.264 325.356 155.712 324.88 156.356C324.432 157 324.208 157.77 324.208 158.666C324.208 159.618 324.432 160.304 324.88 160.724C325.356 161.116 325.958 161.312 326.686 161.312ZM340.523 164V162.236L343.967 161.312V146.696L340.523 146.192V144.554L347.075 142.958H348.839V144.89C349.791 144.274 350.841 143.784 351.989 143.42C353.137 143.028 354.201 142.832 355.181 142.832C355.377 142.832 355.587 142.832 355.811 142.832C356.035 142.832 356.217 142.846 356.357 142.874L355.601 149.888H353.123L352.241 146.192C351.653 146.192 351.065 146.262 350.477 146.402C349.889 146.514 349.357 146.682 348.881 146.906V161.312L353.711 162.194V164H340.523Z" fill="#101112"/>
<path d="M129.4 238L125.68 223.7H127.46L130.36 235.24L133.72 223.7H134.96L138.32 235.28L141.26 223.7H142.88L139.16 238H137.56L134.32 226.7L130.98 238H129.4ZM148.714 238.18C145.754 238.18 143.654 236.1 143.654 232.88V232.72C143.654 229.56 145.674 227.36 148.554 227.36C150.974 227.36 153.254 228.82 153.254 232.56V233.1H145.374C145.454 235.48 146.594 236.8 148.734 236.8C150.354 236.8 151.294 236.2 151.514 234.98H153.174C152.814 237.08 151.074 238.18 148.714 238.18ZM145.434 231.76H151.554C151.394 229.6 150.274 228.74 148.554 228.74C146.854 228.74 145.714 229.9 145.434 231.76ZM163.714 238.18C161.774 238.18 160.234 237.24 160.234 235.1C160.234 232.68 162.794 231.86 165.474 231.86H166.974V231.1C166.974 229.44 166.334 228.74 164.734 228.74C163.294 228.74 162.494 229.34 162.334 230.62H160.674C160.894 228.24 162.794 227.36 164.814 227.36C166.814 227.36 168.634 228.18 168.634 231.1V238H166.974V236.68C166.194 237.66 165.254 238.18 163.714 238.18ZM163.874 236.86C165.634 236.86 166.974 235.96 166.974 234.34V233.04H165.534C163.434 233.04 161.894 233.56 161.894 235.1C161.894 236.18 162.414 236.86 163.874 236.86ZM171.895 238V227.54H173.555V229.42C174.215 228.24 175.115 227.42 176.995 227.36V228.92C174.895 229.02 173.555 229.68 173.555 232.26V238H171.895ZM183.401 238.18C180.441 238.18 178.341 236.1 178.341 232.88V232.72C178.341 229.56 180.361 227.36 183.241 227.36C185.661 227.36 187.941 228.82 187.941 232.56V233.1H180.061C180.141 235.48 181.281 236.8 183.421 236.8C185.041 236.8 185.981 236.2 186.201 234.98H187.861C187.501 237.08 185.761 238.18 183.401 238.18ZM180.121 231.76H186.241C186.081 229.6 184.961 228.74 183.241 228.74C181.541 228.74 180.401 229.9 180.121 231.76ZM195.782 241.64V227.54H197.442V229.3C198.042 228.28 199.462 227.36 200.982 227.36C203.722 227.36 205.742 229.36 205.742 232.62V232.78C205.742 235.98 203.862 238.18 200.982 238.18C199.262 238.18 198.042 237.32 197.442 236.28V241.64H195.782ZM200.822 236.8C202.902 236.8 204.022 235.4 204.022 232.86V232.7C204.022 230.06 202.562 228.74 200.802 228.74C198.862 228.74 197.382 230.02 197.382 232.7V232.86C197.382 235.54 198.782 236.8 200.822 236.8ZM208.321 238V227.54H209.981V229.42C210.641 228.24 211.541 227.42 213.421 227.36V228.92C211.321 229.02 209.981 229.68 209.981 232.26V238H208.321ZM219.907 236.8C222.007 236.8 223.327 235.22 223.327 232.86V232.72C223.327 230.3 221.987 228.74 219.907 228.74C217.807 228.74 216.487 230.3 216.487 232.7V232.86C216.487 235.24 217.787 236.8 219.907 236.8ZM219.887 238.18C216.907 238.18 214.767 235.92 214.767 232.86V232.7C214.767 229.56 216.947 227.36 219.907 227.36C222.867 227.36 225.047 229.54 225.047 232.68V232.84C225.047 236 222.867 238.18 219.887 238.18ZM231.158 238.18C229.078 238.18 227.518 237.04 227.518 234.16V227.54H229.178V234.08C229.178 235.92 229.958 236.74 231.598 236.74C233.078 236.74 234.478 235.76 234.478 233.88V227.54H236.138V238H234.478V236.34C233.998 237.32 232.838 238.18 231.158 238.18ZM243.433 238.18C240.693 238.18 238.713 236.24 238.713 232.98V232.82C238.713 229.62 240.713 227.36 243.593 227.36C245.333 227.36 246.413 228.2 247.013 229.22V222.54H248.673V238H247.013V236.2C246.413 237.22 244.953 238.18 243.433 238.18ZM243.613 236.8C245.553 236.8 247.073 235.52 247.073 232.84V232.68C247.073 230 245.793 228.74 243.753 228.74C241.673 228.74 240.433 230.2 240.433 232.74V232.9C240.433 235.54 241.853 236.8 243.613 236.8ZM261.685 236.8C263.785 236.8 265.105 235.22 265.105 232.86V232.72C265.105 230.3 263.765 228.74 261.685 228.74C259.585 228.74 258.265 230.3 258.265 232.7V232.86C258.265 235.24 259.565 236.8 261.685 236.8ZM261.665 238.18C258.685 238.18 256.545 235.92 256.545 232.86V232.7C256.545 229.56 258.725 227.36 261.685 227.36C264.645 227.36 266.825 229.54 266.825 232.68V232.84C266.825 236 264.645 238.18 261.665 238.18ZM269.755 238V228.94H268.255V227.54H269.755V225.84C269.755 223.72 270.795 222.48 272.875 222.48C273.415 222.48 273.695 222.54 274.115 222.68V224.08C273.815 223.96 273.395 223.86 272.935 223.86C271.855 223.86 271.415 224.6 271.415 225.66V227.54H273.975V228.94H271.415V238H269.755ZM283.702 238L280.482 227.54H282.282L284.722 235.96L287.262 227.54H288.702L291.082 235.96L293.542 227.54H295.242L291.982 238H290.142L287.962 230.16L285.522 238H283.702ZM297.481 238V222.54H299.141V229.2C299.621 228.22 300.781 227.36 302.501 227.36C304.661 227.36 306.181 228.54 306.181 231.58V238H304.521V231.46C304.521 229.62 303.741 228.8 302.061 228.8C300.521 228.8 299.141 229.78 299.141 231.66V238H297.481ZM312.054 238.18C310.114 238.18 308.574 237.24 308.574 235.1C308.574 232.68 311.134 231.86 313.814 231.86H315.314V231.1C315.314 229.44 314.674 228.74 313.074 228.74C311.634 228.74 310.834 229.34 310.674 230.62H309.014C309.234 228.24 311.134 227.36 313.154 227.36C315.154 227.36 316.974 228.18 316.974 231.1V238H315.314V236.68C314.534 237.66 313.594 238.18 312.054 238.18ZM312.214 236.86C313.974 236.86 315.314 235.96 315.314 234.34V233.04H313.874C311.774 233.04 310.234 233.56 310.234 235.1C310.234 236.18 310.754 236.86 312.214 236.86ZM323.415 238.14C321.515 238.14 320.595 237.02 320.595 235.38V228.94H319.095V227.54H320.595V225.16H322.255V227.54H324.695V228.94H322.255V235.22C322.255 236.24 322.715 236.74 323.555 236.74C324.075 236.74 324.475 236.66 324.835 236.52V237.92C324.495 238.04 324.095 238.14 323.415 238.14ZM334.737 238L331.517 227.54H333.317L335.757 235.96L338.297 227.54H339.737L342.117 235.96L344.577 227.54H346.277L343.017 238H341.177L338.997 230.16L336.557 238H334.737ZM352.601 238.18C349.641 238.18 347.541 236.1 347.541 232.88V232.72C347.541 229.56 349.561 227.36 352.441 227.36C354.861 227.36 357.141 228.82 357.141 232.56V233.1H349.261C349.341 235.48 350.481 236.8 352.621 236.8C354.241 236.8 355.181 236.2 355.401 234.98H357.061C356.701 237.08 354.961 238.18 352.601 238.18ZM349.321 231.76H355.441C355.281 229.6 354.161 228.74 352.441 228.74C350.741 228.74 349.601 229.9 349.321 231.76ZM359.577 228.24L358.557 227.72L360.337 223.48L361.917 224.2L359.577 228.24ZM366.409 238L362.609 227.54H364.409L367.509 236.32L370.569 227.54H372.289L368.529 238H366.409ZM378.46 238.18C375.5 238.18 373.4 236.1 373.4 232.88V232.72C373.4 229.56 375.42 227.36 378.3 227.36C380.72 227.36 383 228.82 383 232.56V233.1H375.12C375.2 235.48 376.34 236.8 378.48 236.8C380.1 236.8 381.04 236.2 381.26 234.98H382.92C382.56 237.08 380.82 238.18 378.46 238.18ZM375.18 231.76H381.3C381.14 229.6 380.02 228.74 378.3 228.74C376.6 228.74 375.46 229.9 375.18 231.76ZM393.46 238.18C391.52 238.18 389.98 237.24 389.98 235.1C389.98 232.68 392.54 231.86 395.22 231.86H396.72V231.1C396.72 229.44 396.08 228.74 394.48 228.74C393.04 228.74 392.24 229.34 392.08 230.62H390.42C390.64 228.24 392.54 227.36 394.56 227.36C396.56 227.36 398.38 228.18 398.38 231.1V238H396.72V236.68C395.94 237.66 395 238.18 393.46 238.18ZM393.62 236.86C395.38 236.86 396.72 235.96 396.72 234.34V233.04H395.28C393.18 233.04 391.64 233.56 391.64 235.1C391.64 236.18 392.16 236.86 393.62 236.86ZM405.981 238.18C403.061 238.18 400.861 236.12 400.861 232.88V232.72C400.861 229.52 403.141 227.36 405.941 227.36C408.121 227.36 410.161 228.36 410.481 231.02H408.841C408.581 229.36 407.381 228.74 405.941 228.74C404.041 228.74 402.581 230.26 402.581 232.72V232.88C402.581 235.44 403.981 236.8 406.001 236.8C407.481 236.8 408.821 235.94 409.001 234.24H410.541C410.321 236.5 408.501 238.18 405.981 238.18ZM413.047 238V222.54H414.707V229.2C415.187 228.22 416.347 227.36 418.067 227.36C420.227 227.36 421.747 228.54 421.747 231.58V238H420.087V231.46C420.087 229.62 419.307 228.8 417.627 228.8C416.087 228.8 414.707 229.78 414.707 231.66V238H413.047ZM425.04 238V227.54H426.7V238H425.04ZM425.84 225.36C425.24 225.36 424.74 224.86 424.74 224.26C424.74 223.66 425.24 223.16 425.84 223.16C426.44 223.16 426.94 223.66 426.94 224.26C426.94 224.86 426.44 225.36 425.84 225.36ZM434.378 238.18C431.418 238.18 429.318 236.1 429.318 232.88V232.72C429.318 229.56 431.338 227.36 434.218 227.36C436.638 227.36 438.918 228.82 438.918 232.56V233.1H431.038C431.118 235.48 432.258 236.8 434.398 236.8C436.018 236.8 436.958 236.2 437.178 234.98H438.838C438.478 237.08 436.738 238.18 434.378 238.18ZM431.098 231.76H437.218C437.058 229.6 435.938 228.74 434.218 228.74C432.518 228.74 431.378 229.9 431.098 231.76ZM443.988 238L440.188 227.54H441.988L445.088 236.32L448.148 227.54H449.868L446.108 238H443.988ZM456.038 238.18C453.078 238.18 450.978 236.1 450.978 232.88V232.72C450.978 229.56 452.998 227.36 455.878 227.36C458.298 227.36 460.578 228.82 460.578 232.56V233.1H452.698C452.778 235.48 453.918 236.8 456.058 236.8C457.678 236.8 458.618 236.2 458.838 234.98H460.498C460.138 237.08 458.398 238.18 456.038 238.18ZM452.758 231.76H458.878C458.718 229.6 457.598 228.74 455.878 228.74C454.178 228.74 453.038 229.9 452.758 231.76ZM467.065 238.18C464.325 238.18 462.345 236.24 462.345 232.98V232.82C462.345 229.62 464.345 227.36 467.225 227.36C468.965 227.36 470.045 228.2 470.645 229.22V222.54H472.305V238H470.645V236.2C470.045 237.22 468.585 238.18 467.065 238.18ZM467.245 236.8C469.185 236.8 470.705 235.52 470.705 232.84V232.68C470.705 230 469.425 228.74 467.385 228.74C465.305 228.74 464.065 230.2 464.065 232.74V232.9C464.065 235.54 465.485 236.8 467.245 236.8ZM129.3 270.18C127.36 270.18 125.82 269.24 125.82 267.1C125.82 264.68 128.38 263.86 131.06 263.86H132.56V263.1C132.56 261.44 131.92 260.74 130.32 260.74C128.88 260.74 128.08 261.34 127.92 262.62H126.26C126.48 260.24 128.38 259.36 130.4 259.36C132.4 259.36 134.22 260.18 134.22 263.1V270H132.56V268.68C131.78 269.66 130.84 270.18 129.3 270.18ZM129.46 268.86C131.22 268.86 132.56 267.96 132.56 266.34V265.04H131.12C129.02 265.04 127.48 265.56 127.48 267.1C127.48 268.18 128 268.86 129.46 268.86ZM137.481 270V259.54H139.141V261.2C139.621 260.22 140.781 259.36 142.501 259.36C144.661 259.36 146.181 260.54 146.181 263.58V270H144.521V263.46C144.521 261.62 143.741 260.8 142.061 260.8C140.521 260.8 139.141 261.78 139.141 263.66V270H137.481ZM153.374 270.18C150.634 270.18 148.654 268.24 148.654 264.98V264.82C148.654 261.62 150.654 259.36 153.534 259.36C155.274 259.36 156.354 260.2 156.954 261.22V254.54H158.614V270H156.954V268.2C156.354 269.22 154.894 270.18 153.374 270.18ZM153.554 268.8C155.494 268.8 157.014 267.52 157.014 264.84V264.68C157.014 262 155.734 260.74 153.694 260.74C151.614 260.74 150.374 262.2 150.374 264.74V264.9C150.374 267.54 151.794 268.8 153.554 268.8ZM171.546 270.18C168.586 270.18 166.486 268.1 166.486 264.88V264.72C166.486 261.56 168.506 259.36 171.386 259.36C173.806 259.36 176.086 260.82 176.086 264.56V265.1H168.206C168.286 267.48 169.426 268.8 171.566 268.8C173.186 268.8 174.126 268.2 174.346 266.98H176.006C175.646 269.08 173.906 270.18 171.546 270.18ZM168.266 263.76H174.386C174.226 261.6 173.106 260.74 171.386 260.74C169.686 260.74 168.546 261.9 168.266 263.76ZM177.22 270L180.96 264.62L177.46 259.54H179.4L181.96 263.34L184.5 259.54H186.3L182.84 264.5L186.66 270H184.7L181.88 265.78L179 270H177.22ZM192.739 270.18C189.819 270.18 187.619 268.12 187.619 264.88V264.72C187.619 261.52 189.899 259.36 192.699 259.36C194.879 259.36 196.919 260.36 197.239 263.02H195.599C195.339 261.36 194.139 260.74 192.699 260.74C190.799 260.74 189.339 262.26 189.339 264.72V264.88C189.339 267.44 190.739 268.8 192.759 268.8C194.239 268.8 195.579 267.94 195.759 266.24H197.299C197.079 268.5 195.259 270.18 192.739 270.18ZM199.845 270V259.54H201.505V270H199.845ZM200.645 257.36C200.045 257.36 199.545 256.86 199.545 256.26C199.545 255.66 200.045 255.16 200.645 255.16C201.245 255.16 201.745 255.66 201.745 256.26C201.745 256.86 201.245 257.36 200.645 257.36ZM208.083 270.14C206.183 270.14 205.263 269.02 205.263 267.38V260.94H203.763V259.54H205.263V257.16H206.923V259.54H209.363V260.94H206.923V267.22C206.923 268.24 207.383 268.74 208.223 268.74C208.743 268.74 209.143 268.66 209.503 268.52V269.92C209.163 270.04 208.763 270.14 208.083 270.14ZM216.292 270.18C213.332 270.18 211.232 268.1 211.232 264.88V264.72C211.232 261.56 213.252 259.36 216.132 259.36C218.552 259.36 220.832 260.82 220.832 264.56V265.1H212.952C213.032 267.48 214.172 268.8 216.312 268.8C217.932 268.8 218.872 268.2 219.092 266.98H220.752C220.392 269.08 218.652 270.18 216.292 270.18ZM213.012 263.76H219.132C218.972 261.6 217.852 260.74 216.132 260.74C214.432 260.74 213.292 261.9 213.012 263.76ZM227.319 270.18C224.579 270.18 222.599 268.24 222.599 264.98V264.82C222.599 261.62 224.599 259.36 227.479 259.36C229.219 259.36 230.299 260.2 230.899 261.22V254.54H232.559V270H230.899V268.2C230.299 269.22 228.839 270.18 227.319 270.18ZM227.499 268.8C229.439 268.8 230.959 267.52 230.959 264.84V264.68C230.959 262 229.679 260.74 227.639 260.74C225.559 260.74 224.319 262.2 224.319 264.74V264.9C224.319 267.54 225.739 268.8 227.499 268.8ZM243.831 270.18C241.891 270.18 240.351 269.24 240.351 267.1C240.351 264.68 242.911 263.86 245.591 263.86H247.091V263.1C247.091 261.44 246.451 260.74 244.851 260.74C243.411 260.74 242.611 261.34 242.451 262.62H240.791C241.011 260.24 242.911 259.36 244.931 259.36C246.931 259.36 248.751 260.18 248.751 263.1V270H247.091V268.68C246.311 269.66 245.371 270.18 243.831 270.18ZM243.991 268.86C245.751 268.86 247.091 267.96 247.091 266.34V265.04H245.651C243.551 265.04 242.011 265.56 242.011 267.1C242.011 268.18 242.531 268.86 243.991 268.86ZM257.212 270.18C255.512 270.18 254.272 269.32 253.672 268.28V270H252.012V254.54H253.672V261.3C254.272 260.28 255.692 259.36 257.212 259.36C259.952 259.36 261.972 261.36 261.972 264.62V264.78C261.972 267.98 260.092 270.18 257.212 270.18ZM257.052 268.8C259.132 268.8 260.252 267.4 260.252 264.86V264.7C260.252 262.06 258.792 260.74 257.032 260.74C255.092 260.74 253.612 262.02 253.612 264.7V264.86C253.612 267.54 255.012 268.8 257.052 268.8ZM268.911 268.8C271.011 268.8 272.331 267.22 272.331 264.86V264.72C272.331 262.3 270.991 260.74 268.911 260.74C266.811 260.74 265.491 262.3 265.491 264.7V264.86C265.491 267.24 266.791 268.8 268.911 268.8ZM268.891 270.18C265.911 270.18 263.771 267.92 263.771 264.86V264.7C263.771 261.56 265.951 259.36 268.911 259.36C271.871 259.36 274.051 261.54 274.051 264.68V264.84C274.051 268 271.871 270.18 268.891 270.18ZM280.161 270.18C278.081 270.18 276.521 269.04 276.521 266.16V259.54H278.181V266.08C278.181 267.92 278.961 268.74 280.601 268.74C282.081 268.74 283.481 267.76 283.481 265.88V259.54H285.141V270H283.481V268.34C283.001 269.32 281.841 270.18 280.161 270.18ZM291.676 270.14C289.776 270.14 288.856 269.02 288.856 267.38V260.94H287.356V259.54H288.856V257.16H290.516V259.54H292.956V260.94H290.516V267.22C290.516 268.24 290.976 268.74 291.816 268.74C292.336 268.74 292.736 268.66 293.096 268.52V269.92C292.756 270.04 292.356 270.14 291.676 270.14ZM305.259 268.8C307.359 268.8 308.679 267.22 308.679 264.86V264.72C308.679 262.3 307.339 260.74 305.259 260.74C303.159 260.74 301.839 262.3 301.839 264.7V264.86C301.839 267.24 303.139 268.8 305.259 268.8ZM305.239 270.18C302.259 270.18 300.119 267.92 300.119 264.86V264.7C300.119 261.56 302.299 259.36 305.259 259.36C308.219 259.36 310.399 261.54 310.399 264.68V264.84C310.399 268 308.219 270.18 305.239 270.18ZM316.509 270.18C314.429 270.18 312.869 269.04 312.869 266.16V259.54H314.529V266.08C314.529 267.92 315.309 268.74 316.949 268.74C318.429 268.74 319.829 267.76 319.829 265.88V259.54H321.489V270H319.829V268.34C319.349 269.32 318.189 270.18 316.509 270.18ZM324.844 270V259.54H326.504V261.42C327.164 260.24 328.064 259.42 329.944 259.36V260.92C327.844 261.02 326.504 261.68 326.504 264.26V270H324.844ZM337.657 270V259.54H339.317V261.2C339.797 260.22 340.957 259.36 342.677 259.36C344.837 259.36 346.357 260.54 346.357 263.58V270H344.697V263.46C344.697 261.62 343.917 260.8 342.237 260.8C340.697 260.8 339.317 261.78 339.317 263.66V270H337.657ZM353.89 270.18C350.93 270.18 348.83 268.1 348.83 264.88V264.72C348.83 261.56 350.85 259.36 353.73 259.36C356.15 259.36 358.43 260.82 358.43 264.56V265.1H350.55C350.63 267.48 351.77 268.8 353.91 268.8C355.53 268.8 356.47 268.2 356.69 266.98H358.35C357.99 269.08 356.25 270.18 353.89 270.18ZM350.61 263.76H356.73C356.57 261.6 355.45 260.74 353.73 260.74C352.03 260.74 350.89 261.9 350.61 263.76ZM359.564 270L363.304 264.62L359.804 259.54H361.744L364.304 263.34L366.844 259.54H368.644L365.184 264.5L369.004 270H367.044L364.224 265.78L361.344 270H359.564ZM374.43 270.14C372.53 270.14 371.61 269.02 371.61 267.38V260.94H370.11V259.54H371.61V257.16H373.27V259.54H375.71V260.94H373.27V267.22C373.27 268.24 373.73 268.74 374.57 268.74C375.09 268.74 375.49 268.66 375.85 268.52V269.92C375.51 270.04 375.11 270.14 374.43 270.14Z" fill="#45494D"/>
<path d="M390.033 270.26C388.493 270.26 387.373 269.52 386.853 268.4V270H382.913V255H386.853V261.06C387.433 260.08 388.473 259.26 390.053 259.26C392.433 259.26 394.433 261.04 394.433 264.7V264.86C394.433 268.52 392.413 270.26 390.033 270.26ZM388.593 267.26C389.773 267.26 390.433 266.42 390.433 264.82V264.66C390.433 262.98 389.753 262.18 388.573 262.18C387.413 262.18 386.753 263.06 386.753 264.66V264.82C386.753 266.44 387.393 267.26 388.593 267.26ZM395.962 270V259.54H399.882V270H395.962ZM397.922 258.76C396.702 258.76 395.782 257.92 395.782 256.78C395.782 255.62 396.702 254.78 397.922 254.78C399.122 254.78 400.042 255.62 400.042 256.78C400.042 257.92 399.122 258.76 397.922 258.76ZM406.937 273.88C403.317 273.88 401.617 272.4 401.337 269.92H405.237C405.377 270.56 405.737 271.16 406.957 271.16C408.457 271.16 408.957 270.28 408.957 269.16V267.54C408.437 268.54 407.337 269.38 405.777 269.38C403.397 269.38 401.397 267.66 401.397 264.42V264.26C401.397 261.12 403.377 259.24 405.757 259.24C407.397 259.24 408.377 259.92 408.957 260.98V259.54H412.897V269.1C412.897 272.22 410.837 273.88 406.937 273.88ZM407.237 266.58C408.397 266.58 409.077 265.74 409.077 264.42V264.28C409.077 263 408.417 262.16 407.237 262.16C406.037 262.16 405.397 262.98 405.397 264.3V264.46C405.397 265.74 406.037 266.58 407.237 266.58ZM423.5 273.88C419.88 273.88 418.18 272.4 417.9 269.92H421.8C421.94 270.56 422.3 271.16 423.52 271.16C425.02 271.16 425.52 270.28 425.52 269.16V267.54C425 268.54 423.9 269.38 422.34 269.38C419.96 269.38 417.96 267.66 417.96 264.42V264.26C417.96 261.12 419.94 259.24 422.32 259.24C423.96 259.24 424.94 259.92 425.52 260.98V259.54H429.46V269.1C429.46 272.22 427.4 273.88 423.5 273.88ZM423.8 266.58C424.96 266.58 425.64 265.74 425.64 264.42V264.28C425.64 263 424.98 262.16 423.8 262.16C422.6 262.16 421.96 262.98 421.96 264.3V264.46C421.96 265.74 422.6 266.58 423.8 266.58ZM436.671 267.36C437.871 267.36 438.471 266.48 438.471 264.82V264.68C438.471 263.04 437.891 262.16 436.671 262.16C435.471 262.16 434.811 262.98 434.811 264.62V264.78C434.811 266.48 435.411 267.36 436.671 267.36ZM436.651 270.26C433.391 270.26 430.831 268.34 430.831 264.9V264.74C430.831 261.34 433.371 259.26 436.671 259.26C439.931 259.26 442.471 261.28 442.471 264.64V264.8C442.471 268.24 439.911 270.26 436.651 270.26ZM446.87 270.26C444.99 270.26 443.31 269.34 443.31 267.1C443.31 264.64 445.31 263.68 448.93 263.68H449.83V263.5C449.83 262.62 449.67 261.98 448.61 261.98C447.71 261.98 447.43 262.56 447.37 263.1H443.69C443.85 260.54 445.85 259.24 448.85 259.24C451.89 259.24 453.73 260.48 453.73 263.24V270H449.93V268.8C449.49 269.52 448.57 270.26 446.87 270.26ZM448.29 267.62C449.19 267.62 449.83 267.12 449.83 266.34V265.8H448.99C447.67 265.8 447.19 266.06 447.19 266.8C447.19 267.3 447.57 267.62 448.29 267.62ZM455.649 270V255H459.569V270H455.649ZM465.825 270.26C462.765 270.26 460.965 269 460.905 266.64H464.505C464.625 267.32 464.905 267.72 465.805 267.72C466.565 267.72 466.905 267.42 466.905 266.98C466.905 266.52 466.465 266.28 465.065 266.1C462.245 265.78 461.005 265.02 461.005 262.78C461.005 260.38 463.105 259.24 465.665 259.24C468.385 259.24 470.205 260.14 470.445 262.7H466.905C466.785 262.08 466.445 261.72 465.725 261.72C465.005 261.72 464.685 262.04 464.685 262.44C464.685 262.92 465.165 263.12 466.325 263.24C469.345 263.6 470.745 264.32 470.745 266.58C470.745 269.16 468.785 270.26 465.825 270.26ZM474.074 270.24C472.814 270.24 471.874 269.3 471.874 268.08C471.874 266.9 472.814 265.94 474.074 265.94C475.354 265.94 476.314 266.9 476.314 268.08C476.314 269.3 475.354 270.24 474.074 270.24Z" fill="#267C46"/>
<path d="M1260.72 284.2C1254.19 284.2 1247.72 283.533 1241.32 282.2C1234.92 280.867 1229.05 279.2 1223.72 277.2L1227.12 264.8C1233.92 267.2 1239.52 268.8 1243.92 269.6C1248.45 270.4 1252.32 270.8 1255.52 270.8C1260.45 270.8 1264.99 270 1269.12 268.4C1273.25 266.667 1276.52 264.067 1278.92 260.6C1281.45 257.133 1282.72 252.667 1282.72 247.2C1282.72 241.733 1281.65 237.4 1279.52 234.2C1277.52 230.867 1274.79 228.467 1271.32 227C1267.99 225.4 1264.25 224.333 1260.12 223.8C1255.99 223.267 1251.85 223 1247.72 223L1246.92 212.6C1258.25 211.267 1266.19 208.267 1270.72 203.6C1275.25 198.933 1277.52 193.4 1277.52 187C1277.52 181.933 1276.05 178 1273.12 175.2C1270.19 172.267 1265.52 170.8 1259.12 170.8C1256.05 170.8 1251.99 171.333 1246.92 172.4C1241.85 173.467 1236.45 175.333 1230.72 178L1225.72 167.2C1229.05 165.2 1232.92 163.4 1237.32 161.8C1241.85 160.067 1246.59 158.733 1251.52 157.8C1256.59 156.867 1261.52 156.4 1266.32 156.4C1272.72 156.4 1278.52 157.4 1283.72 159.4C1288.92 161.267 1293.05 164.2 1296.12 168.2C1299.19 172.2 1300.72 177.267 1300.72 183.4C1300.72 188.467 1299.65 193.067 1297.52 197.2C1295.52 201.2 1292.72 204.667 1289.12 207.6C1285.65 210.533 1281.79 213 1277.52 215C1286.45 216.733 1293.52 220.467 1298.72 226.2C1304.05 231.933 1306.72 238.933 1306.72 247.2C1306.72 259.467 1302.85 268.733 1295.12 275C1287.39 281.133 1275.92 284.2 1260.72 284.2Z" fill="#F3F3F3"/>
<path d="M876.495 468L872.295 455.4L915.095 412.2C918.828 408.6 921.962 404.933 924.495 401.2C927.028 397.333 929.028 393.4 930.495 389.4C931.962 385.267 932.695 381.133 932.695 377C932.695 371.4 930.828 366.733 927.095 363C923.362 359.267 917.628 357.4 909.895 357.4C904.962 357.4 900.228 358.133 895.695 359.6C891.295 361.067 886.695 362.733 881.895 364.6L876.695 353C882.028 350.333 888.095 347.933 894.895 345.8C901.695 343.533 909.028 342.4 916.895 342.4C924.495 342.4 931.362 343.467 937.495 345.6C943.628 347.6 948.495 351 952.095 355.8C955.695 360.467 957.495 366.867 957.495 375C957.495 380.867 956.362 386.4 954.095 391.6C951.828 396.8 948.628 401.933 944.495 407C940.362 411.933 935.495 417.133 929.895 422.6L895.095 453.8L944.695 452.2L952.495 436H962.895L960.095 468H876.495Z" fill="#F3F3F3"/>
<path d="M705.834 437.396C700.146 437.396 695.754 434.768 695.754 429.728C695.754 426.596 697.554 424.328 700.506 423.284C698.166 422.312 696.762 420.512 696.762 417.92C696.762 413.456 701.046 410.9 705.87 410.9C710.802 410.9 714.906 413.492 714.906 417.884C714.906 420.476 713.43 422.24 711.162 423.248C714.186 424.292 715.878 426.524 715.878 429.584C715.878 434.624 711.558 437.396 705.834 437.396ZM705.834 433.148C708.282 433.148 710.118 431.708 710.118 429.152C710.118 426.632 708.282 425.228 705.87 425.228C703.494 425.228 701.55 426.632 701.55 429.188C701.55 431.744 703.458 433.148 705.834 433.148ZM705.906 421.664C707.994 421.664 709.506 420.404 709.506 418.28C709.506 416.3 707.922 414.968 705.87 414.968C703.818 414.968 702.198 416.228 702.198 418.316C702.198 420.404 703.89 421.664 705.906 421.664ZM720.856 437L728.704 415.976H717.364V411.26H736.012V411.908L726.796 437H720.856ZM736.722 437V436.064L746.154 426.092C748.638 423.464 750.222 421.196 750.222 418.856C750.222 416.732 749.034 415.364 746.802 415.364C744.534 415.364 743.094 416.696 742.698 420.08H737.406C737.694 414.14 741.294 410.9 747.054 410.9C752.742 410.9 755.982 414.068 755.982 418.712C755.982 422.132 754.002 424.94 751.014 427.82L746.154 432.572H756.162V437H736.722ZM762.71 437.324C760.91 437.324 759.506 435.92 759.506 434.156C759.506 432.428 760.91 431.024 762.71 431.024C764.546 431.024 765.95 432.428 765.95 434.156C765.95 435.92 764.546 437.324 762.71 437.324ZM778.166 437.396C771.83 437.396 768.878 433.94 768.626 429.332H773.99C774.314 431.492 775.178 432.932 778.13 432.932C780.758 432.932 782.162 431.096 782.162 428.36C782.162 425.588 780.578 423.86 777.986 423.86C775.574 423.86 774.098 424.724 773.054 425.912H769.814L770.174 411.26H786.482V415.688H774.53L774.422 422.132C775.43 420.908 777.23 419.756 780.146 419.756C784.826 419.756 788.03 422.96 788.03 428.432C788.03 433.904 784.106 437.396 778.166 437.396ZM806.783 437.36C802.823 437.36 800.699 435.344 800.699 431.42V421.88H798.287V418.172H800.699V414.104H805.883V418.172H809.843V421.88H805.883V430.952C805.883 432.464 806.639 433.184 807.971 433.184C808.763 433.184 809.339 433.076 809.951 432.824V436.856C809.231 437.108 808.187 437.36 806.783 437.36ZM822.261 433.436C825.177 433.436 826.869 431.276 826.869 427.712V427.46C826.869 423.86 825.177 421.7 822.261 421.7C819.381 421.7 817.653 423.788 817.653 427.388V427.676C817.653 431.276 819.309 433.436 822.261 433.436ZM822.225 437.396C816.609 437.396 812.325 433.652 812.325 427.784V427.496C812.325 421.592 816.609 417.74 822.261 417.74C827.913 417.74 832.161 421.52 832.161 427.388V427.676C832.161 433.616 827.877 437.396 822.225 437.396ZM835.661 437V418.172H840.881V421.16C841.817 419.288 843.869 417.74 847.001 417.74C850.709 417.74 853.337 419.972 853.337 425.012V437H848.117V425.768C848.117 423.212 847.109 421.988 844.805 421.988C842.573 421.988 840.881 423.356 840.881 426.128V437H835.661ZM864.649 437.396C859.573 437.396 856.621 435.164 856.441 431.096H861.301C861.517 432.788 862.345 433.76 864.613 433.76C866.629 433.76 867.565 433.004 867.565 431.708C867.565 430.412 866.449 429.872 863.749 429.476C858.745 428.72 856.801 427.28 856.801 423.608C856.801 419.684 860.401 417.74 864.253 417.74C868.429 417.74 871.561 419.252 872.029 423.572H867.241C866.953 422.024 866.089 421.304 864.289 421.304C862.597 421.304 861.625 422.096 861.625 423.248C861.625 424.436 862.525 424.904 865.261 425.3C869.977 425.984 872.569 427.172 872.569 431.204C872.569 435.272 869.617 437.396 864.649 437.396Z" fill="#9AB856"/>
<path d="M695.783 465V452.76H697.719V465H695.783ZM703.759 465.16C701.295 465.16 699.519 463.544 699.519 460.904V460.776C699.519 458.184 701.295 456.456 703.679 456.456C705.759 456.456 707.631 457.688 707.631 460.68V461.24H701.503C701.567 462.824 702.367 463.72 703.807 463.72C704.975 463.72 705.583 463.256 705.727 462.44H707.599C707.327 464.2 705.903 465.16 703.759 465.16ZM701.535 459.944H705.711C705.615 458.504 704.879 457.864 703.679 457.864C702.511 457.864 701.727 458.648 701.535 459.944ZM712.302 465.16C710.142 465.16 708.878 464.168 708.798 462.392H710.622C710.718 463.24 711.15 463.736 712.286 463.736C713.326 463.736 713.79 463.368 713.79 462.664C713.79 461.976 713.23 461.72 711.998 461.512C709.79 461.16 708.974 460.536 708.974 458.968C708.974 457.288 710.542 456.456 712.11 456.456C713.822 456.456 715.182 457.096 715.39 458.984H713.598C713.438 458.216 713.006 457.864 712.11 457.864C711.278 457.864 710.782 458.264 710.782 458.856C710.782 459.464 711.182 459.704 712.51 459.928C714.478 460.232 715.646 460.712 715.646 462.488C715.646 464.184 714.446 465.16 712.302 465.16ZM720.209 465.16C718.049 465.16 716.785 464.168 716.705 462.392H718.529C718.625 463.24 719.057 463.736 720.193 463.736C721.233 463.736 721.697 463.368 721.697 462.664C721.697 461.976 721.137 461.72 719.905 461.512C717.697 461.16 716.881 460.536 716.881 458.968C716.881 457.288 718.449 456.456 720.017 456.456C721.729 456.456 723.089 457.096 723.297 458.984H721.505C721.345 458.216 720.913 457.864 720.017 457.864C719.185 457.864 718.689 458.264 718.689 458.856C718.689 459.464 719.089 459.704 720.417 459.928C722.385 460.232 723.553 460.712 723.553 462.488C723.553 464.184 722.353 465.16 720.209 465.16ZM728.931 465.16C726.467 465.16 724.691 463.544 724.691 460.904V460.776C724.691 458.184 726.467 456.456 728.851 456.456C730.931 456.456 732.803 457.688 732.803 460.68V461.24H726.675C726.739 462.824 727.539 463.72 728.979 463.72C730.147 463.72 730.755 463.256 730.899 462.44H732.771C732.499 464.2 731.075 465.16 728.931 465.16ZM726.707 459.944H730.883C730.787 458.504 730.051 457.864 728.851 457.864C727.683 457.864 726.899 458.648 726.707 459.944ZM734.532 465V456.632H736.468V458.2C736.996 457.144 737.78 456.52 739.188 456.504V458.312C737.492 458.328 736.468 458.872 736.468 460.648V465H734.532ZM749.872 465.16C746.288 465.16 744.288 462.872 744.288 459.352V459.224C744.288 455.784 746.656 453.384 749.84 453.384C752.464 453.384 754.496 454.696 754.752 457.384H752.592C752.352 455.864 751.504 455.08 749.856 455.08C747.84 455.08 746.528 456.648 746.528 459.208V459.336C746.528 461.912 747.76 463.432 749.872 463.432C751.456 463.432 752.576 462.632 752.8 461.016H754.88C754.544 463.768 752.592 465.16 749.872 465.16ZM761.971 463.448C764.131 463.448 765.491 461.8 765.491 459.32V459.192C765.491 456.84 764.179 455.096 761.939 455.096C759.699 455.096 758.371 456.744 758.371 459.208V459.336C758.371 461.832 759.891 463.448 761.971 463.448ZM761.939 465.16C758.435 465.16 756.147 462.648 756.147 459.352V459.224C756.147 455.88 758.547 453.4 761.939 453.4C765.347 453.4 767.699 455.816 767.699 459.176V459.304C767.699 462.648 765.411 465.16 761.939 465.16ZM768.683 465V464.616L773.003 460.056C774.091 458.904 774.747 457.896 774.747 456.808C774.747 455.736 774.139 455.064 773.035 455.064C771.899 455.064 771.179 455.72 770.987 457.336H769.035C769.179 454.84 770.683 453.4 773.099 453.4C775.467 453.4 776.875 454.76 776.875 456.776C776.875 458.264 775.995 459.56 774.635 460.872L772.091 463.352H776.955V465H768.683ZM782.817 465V453.56H789.969V455.24H784.945V458.376H788.977V459.976H784.945V463.32H790.241V465H782.817ZM792.001 465V456.632H793.937V457.912C794.337 457.128 795.249 456.456 796.481 456.456C797.569 456.456 798.433 456.92 798.849 457.96C799.489 456.92 800.641 456.456 801.681 456.456C803.217 456.456 804.465 457.4 804.465 459.704V465H802.529V459.832C802.529 458.6 802.001 458.072 801.041 458.072C800.081 458.072 799.201 458.712 799.201 459.992V465H797.265V459.832C797.265 458.6 796.721 458.072 795.777 458.072C794.817 458.072 793.937 458.712 793.937 459.992V465H792.001ZM806.736 465V456.632H808.672V465H806.736ZM807.68 455.256C807.04 455.256 806.528 454.776 806.528 454.152C806.528 453.512 807.04 453.032 807.68 453.032C808.32 453.032 808.832 453.512 808.832 454.152C808.832 454.776 808.32 455.256 807.68 455.256ZM813.896 465.16C811.736 465.16 810.472 464.168 810.392 462.392H812.216C812.312 463.24 812.744 463.736 813.88 463.736C814.92 463.736 815.384 463.368 815.384 462.664C815.384 461.976 814.824 461.72 813.592 461.512C811.384 461.16 810.568 460.536 810.568 458.968C810.568 457.288 812.136 456.456 813.704 456.456C815.416 456.456 816.776 457.096 816.984 458.984H815.192C815.032 458.216 814.6 457.864 813.704 457.864C812.872 457.864 812.376 458.264 812.376 458.856C812.376 459.464 812.776 459.704 814.104 459.928C816.072 460.232 817.24 460.712 817.24 462.488C817.24 464.184 816.04 465.16 813.896 465.16ZM821.802 465.16C819.642 465.16 818.378 464.168 818.298 462.392H820.122C820.218 463.24 820.65 463.736 821.786 463.736C822.826 463.736 823.29 463.368 823.29 462.664C823.29 461.976 822.73 461.72 821.498 461.512C819.29 461.16 818.474 460.536 818.474 458.968C818.474 457.288 820.042 456.456 821.61 456.456C823.322 456.456 824.682 457.096 824.89 458.984H823.098C822.938 458.216 822.506 457.864 821.61 457.864C820.778 457.864 820.282 458.264 820.282 458.856C820.282 459.464 820.682 459.704 822.01 459.928C823.978 460.232 825.146 460.712 825.146 462.488C825.146 464.184 823.946 465.16 821.802 465.16ZM826.893 465V456.632H828.829V465H826.893ZM827.837 455.256C827.197 455.256 826.685 454.776 826.685 454.152C826.685 453.512 827.197 453.032 827.837 453.032C828.477 453.032 828.989 453.512 828.989 454.152C828.989 454.776 828.477 455.256 827.837 455.256ZM834.932 463.656C836.372 463.656 837.236 462.584 837.236 460.872V460.76C837.236 459.032 836.372 457.976 834.932 457.976C833.492 457.976 832.612 459.016 832.612 460.744V460.872C832.612 462.584 833.46 463.656 834.932 463.656ZM834.916 465.16C832.452 465.16 830.628 463.448 830.628 460.904V460.776C830.628 458.184 832.468 456.456 834.932 456.456C837.38 456.456 839.22 458.168 839.22 460.728V460.856C839.22 463.464 837.38 465.16 834.916 465.16ZM840.97 465V456.632H842.906V457.96C843.306 457.144 844.234 456.456 845.61 456.456C847.29 456.456 848.474 457.432 848.474 459.736V465H846.538V459.912C846.538 458.648 846.026 458.072 844.874 458.072C843.786 458.072 842.906 458.744 842.906 460.072V465H840.97Z" fill="black"/>
<path d="M1018.74 254.396C1012.41 254.396 1009.46 250.94 1009.2 246.332H1014.57C1014.89 248.492 1015.76 249.932 1018.71 249.932C1021.34 249.932 1022.74 248.096 1022.74 245.36C1022.74 242.588 1021.16 240.86 1018.56 240.86C1016.15 240.86 1014.68 241.724 1013.63 242.912H1010.39L1010.75 228.26H1027.06V232.688H1015.11L1015 239.132C1016.01 237.908 1017.81 236.756 1020.72 236.756C1025.4 236.756 1028.61 239.96 1028.61 245.432C1028.61 250.904 1024.68 254.396 1018.74 254.396ZM1032.93 258.428L1029.76 257.096L1032.93 248.204L1037.83 250.04L1032.93 258.428ZM1039.56 254V253.064L1049 243.092C1051.48 240.464 1053.06 238.196 1053.06 235.856C1053.06 233.732 1051.88 232.364 1049.64 232.364C1047.38 232.364 1045.94 233.696 1045.54 237.08H1040.25C1040.54 231.14 1044.14 227.9 1049.9 227.9C1055.58 227.9 1058.82 231.068 1058.82 235.712C1058.82 239.132 1056.84 241.94 1053.86 244.82L1049 249.572H1059V254H1039.56ZM1071.16 254.396C1064.83 254.396 1061.87 250.94 1061.62 246.332H1066.99C1067.31 248.492 1068.17 249.932 1071.13 249.932C1073.75 249.932 1075.16 248.096 1075.16 245.36C1075.16 242.588 1073.57 240.86 1070.98 240.86C1068.57 240.86 1067.09 241.724 1066.05 242.912H1062.81L1063.17 228.26H1079.48V232.688H1067.53L1067.42 239.132C1068.43 237.908 1070.23 236.756 1073.14 236.756C1077.82 236.756 1081.03 239.96 1081.03 245.432C1081.03 250.904 1077.1 254.396 1071.16 254.396ZM1085.35 258.428L1082.18 257.096L1085.35 248.204L1090.25 250.04L1085.35 258.428ZM1103.24 249.824C1106.88 249.824 1108.54 247.052 1108.54 241.652V240.5C1108.54 235.316 1106.74 232.4 1103.17 232.4C1099.57 232.4 1097.74 235.172 1097.74 240.5V241.724C1097.74 247.124 1099.64 249.824 1103.24 249.824ZM1103.1 254.396C1096.26 254.396 1091.9 249.644 1091.9 241.76V240.536C1091.9 232.616 1096.51 227.9 1103.14 227.9C1109.76 227.9 1114.33 232.436 1114.33 240.428V241.616C1114.33 249.5 1110.05 254.396 1103.1 254.396ZM1128.91 249.824C1132.54 249.824 1134.2 247.052 1134.2 241.652V240.5C1134.2 235.316 1132.4 232.4 1128.84 232.4C1125.24 232.4 1123.4 235.172 1123.4 240.5V241.724C1123.4 247.124 1125.31 249.824 1128.91 249.824ZM1128.76 254.396C1121.92 254.396 1117.57 249.644 1117.57 241.76V240.536C1117.57 232.616 1122.18 227.9 1128.8 227.9C1135.42 227.9 1140 232.436 1140 240.428V241.616C1140 249.5 1135.71 254.396 1128.76 254.396ZM1154.57 249.824C1158.21 249.824 1159.86 247.052 1159.86 241.652V240.5C1159.86 235.316 1158.06 232.4 1154.5 232.4C1150.9 232.4 1149.06 235.172 1149.06 240.5V241.724C1149.06 247.124 1150.97 249.824 1154.57 249.824ZM1154.43 254.396C1147.59 254.396 1143.23 249.644 1143.23 241.76V240.536C1143.23 232.616 1147.84 227.9 1154.46 227.9C1161.09 227.9 1165.66 232.436 1165.66 240.428V241.616C1165.66 249.5 1161.38 254.396 1154.43 254.396ZM1177.56 254V226.64H1182.78V243.128L1188.83 235.172H1194.37L1187.53 243.74L1194.91 254H1189.01L1182.78 245.108V254H1177.56ZM1202.24 254L1195.98 228.26H1201.88L1205.92 246.044L1210.31 228.26H1215.28L1219.85 246.152L1224.02 228.26H1229.42L1223.16 254H1217.22L1212.58 236.216L1207.86 254H1202.24ZM1232.47 254V226.64H1237.69V238.16C1238.63 236.288 1240.68 234.74 1243.81 234.74C1247.52 234.74 1250.15 236.972 1250.15 242.012V254H1244.93V242.768C1244.93 240.212 1243.92 238.988 1241.62 238.988C1239.39 238.988 1237.69 240.356 1237.69 243.128V254H1232.47Z" fill="#9AB856"/>
<path d="M1013.18 280.656C1014.62 280.656 1015.48 279.584 1015.48 277.872V277.76C1015.48 276.032 1014.62 274.976 1013.18 274.976C1011.74 274.976 1010.86 276.016 1010.86 277.744V277.872C1010.86 279.584 1011.71 280.656 1013.18 280.656ZM1013.16 282.16C1010.7 282.16 1008.88 280.448 1008.88 277.904V277.776C1008.88 275.184 1010.72 273.456 1013.18 273.456C1015.63 273.456 1017.47 275.168 1017.47 277.728V277.856C1017.47 280.464 1015.63 282.16 1013.16 282.16ZM1019.55 282V275.088H1018.42V273.632H1019.55V272.512C1019.55 270.672 1020.58 269.68 1022.37 269.68C1022.83 269.68 1023.12 269.728 1023.47 269.84V271.344C1023.25 271.264 1022.95 271.2 1022.59 271.2C1021.81 271.2 1021.49 271.712 1021.49 272.432V273.632H1023.39V275.088H1021.49V282H1019.55ZM1032.51 282.16C1030.04 282.16 1028.27 280.544 1028.27 277.904V277.776C1028.27 275.184 1030.04 273.456 1032.43 273.456C1034.51 273.456 1036.38 274.688 1036.38 277.68V278.24H1030.25C1030.31 279.824 1031.11 280.72 1032.55 280.72C1033.72 280.72 1034.33 280.256 1034.47 279.44H1036.35C1036.07 281.2 1034.65 282.16 1032.51 282.16ZM1030.28 276.944H1034.46C1034.36 275.504 1033.63 274.864 1032.43 274.864C1031.26 274.864 1030.47 275.648 1030.28 276.944ZM1038.11 282V273.632H1040.04V274.96C1040.44 274.144 1041.37 273.456 1042.75 273.456C1044.43 273.456 1045.61 274.432 1045.61 276.736V282H1043.68V276.912C1043.68 275.648 1043.16 275.072 1042.01 275.072C1040.92 275.072 1040.04 275.744 1040.04 277.072V282H1038.11ZM1051.52 282.16C1049.06 282.16 1047.28 280.544 1047.28 277.904V277.776C1047.28 275.184 1049.06 273.456 1051.44 273.456C1053.52 273.456 1055.39 274.688 1055.39 277.68V278.24H1049.27C1049.33 279.824 1050.13 280.72 1051.57 280.72C1052.74 280.72 1053.35 280.256 1053.49 279.44H1055.36C1055.09 281.2 1053.67 282.16 1051.52 282.16ZM1049.3 276.944H1053.47C1053.38 275.504 1052.64 274.864 1051.44 274.864C1050.27 274.864 1049.49 275.648 1049.3 276.944ZM1057.12 282V273.632H1059.06V275.2C1059.59 274.144 1060.37 273.52 1061.78 273.504V275.312C1060.08 275.328 1059.06 275.872 1059.06 277.648V282H1057.12ZM1066.89 285.072C1064.27 285.072 1063.09 283.888 1062.86 282.288H1064.81C1064.97 283.12 1065.61 283.6 1066.88 283.6C1068.38 283.6 1069.21 282.848 1069.21 281.344V280.112C1068.75 280.912 1067.71 281.664 1066.48 281.664C1064.38 281.664 1062.77 280.096 1062.77 277.68V277.568C1062.77 275.216 1064.37 273.456 1066.53 273.456C1067.9 273.456 1068.73 274.08 1069.21 274.912V273.632H1071.15V281.376C1071.13 283.84 1069.49 285.072 1066.89 285.072ZM1066.96 280.176C1068.3 280.176 1069.28 279.216 1069.28 277.616V277.504C1069.28 275.92 1068.41 274.976 1067.02 274.976C1065.58 274.976 1064.75 276.016 1064.75 277.536V277.664C1064.75 279.216 1065.71 280.176 1066.96 280.176ZM1074.38 284.864L1075.9 281.152L1072.59 273.632H1074.68L1076.91 279.024L1078.96 273.632H1080.84L1076.28 284.864H1074.38ZM1088.97 282.16C1086.81 282.16 1085.55 281.168 1085.47 279.392H1087.29C1087.39 280.24 1087.82 280.736 1088.96 280.736C1090 280.736 1090.46 280.368 1090.46 279.664C1090.46 278.976 1089.9 278.72 1088.67 278.512C1086.46 278.16 1085.64 277.536 1085.64 275.968C1085.64 274.288 1087.21 273.456 1088.78 273.456C1090.49 273.456 1091.85 274.096 1092.06 275.984H1090.27C1090.11 275.216 1089.68 274.864 1088.78 274.864C1087.95 274.864 1087.45 275.264 1087.45 275.856C1087.45 276.464 1087.85 276.704 1089.18 276.928C1091.15 277.232 1092.32 277.712 1092.32 279.488C1092.32 281.184 1091.12 282.16 1088.97 282.16ZM1096.21 282.16C1094.67 282.16 1093.41 281.424 1093.41 279.68C1093.41 277.728 1095.29 277.024 1097.69 277.024H1098.73V276.592C1098.73 275.472 1098.35 274.912 1097.21 274.912C1096.21 274.912 1095.71 275.392 1095.61 276.224H1093.74C1093.9 274.272 1095.45 273.456 1097.33 273.456C1099.2 273.456 1100.67 274.224 1100.67 276.512V282H1098.77V280.976C1098.22 281.696 1097.49 282.16 1096.21 282.16ZM1096.67 280.768C1097.85 280.768 1098.73 280.144 1098.73 279.072V278.24H1097.74C1096.27 278.24 1095.33 278.576 1095.33 279.6C1095.33 280.304 1095.71 280.768 1096.67 280.768ZM1104.85 282L1101.79 273.632H1103.87L1106.06 280.016L1108.22 273.632H1110.13L1107.1 282H1104.85ZM1114.93 282.16C1112.46 282.16 1110.69 280.544 1110.69 277.904V277.776C1110.69 275.184 1112.46 273.456 1114.85 273.456C1116.93 273.456 1118.8 274.688 1118.8 277.68V278.24H1112.67C1112.74 279.824 1113.54 280.72 1114.98 280.72C1116.14 280.72 1116.75 280.256 1116.9 279.44H1118.77C1118.5 281.2 1117.07 282.16 1114.93 282.16ZM1112.7 276.944H1116.88C1116.78 275.504 1116.05 274.864 1114.85 274.864C1113.68 274.864 1112.9 275.648 1112.7 276.944ZM1123.67 282.16C1121.57 282.16 1119.99 280.672 1119.99 277.952V277.824C1119.99 275.152 1121.57 273.456 1123.75 273.456C1125.11 273.456 1125.95 274.08 1126.42 274.912V269.76H1128.35V282H1126.42V280.592C1125.97 281.424 1124.9 282.16 1123.67 282.16ZM1124.15 280.624C1125.49 280.624 1126.48 279.728 1126.48 277.856V277.728C1126.48 275.888 1125.63 274.976 1124.23 274.976C1122.8 274.976 1121.97 275.968 1121.97 277.776V277.904C1121.97 279.744 1122.9 280.624 1124.15 280.624Z" fill="black"/>
<path d="M1064.62 146C1070.75 142.274 1077.12 138.81 1083.76 135.634C1084.33 135.359 1084.91 135.083 1085.5 134.808C1131.85 113.079 1185.87 112.921 1236.49 125.282" stroke="#267C46" stroke-width="6" stroke-miterlimit="10" stroke-linecap="square"/>
<path d="M802.433 327.164C835.32 329.515 867.703 327.444 897.615 314.004C906.353 310.076 914.52 305.319 921.847 299.855C946.987 281.084 961.372 255.459 978.496 232.145C995.435 209.098 1013.97 186.519 1037.03 167" stroke="#267C46" stroke-width="6" stroke-miterlimit="10" stroke-linecap="square"/>
<path d="M360.847 430C459.836 392.146 554.676 299.848 685.519 312.113C711.894 314.591 739.55 319.799 767.307 323.642" stroke="#267C46" stroke-width="6" stroke-miterlimit="10" stroke-linecap="square"/>
<path d="M125 367C201.091 442 265.026 454.953 325.721 441.147" stroke="#267C46" stroke-width="6" stroke-miterlimit="10" stroke-linecap="square"/>
<path d="M344.341 446C349.082 446 352.926 442.194 352.926 437.5C352.926 432.806 349.082 429 344.341 429C339.6 429 335.757 432.806 335.757 437.5C335.757 442.194 339.6 446 344.341 446Z" fill="#DDE2E7"/>
<path d="M783.419 336C788.16 336 792.003 332.194 792.003 327.5C792.003 322.806 788.16 319 783.419 319C778.678 319 774.834 322.806 774.834 327.5C774.834 332.194 778.678 336 783.419 336Z" fill="#DDE2E7"/>
<path d="M1051.88 166C1056.62 166 1060.47 162.194 1060.47 157.5C1060.47 152.806 1056.62 149 1051.88 149C1047.14 149 1043.3 152.806 1043.3 157.5C1043.3 162.194 1047.14 166 1051.88 166Z" fill="#DDE2E7"/>
<path d="M434.074 571V562.4L466.474 556.8V464.6H435.074V455.6L488.874 447.6V557L516.874 562.4V571H434.074Z" fill="#F3F3F3"/>
<path d="M272.875 521.396C265.099 521.396 262.291 516.14 262.291 509.12V508.472C262.291 499.76 267.007 494.9 273.307 494.9C278.419 494.9 281.659 497.312 282.235 502.028H276.835C276.475 500.336 275.611 499.292 273.379 499.292C270.175 499.292 268.195 502.1 268.051 507.392C269.239 505.484 271.183 504.188 274.279 504.188C279.139 504.188 282.775 507.356 282.775 512.54C282.775 517.832 278.995 521.396 272.875 521.396ZM272.803 517.184C275.359 517.184 277.051 515.312 277.051 512.612C277.051 509.912 275.431 508.04 272.803 508.04C270.211 508.04 268.411 509.876 268.411 512.432C268.411 515.384 270.211 517.184 272.803 517.184ZM288.568 521.324C286.768 521.324 285.364 519.92 285.364 518.156C285.364 516.428 286.768 515.024 288.568 515.024C290.404 515.024 291.808 516.428 291.808 518.156C291.808 519.92 290.404 521.324 288.568 521.324ZM294.115 521V520.064L303.547 510.092C306.031 507.464 307.615 505.196 307.615 502.856C307.615 500.732 306.427 499.364 304.195 499.364C301.927 499.364 300.487 500.696 300.091 504.08H294.799C295.087 498.14 298.687 494.9 304.447 494.9C310.135 494.9 313.375 498.068 313.375 502.712C313.375 506.132 311.395 508.94 308.407 511.82L303.547 516.572H313.555V521H294.115ZM325.715 521.396C319.379 521.396 316.427 517.94 316.175 513.332H321.539C321.863 515.492 322.727 516.932 325.679 516.932C328.307 516.932 329.711 515.096 329.711 512.36C329.711 509.588 328.127 507.86 325.535 507.86C323.123 507.86 321.647 508.724 320.603 509.912H317.363L317.723 495.26H334.031V499.688H322.079L321.971 506.132C322.979 504.908 324.779 503.756 327.695 503.756C332.375 503.756 335.579 506.96 335.579 512.432C335.579 517.904 331.655 521.396 325.715 521.396ZM354.332 521.36C350.372 521.36 348.248 519.344 348.248 515.42V505.88H345.836V502.172H348.248V498.104H353.432V502.172H357.392V505.88H353.432V514.952C353.432 516.464 354.188 517.184 355.52 517.184C356.312 517.184 356.888 517.076 357.5 516.824V520.856C356.78 521.108 355.736 521.36 354.332 521.36ZM369.81 517.436C372.726 517.436 374.418 515.276 374.418 511.712V511.46C374.418 507.86 372.726 505.7 369.81 505.7C366.93 505.7 365.202 507.788 365.202 511.388V511.676C365.202 515.276 366.858 517.436 369.81 517.436ZM369.774 521.396C364.158 521.396 359.874 517.652 359.874 511.784V511.496C359.874 505.592 364.158 501.74 369.81 501.74C375.462 501.74 379.71 505.52 379.71 511.388V511.676C379.71 517.616 375.426 521.396 369.774 521.396ZM383.21 521V502.172H388.43V505.16C389.366 503.288 391.418 501.74 394.55 501.74C398.258 501.74 400.886 503.972 400.886 509.012V521H395.666V509.768C395.666 507.212 394.658 505.988 392.354 505.988C390.122 505.988 388.43 507.356 388.43 510.128V521H383.21ZM412.198 521.396C407.122 521.396 404.17 519.164 403.99 515.096H408.85C409.066 516.788 409.894 517.76 412.162 517.76C414.178 517.76 415.114 517.004 415.114 515.708C415.114 514.412 413.998 513.872 411.298 513.476C406.294 512.72 404.35 511.28 404.35 507.608C404.35 503.684 407.95 501.74 411.802 501.74C415.978 501.74 419.11 503.252 419.578 507.572H414.79C414.502 506.024 413.638 505.304 411.838 505.304C410.146 505.304 409.174 506.096 409.174 507.248C409.174 508.436 410.074 508.904 412.81 509.3C417.526 509.984 420.118 511.172 420.118 515.204C420.118 519.272 417.166 521.396 412.198 521.396Z" fill="#9AB856"/>
<path d="M265.567 547.855C267.007 547.855 267.871 546.783 267.871 545.071V544.959C267.871 543.231 267.007 542.175 265.567 542.175C264.127 542.175 263.247 543.215 263.247 544.943V545.071C263.247 546.783 264.095 547.855 265.567 547.855ZM265.551 549.359C263.087 549.359 261.263 547.647 261.263 545.103V544.975C261.263 542.383 263.103 540.655 265.567 540.655C268.015 540.655 269.855 542.367 269.855 544.927V545.055C269.855 547.663 268.015 549.359 265.551 549.359ZM271.94 549.199V542.287H270.804V540.831H271.94V539.711C271.94 537.871 272.964 536.879 274.756 536.879C275.22 536.879 275.508 536.927 275.86 537.039V538.543C275.636 538.463 275.332 538.399 274.98 538.399C274.196 538.399 273.876 538.911 273.876 539.631V540.831H275.78V542.287H273.876V549.199H271.94ZM284.894 549.359C282.43 549.359 280.654 547.743 280.654 545.103V544.975C280.654 542.383 282.43 540.655 284.814 540.655C286.894 540.655 288.766 541.887 288.766 544.879V545.439H282.638C282.702 547.023 283.502 547.919 284.942 547.919C286.11 547.919 286.718 547.455 286.862 546.639H288.734C288.462 548.399 287.038 549.359 284.894 549.359ZM282.67 544.143H286.846C286.75 542.703 286.014 542.063 284.814 542.063C283.646 542.063 282.862 542.847 282.67 544.143ZM290.239 545.535V543.935H294.079V545.535H290.239ZM297.551 549.199L294.991 540.831H297.055L298.719 546.879L300.495 540.831H302.111L303.743 546.879L305.487 540.831H307.375L304.751 549.199H302.783L301.231 543.567L299.535 549.199H297.551ZM310.812 549.359C309.276 549.359 308.012 548.623 308.012 546.879C308.012 544.927 309.9 544.223 312.3 544.223H313.34V543.791C313.34 542.671 312.956 542.111 311.82 542.111C310.812 542.111 310.316 542.591 310.22 543.423H308.348C308.508 541.471 310.06 540.655 311.932 540.655C313.804 540.655 315.276 541.423 315.276 543.711V549.199H313.372V548.175C312.828 548.895 312.092 549.359 310.812 549.359ZM311.276 547.967C312.46 547.967 313.34 547.343 313.34 546.271V545.439H312.348C310.876 545.439 309.932 545.775 309.932 546.799C309.932 547.503 310.316 547.967 311.276 547.967ZM320.359 549.359C318.199 549.359 316.935 548.367 316.855 546.591H318.679C318.775 547.439 319.207 547.935 320.343 547.935C321.383 547.935 321.847 547.567 321.847 546.863C321.847 546.175 321.287 545.919 320.055 545.711C317.847 545.359 317.031 544.735 317.031 543.167C317.031 541.487 318.599 540.655 320.167 540.655C321.879 540.655 323.239 541.295 323.447 543.183H321.655C321.495 542.415 321.063 542.063 320.167 542.063C319.335 542.063 318.839 542.463 318.839 543.055C318.839 543.663 319.239 543.903 320.567 544.127C322.535 544.431 323.703 544.911 323.703 546.687C323.703 548.383 322.503 549.359 320.359 549.359ZM328.249 549.343C326.585 549.343 325.721 548.447 325.721 546.863V542.287H324.601V540.831H325.721V538.991H327.657V540.831H329.497V542.287H327.657V546.687C327.657 547.423 328.009 547.759 328.617 547.759C329.001 547.759 329.289 547.711 329.561 547.599V549.135C329.257 549.247 328.841 549.343 328.249 549.343ZM334.988 549.359C332.524 549.359 330.748 547.743 330.748 545.103V544.975C330.748 542.383 332.524 540.655 334.908 540.655C336.988 540.655 338.86 541.887 338.86 544.879V545.439H332.732C332.796 547.023 333.596 547.919 335.036 547.919C336.204 547.919 336.812 547.455 336.956 546.639H338.828C338.556 548.399 337.132 549.359 334.988 549.359ZM332.764 544.143H336.94C336.844 542.703 336.108 542.063 334.908 542.063C333.74 542.063 332.956 542.847 332.764 544.143ZM347.265 549.359C345.105 549.359 343.841 548.367 343.761 546.591H345.585C345.681 547.439 346.113 547.935 347.249 547.935C348.289 547.935 348.753 547.567 348.753 546.863C348.753 546.175 348.193 545.919 346.961 545.711C344.753 545.359 343.937 544.735 343.937 543.167C343.937 541.487 345.505 540.655 347.073 540.655C348.785 540.655 350.145 541.295 350.353 543.183H348.561C348.401 542.415 347.969 542.063 347.073 542.063C346.241 542.063 345.745 542.463 345.745 543.055C345.745 543.663 346.145 543.903 347.473 544.127C349.441 544.431 350.609 544.911 350.609 546.687C350.609 548.383 349.409 549.359 347.265 549.359ZM354.5 549.359C352.964 549.359 351.7 548.623 351.7 546.879C351.7 544.927 353.588 544.223 355.988 544.223H357.028V543.791C357.028 542.671 356.644 542.111 355.508 542.111C354.5 542.111 354.004 542.591 353.908 543.423H352.036C352.196 541.471 353.748 540.655 355.62 540.655C357.492 540.655 358.964 541.423 358.964 543.711V549.199H357.06V548.175C356.516 548.895 355.78 549.359 354.5 549.359ZM354.964 547.967C356.148 547.967 357.028 547.343 357.028 546.271V545.439H356.036C354.564 545.439 353.62 545.775 353.62 546.799C353.62 547.503 354.004 547.967 354.964 547.967ZM363.14 549.199L360.084 540.831H362.164L364.356 547.215L366.516 540.831H368.42L365.396 549.199H363.14ZM373.222 549.359C370.758 549.359 368.982 547.743 368.982 545.103V544.975C368.982 542.383 370.758 540.655 373.142 540.655C375.222 540.655 377.094 541.887 377.094 544.879V545.439H370.966C371.03 547.023 371.83 547.919 373.27 547.919C374.438 547.919 375.046 547.455 375.19 546.639H377.062C376.79 548.399 375.366 549.359 373.222 549.359ZM370.998 544.143H375.174C375.078 542.703 374.342 542.063 373.142 542.063C371.974 542.063 371.19 542.847 370.998 544.143ZM381.959 549.359C379.863 549.359 378.279 547.871 378.279 545.151V545.023C378.279 542.351 379.863 540.655 382.039 540.655C383.399 540.655 384.247 541.279 384.711 542.111V536.959H386.647V549.199H384.711V547.791C384.263 548.623 383.191 549.359 381.959 549.359ZM382.439 547.823C383.783 547.823 384.775 546.927 384.775 545.055V544.927C384.775 543.087 383.927 542.175 382.519 542.175C381.095 542.175 380.263 543.167 380.263 544.975V545.103C380.263 546.943 381.191 547.823 382.439 547.823ZM262.159 567.199V560.287H261.023V558.831H262.159V557.711C262.159 555.871 263.183 554.879 264.975 554.879C265.439 554.879 265.727 554.927 266.079 555.039V556.543C265.855 556.463 265.551 556.399 265.199 556.399C264.415 556.399 264.095 556.911 264.095 557.631V558.831H265.999V560.287H264.095V567.199H262.159ZM267.62 567.199V558.831H269.556V560.399C270.084 559.343 270.868 558.719 272.276 558.703V560.511C270.58 560.527 269.556 561.071 269.556 562.847V567.199H267.62ZM277.567 565.855C279.007 565.855 279.871 564.783 279.871 563.071V562.959C279.871 561.231 279.007 560.175 277.567 560.175C276.127 560.175 275.247 561.215 275.247 562.943V563.071C275.247 564.783 276.095 565.855 277.567 565.855ZM277.551 567.359C275.087 567.359 273.263 565.647 273.263 563.103V562.975C273.263 560.383 275.103 558.655 277.567 558.655C280.015 558.655 281.855 560.367 281.855 562.927V563.055C281.855 565.663 280.015 567.359 277.551 567.359ZM283.604 567.199V558.831H285.54V560.111C285.94 559.327 286.852 558.655 288.084 558.655C289.172 558.655 290.036 559.119 290.452 560.159C291.092 559.119 292.244 558.655 293.284 558.655C294.82 558.655 296.068 559.599 296.068 561.903V567.199H294.132V562.031C294.132 560.799 293.604 560.271 292.644 560.271C291.684 560.271 290.804 560.911 290.804 562.191V567.199H288.868V562.031C288.868 560.799 288.324 560.271 287.38 560.271C286.42 560.271 285.54 560.911 285.54 562.191V567.199H283.604ZM305.784 567.359C303.32 567.359 301.544 565.743 301.544 563.103V562.975C301.544 560.383 303.32 558.655 305.704 558.655C307.784 558.655 309.656 559.887 309.656 562.879V563.439H303.528C303.592 565.023 304.392 565.919 305.832 565.919C307 565.919 307.608 565.455 307.752 564.639H309.624C309.352 566.399 307.928 567.359 305.784 567.359ZM303.56 562.143H307.736C307.64 560.703 306.904 560.063 305.704 560.063C304.536 560.063 303.752 560.847 303.56 562.143ZM311.386 567.199V558.831H313.322V560.159C313.722 559.343 314.65 558.655 316.026 558.655C317.706 558.655 318.89 559.631 318.89 561.935V567.199H316.954V562.111C316.954 560.847 316.442 560.271 315.29 560.271C314.202 560.271 313.322 560.943 313.322 562.271V567.199H311.386ZM324.256 567.359C322.16 567.359 320.576 565.871 320.576 563.151V563.023C320.576 560.351 322.16 558.655 324.336 558.655C325.696 558.655 326.544 559.279 327.008 560.111V554.959H328.944V567.199H327.008V565.791C326.56 566.623 325.488 567.359 324.256 567.359ZM324.736 565.823C326.08 565.823 327.072 564.927 327.072 563.055V562.927C327.072 561.087 326.224 560.175 324.816 560.175C323.392 560.175 322.56 561.167 322.56 562.975V563.103C322.56 564.943 323.488 565.823 324.736 565.823ZM331.293 567.199V558.831H333.229V567.199H331.293ZM332.237 557.455C331.597 557.455 331.085 556.975 331.085 556.351C331.085 555.711 331.597 555.231 332.237 555.231C332.877 555.231 333.389 555.711 333.389 556.351C333.389 556.975 332.877 557.455 332.237 557.455ZM335.589 567.199V558.831H337.525V560.159C337.925 559.343 338.853 558.655 340.229 558.655C341.909 558.655 343.093 559.631 343.093 561.935V567.199H341.157V562.111C341.157 560.847 340.645 560.271 339.493 560.271C338.405 560.271 337.525 560.943 337.525 562.271V567.199H335.589ZM348.891 570.271C346.267 570.271 345.083 569.087 344.859 567.487H346.811C346.971 568.319 347.611 568.799 348.875 568.799C350.379 568.799 351.211 568.047 351.211 566.543V565.311C350.747 566.111 349.707 566.863 348.475 566.863C346.379 566.863 344.763 565.295 344.763 562.879V562.767C344.763 560.415 346.363 558.655 348.523 558.655C349.899 558.655 350.731 559.279 351.211 560.111V558.831H353.147V566.575C353.131 569.039 351.483 570.271 348.891 570.271ZM348.955 565.375C350.299 565.375 351.275 564.415 351.275 562.815V562.703C351.275 561.119 350.411 560.175 349.019 560.175C347.579 560.175 346.747 561.215 346.747 562.735V562.863C346.747 564.415 347.707 565.375 348.955 565.375ZM362.061 567.359C360.413 567.359 359.181 566.415 359.181 564.191V558.831H361.117V563.967C361.117 565.231 361.645 565.807 362.765 565.807C363.805 565.807 364.717 565.135 364.717 563.807V558.831H366.653V567.199H364.717V565.887C364.301 566.703 363.421 567.359 362.061 567.359ZM368.948 570.063V558.831H370.884V560.175C371.348 559.375 372.388 558.655 373.62 558.655C375.716 558.655 377.332 560.207 377.332 562.911V563.039C377.332 565.727 375.78 567.359 373.62 567.359C372.292 567.359 371.332 566.703 370.884 565.887V570.063H368.948ZM373.14 565.823C374.564 565.823 375.348 564.863 375.348 563.071V562.943C375.348 561.087 374.388 560.175 373.124 560.175C371.78 560.175 370.82 561.087 370.82 562.943V563.071C370.82 564.943 371.732 565.823 373.14 565.823ZM382.934 567.199V558.831H384.87V567.199H382.934ZM383.878 557.455C383.238 557.455 382.726 556.975 382.726 556.351C382.726 555.711 383.238 555.231 383.878 555.231C384.518 555.231 385.03 555.711 385.03 556.351C385.03 556.975 384.518 557.455 383.878 557.455ZM387.229 567.199V558.831H389.165V560.159C389.565 559.343 390.493 558.655 391.869 558.655C393.549 558.655 394.733 559.631 394.733 561.935V567.199H392.797V562.111C392.797 560.847 392.285 560.271 391.133 560.271C390.045 560.271 389.165 560.943 389.165 562.271V567.199H387.229ZM261.871 585.199V572.959H263.807V585.199H261.871ZM268.359 585.359C266.823 585.359 265.559 584.623 265.559 582.879C265.559 580.927 267.447 580.223 269.847 580.223H270.887V579.791C270.887 578.671 270.503 578.111 269.367 578.111C268.359 578.111 267.863 578.591 267.767 579.423H265.895C266.055 577.471 267.607 576.655 269.479 576.655C271.351 576.655 272.823 577.423 272.823 579.711V585.199H270.919V584.175C270.375 584.895 269.639 585.359 268.359 585.359ZM268.823 583.967C270.007 583.967 270.887 583.343 270.887 582.271V581.439H269.895C268.423 581.439 267.479 581.775 267.479 582.799C267.479 583.503 267.863 583.967 268.823 583.967ZM275.042 585.199V576.831H276.978V578.159C277.378 577.343 278.306 576.655 279.682 576.655C281.362 576.655 282.546 577.631 282.546 579.935V585.199H280.61V580.111C280.61 578.847 280.098 578.271 278.946 578.271C277.858 578.271 276.978 578.943 276.978 580.271V585.199H275.042ZM287.912 585.359C285.816 585.359 284.232 583.871 284.232 581.151V581.023C284.232 578.351 285.816 576.655 287.992 576.655C289.352 576.655 290.2 577.279 290.664 578.111V572.959H292.6V585.199H290.664V583.791C290.216 584.623 289.144 585.359 287.912 585.359ZM288.392 583.823C289.736 583.823 290.728 582.927 290.728 581.055V580.927C290.728 579.087 289.88 578.175 288.472 578.175C287.048 578.175 286.216 579.167 286.216 580.975V581.103C286.216 582.943 287.144 583.823 288.392 583.823ZM295.237 585.199V578.287H294.101V576.831H295.237V575.711C295.237 573.871 296.245 572.879 298.021 572.879C298.501 572.879 298.773 572.927 299.077 573.023V574.527C298.853 574.431 298.613 574.399 298.261 574.399C297.493 574.399 297.173 574.911 297.173 575.631V576.831H299.077V578.287H297.173V585.199H295.237ZM300.527 585.199V576.831H302.463V585.199H300.527ZM301.471 575.455C300.831 575.455 300.319 574.975 300.319 574.351C300.319 573.711 300.831 573.231 301.471 573.231C302.111 573.231 302.623 573.711 302.623 574.351C302.623 574.975 302.111 575.455 301.471 575.455ZM304.871 585.199V572.959H306.807V585.199H304.871ZM309.215 585.199V572.959H311.151V585.199H309.215ZM316.375 585.359C314.215 585.359 312.951 584.367 312.871 582.591H314.695C314.791 583.439 315.223 583.935 316.359 583.935C317.399 583.935 317.863 583.567 317.863 582.863C317.863 582.175 317.303 581.919 316.071 581.711C313.863 581.359 313.047 580.735 313.047 579.167C313.047 577.487 314.615 576.655 316.183 576.655C317.895 576.655 319.255 577.295 319.463 579.183H317.671C317.511 578.415 317.079 578.063 316.183 578.063C315.351 578.063 314.855 578.463 314.855 579.055C314.855 579.663 315.255 579.903 316.583 580.127C318.551 580.431 319.719 580.911 319.719 582.687C319.719 584.383 318.519 585.359 316.375 585.359Z" fill="black"/>
</svg>
