<svg width="81" height="81" viewBox="0 0 81 81" fill="none" xmlns="http://www.w3.org/2000/svg">
<g filter="url(#filter0_dd_7143_23070)">
<circle cx="40.5" cy="39.5" r="37.5" fill="#F7F7F6"/>
</g>
<g clip-path="url(#clip0_7143_23070)">
<path d="M50.5 38.5601C51.9556 38.559 53.3914 38.8973 54.6934 39.5483C55.9953 40.1993 57.1275 41.1449 58 42.3101" stroke="black" stroke-width="2" stroke-linecap="round" stroke-linejoin="round"/>
<path d="M23 42.3101C23.8725 41.1449 25.0047 40.1993 26.3066 39.5483C27.6086 38.8973 29.0444 38.559 30.5 38.5601" stroke="black" stroke-width="2" stroke-linecap="round" stroke-linejoin="round"/>
<path d="M40.5 48.5601C43.9518 48.5601 46.75 45.7618 46.75 42.3101C46.75 38.8583 43.9518 36.0601 40.5 36.0601C37.0482 36.0601 34.25 38.8583 34.25 42.3101C34.25 45.7618 37.0482 48.5601 40.5 48.5601Z" stroke="black" stroke-width="2" stroke-linecap="round" stroke-linejoin="round"/>
<path d="M31.75 53.5601C32.6473 52.0373 33.9265 50.7751 35.4611 49.8982C36.9957 49.0213 38.7325 48.5601 40.5 48.5601C42.2675 48.5601 44.0043 49.0213 45.5389 49.8982C47.0735 50.7751 48.3527 52.0373 49.25 53.5601" stroke="black" stroke-width="2" stroke-linecap="round" stroke-linejoin="round"/>
<path d="M45.6562 32.3101C45.89 31.4047 46.373 30.583 47.0503 29.9383C47.7276 29.2937 48.5721 28.8519 49.4879 28.663C50.4037 28.4742 51.3541 28.546 52.2311 28.8702C53.1082 29.1945 53.8768 29.7581 54.4496 30.4972C55.0223 31.2363 55.3764 32.1212 55.4715 33.0514C55.5667 33.9816 55.399 34.9198 54.9877 35.7596C54.5764 36.5993 53.9378 37.3069 53.1445 37.8019C52.3513 38.2969 51.4351 38.5596 50.5 38.5601" stroke="black" stroke-width="2" stroke-linecap="round" stroke-linejoin="round"/>
<path d="M30.5 38.5601C29.565 38.5596 28.6488 38.2969 27.8555 37.8019C27.0622 37.3069 26.4237 36.5993 26.0123 35.7596C25.601 34.9198 25.4334 33.9816 25.5285 33.0514C25.6236 32.1212 25.9777 31.2363 26.5505 30.4972C27.1233 29.7581 27.8918 29.1945 28.7689 28.8702C29.646 28.546 30.5963 28.4742 31.5122 28.663C32.428 28.8519 33.2725 29.2937 33.9498 29.9383C34.6271 30.583 35.11 31.4047 35.3438 32.3101" stroke="black" stroke-width="2" stroke-linecap="round" stroke-linejoin="round"/>
</g>
<defs>
<filter id="filter0_dd_7143_23070" x="0" y="0" width="81" height="81" filterUnits="userSpaceOnUse" color-interpolation-filters="sRGB">
<feFlood flood-opacity="0" result="BackgroundImageFix"/>
<feColorMatrix in="SourceAlpha" type="matrix" values="0 0 0 0 0 0 0 0 0 0 0 0 0 0 0 0 0 0 127 0" result="hardAlpha"/>
<feOffset dy="1"/>
<feGaussianBlur stdDeviation="1"/>
<feComposite in2="hardAlpha" operator="out"/>
<feColorMatrix type="matrix" values="0 0 0 0 0.0156863 0 0 0 0 0.12549 0 0 0 0 0.25098 0 0 0 0.08 0"/>
<feBlend mode="normal" in2="BackgroundImageFix" result="effect1_dropShadow_7143_23070"/>
<feColorMatrix in="SourceAlpha" type="matrix" values="0 0 0 0 0 0 0 0 0 0 0 0 0 0 0 0 0 0 127 0" result="hardAlpha"/>
<feOffset dy="1"/>
<feGaussianBlur stdDeviation="1.5"/>
<feComposite in2="hardAlpha" operator="out"/>
<feColorMatrix type="matrix" values="0 0 0 0 0.0156863 0 0 0 0 0.12549 0 0 0 0 0.25098 0 0 0 0.12 0"/>
<feBlend mode="normal" in2="effect1_dropShadow_7143_23070" result="effect2_dropShadow_7143_23070"/>
<feBlend mode="normal" in="SourceGraphic" in2="effect2_dropShadow_7143_23070" result="shape"/>
</filter>
<clipPath id="clip0_7143_23070">
<rect width="40" height="40" fill="white" transform="translate(20.5 19.8101)"/>
</clipPath>
</defs>
</svg>
