<svg width="81" height="81" viewBox="0 0 81 81" fill="none" xmlns="http://www.w3.org/2000/svg">
<g filter="url(#filter0_dd_7143_23332)">
<circle cx="40.5" cy="39.5" r="37.5" fill="#F7F7F6"/>
</g>
<g clip-path="url(#clip0_7143_23332)">
<path d="M54.75 28.9951H27.25C26.5596 28.9951 26 29.5548 26 30.2451V50.2451C26 50.9355 26.5596 51.4951 27.25 51.4951H54.75C55.4404 51.4951 56 50.9355 56 50.2451V30.2451C56 29.5548 55.4404 28.9951 54.75 28.9951Z" stroke="black" stroke-width="3" stroke-linecap="round" stroke-linejoin="round"/>
<path d="M47.25 28.9951V25.8701C47.25 25.2071 46.9866 24.5712 46.5178 24.1024C46.0489 23.6335 45.413 23.3701 44.75 23.3701H37.25C36.587 23.3701 35.9511 23.6335 35.4822 24.1024C35.0134 24.5712 34.75 25.2071 34.75 25.8701V28.9951" stroke="black" stroke-width="3" stroke-linecap="round" stroke-linejoin="round"/>
<path d="M26 42.7451H56" stroke="black" stroke-width="3" stroke-linecap="round" stroke-linejoin="round"/>
</g>
<defs>
<filter id="filter0_dd_7143_23332" x="0" y="0" width="81" height="81" filterUnits="userSpaceOnUse" color-interpolation-filters="sRGB">
<feFlood flood-opacity="0" result="BackgroundImageFix"/>
<feColorMatrix in="SourceAlpha" type="matrix" values="0 0 0 0 0 0 0 0 0 0 0 0 0 0 0 0 0 0 127 0" result="hardAlpha"/>
<feOffset dy="1"/>
<feGaussianBlur stdDeviation="1"/>
<feComposite in2="hardAlpha" operator="out"/>
<feColorMatrix type="matrix" values="0 0 0 0 0.0156863 0 0 0 0 0.12549 0 0 0 0 0.25098 0 0 0 0.08 0"/>
<feBlend mode="normal" in2="BackgroundImageFix" result="effect1_dropShadow_7143_23332"/>
<feColorMatrix in="SourceAlpha" type="matrix" values="0 0 0 0 0 0 0 0 0 0 0 0 0 0 0 0 0 0 127 0" result="hardAlpha"/>
<feOffset dy="1"/>
<feGaussianBlur stdDeviation="1.5"/>
<feComposite in2="hardAlpha" operator="out"/>
<feColorMatrix type="matrix" values="0 0 0 0 0.0156863 0 0 0 0 0.12549 0 0 0 0 0.25098 0 0 0 0.12 0"/>
<feBlend mode="normal" in2="effect1_dropShadow_7143_23332" result="effect2_dropShadow_7143_23332"/>
<feBlend mode="normal" in="SourceGraphic" in2="effect2_dropShadow_7143_23332" result="shape"/>
</filter>
<clipPath id="clip0_7143_23332">
<rect width="40" height="40" fill="white" transform="translate(21 19.6201)"/>
</clipPath>
</defs>
</svg>
